<svg xmlns="http://www.w3.org/2000/svg" width="240" height="240" viewBox="0 0 240 240" fill="none">
    <rect width="240" height="240" fill="white"/>
    <path d="M163.343 33.768C163.179 33.1292 163.208 32.4562 163.427 31.8339C163.645 31.2117 164.043 30.6681 164.57 30.2719C165.097 29.8756 165.73 29.6446 166.388 29.6078C167.047 29.5711 167.701 29.7303 168.269 30.0654C168.837 30.4005 169.293 30.8964 169.58 31.4905C169.866 32.0846 169.97 32.7503 169.878 33.4033C169.786 34.0563 169.503 34.6675 169.064 35.1596C168.624 35.6517 168.049 36.0026 167.411 36.168C166.986 36.2797 166.544 36.3061 166.109 36.2457C165.674 36.1853 165.255 36.0394 164.877 35.8162C164.498 35.593 164.168 35.2971 163.905 34.9456C163.642 34.594 163.451 34.1938 163.343 33.768ZM165.827 30.168C165.276 30.3126 164.78 30.6174 164.402 31.0439C164.025 31.4703 163.782 31.9992 163.705 32.5637C163.627 33.1282 163.719 33.7029 163.969 34.215C164.218 34.7272 164.614 35.1539 165.106 35.4411C165.598 35.7282 166.165 35.863 166.733 35.8283C167.302 35.7937 167.848 35.5911 168.301 35.2463C168.755 34.9015 169.096 34.4299 169.281 33.8912C169.467 33.3525 169.488 32.7709 169.343 32.22C169.251 31.8512 169.086 31.5044 168.859 31.1996C168.632 30.8947 168.347 30.6378 168.02 30.4437C167.693 30.2496 167.331 30.1221 166.955 30.0686C166.578 30.0151 166.195 30.0367 165.827 30.132V30.168Z" fill="#FF7A00"/>
    <path d="M173.112 39.36C172.949 38.7217 172.978 38.0493 173.196 37.4277C173.415 36.8061 173.812 36.2631 174.339 35.8672C174.866 35.4712 175.498 35.2401 176.155 35.2029C176.813 35.1657 177.467 35.3241 178.035 35.6582C178.603 35.9922 179.059 36.4869 179.346 37.08C179.634 37.673 179.739 38.3377 179.648 38.9904C179.558 39.643 179.277 40.2543 178.84 40.7472C178.402 41.2401 177.829 41.5925 177.192 41.76C176.333 41.9825 175.42 41.8547 174.655 41.4047C173.89 40.9546 173.335 40.2192 173.112 39.36ZM175.608 35.76C175.057 35.9046 174.561 36.2094 174.183 36.6359C173.805 37.0623 173.562 37.5912 173.485 38.1557C173.408 38.7202 173.5 39.2949 173.75 39.807C173.999 40.3192 174.395 40.7459 174.887 41.0331C175.379 41.3202 175.945 41.455 176.514 41.4203C177.083 41.3857 177.628 41.1831 178.082 40.8383C178.535 40.4935 178.876 40.0219 179.062 39.4832C179.247 38.9445 179.269 38.3629 179.124 37.812C179.033 37.4424 178.869 37.0946 178.643 36.7889C178.416 36.4832 178.131 36.2256 177.803 36.0313C177.476 35.837 177.113 35.7097 176.736 35.6569C176.36 35.6042 175.976 35.627 175.608 35.724V35.76Z" fill="#FF7A00"/>
    <path d="M166.177 44.232L176.305 26.832C176.335 26.7795 176.385 26.7411 176.443 26.7254C176.502 26.7096 176.564 26.7178 176.617 26.748C176.669 26.7782 176.708 26.8281 176.723 26.8866C176.739 26.9451 176.731 27.0075 176.701 27.06L166.561 44.46C166.55 44.492 166.532 44.5211 166.508 44.5453C166.484 44.5695 166.455 44.5881 166.424 44.5997C166.392 44.6114 166.358 44.6158 166.324 44.6127C166.29 44.6095 166.258 44.599 166.229 44.5817C166.2 44.5644 166.175 44.5408 166.156 44.5127C166.137 44.4846 166.125 44.4527 166.12 44.4192C166.115 44.3857 166.117 44.3516 166.127 44.3192C166.137 44.2868 166.154 44.257 166.177 44.232Z" fill="#FF7A00"/>
    <path d="M212.964 130.344C212.449 129.497 211.704 128.815 210.816 128.375C209.928 127.935 208.934 127.757 207.948 127.86L193.704 57.156L201.6 50.124C202.157 50.6601 202.9 50.9596 203.673 50.9596C204.446 50.9596 205.189 50.66 205.746 50.1238C206.302 49.5876 206.63 48.8566 206.659 48.0842C206.688 47.3118 206.417 46.5581 205.902 45.9816C205.387 45.405 204.669 45.0503 203.898 44.9921C203.127 44.9339 202.364 45.1766 201.768 45.6693C201.173 46.162 200.791 46.8663 200.704 47.6343C200.617 48.4023 200.83 49.1743 201.3 49.788C192.756 57.456 193.248 56.928 193.284 57.12L196.644 73.776L127.74 117.6C127.713 117.62 127.691 117.646 127.676 117.676C127.66 117.707 127.652 117.74 127.652 117.774C127.652 117.808 127.66 117.841 127.676 117.871C127.691 117.902 127.713 117.928 127.74 117.948C156.66 143.784 154.728 142.284 154.944 142.176L204.912 114.888L207.528 127.908C206.693 128.073 205.911 128.44 205.25 128.976C204.589 129.512 204.068 130.201 203.734 130.984C203.399 131.766 203.261 132.619 203.33 133.467C203.4 134.316 203.675 135.134 204.132 135.852C177.732 153.948 179.1 153.072 179.028 152.952C178.32 151.782 177.182 150.935 175.858 150.592C174.534 150.25 173.128 150.438 171.941 151.116C170.753 151.795 169.878 152.911 169.502 154.226C169.125 155.541 169.277 156.951 169.926 158.155C170.574 159.359 171.668 160.263 172.973 160.672C174.278 161.082 175.691 160.965 176.911 160.348C178.132 159.73 179.062 158.66 179.505 157.366C179.948 156.072 179.867 154.656 179.28 153.42L204.384 136.212C205.178 137.325 206.376 138.082 207.722 138.321C209.067 138.559 210.453 138.261 211.581 137.49C212.709 136.718 213.489 135.535 213.755 134.195C214.02 132.854 213.749 131.463 213 130.32L212.964 130.344ZM154.8 141.72L128.232 117.84L196.632 74.256L204.732 114.444L154.8 141.72Z" fill="#FF7A00"/>
    <path d="M114.299 151.56C114.232 150.023 113.838 148.518 113.143 147.146C112.447 145.774 111.467 144.567 110.267 143.604C102.159 136.916 93.5232 130.897 84.4431 125.604C84.1182 122.318 83.4464 119.076 82.4391 115.932L69.4551 112.212C69.4551 112.212 54.2031 124.212 57.9111 135.084C59.9631 141.084 68.0751 149.112 95.4471 155.4C92.7087 169.629 89.1508 183.689 84.7911 197.508C85.9911 195.24 91.9911 193.908 99.0711 194.7C106.799 195.6 112.799 198.384 112.547 201L112.631 201.108C114.44 184.658 114.998 168.094 114.299 151.56Z" fill="#F1F4F6"/>
    <path d="M118.8 135C94.8005 122.172 83.4965 118.44 83.0645 118.116C83.7791 120.575 84.2415 123.1 84.4445 125.652C93.5245 130.945 102.161 136.964 110.268 143.652C111.468 144.615 112.449 145.822 113.144 147.194C113.839 148.566 114.234 150.071 114.3 151.608C114.3 152.4 114.372 153.192 114.396 154.008L137.784 188.568C136.716 186.6 140.184 181.368 145.86 176.568C151.536 171.768 157.152 169.26 158.988 170.568L124.512 139.068C122.79 137.474 120.87 136.107 118.8 135Z" fill="#F1F4F6"/>
    <path d="M139.548 93.144C139.419 91.232 138.892 89.3681 138 87.672C137.978 87.6457 137.962 87.6149 137.954 87.5819C137.946 87.5488 137.945 87.5143 137.952 87.4809C137.959 87.4475 137.973 87.4161 137.994 87.3889C138.014 87.3618 138.041 87.3396 138.071 87.324C138.101 87.3084 138.135 87.2997 138.169 87.2988C138.203 87.2978 138.237 87.3044 138.268 87.3182C138.299 87.3321 138.327 87.3527 138.349 87.3786C138.371 87.4045 138.387 87.4351 138.396 87.468C139.325 89.2145 139.88 91.1352 140.028 93.108C140.03 93.1395 140.026 93.1712 140.016 93.2012C140.006 93.2312 139.991 93.259 139.97 93.283C139.949 93.3069 139.924 93.3266 139.896 93.3408C139.868 93.3551 139.837 93.3636 139.806 93.366C139.774 93.3684 139.742 93.3645 139.712 93.3546C139.682 93.3447 139.655 93.329 139.631 93.3084C139.607 93.2878 139.587 93.2627 139.573 93.2345C139.559 93.2063 139.55 93.1755 139.548 93.144Z" fill="#0C0C1B"/>
    <path d="M156.805 68.88C155.478 67.5467 153.899 66.4908 152.16 65.7738C150.422 65.0568 148.557 64.6932 146.677 64.704C144.179 64.7106 141.727 65.3705 139.563 66.618C137.4 67.8656 135.6 69.6574 134.343 71.8156C133.086 73.9738 132.416 76.4232 132.399 78.9207C132.381 81.4181 133.018 83.8766 134.245 86.052C134.258 86.0793 134.277 86.1034 134.301 86.1228C134.325 86.1421 134.352 86.1562 134.382 86.1641C134.411 86.1721 134.442 86.1737 134.472 86.1688C134.502 86.164 134.531 86.1528 134.557 86.136C135.757 85.392 139.201 82.764 139.669 83.028C139.683 83.0749 139.683 83.1251 139.669 83.172C139.489 84.372 136.897 86.772 135.913 87.648C135.781 87.756 135.913 87.852 135.913 88.26C135.891 88.314 135.891 88.374 135.913 88.428C137.185 89.842 138.727 90.988 140.447 91.799C142.168 92.61 144.033 93.0696 145.933 93.151C147.834 93.2324 149.731 92.934 151.515 92.2731C153.299 91.6122 154.933 90.6022 156.321 89.3022C157.71 88.0021 158.825 86.4382 159.602 84.7019C160.379 82.9655 160.802 81.0917 160.846 79.19C160.89 77.2883 160.554 75.397 159.858 73.6267C159.162 71.8564 158.12 70.2427 156.793 68.88H156.805Z" fill="#FF7A00"/>
    <path d="M151.861 81.696L147.061 78.936L149.821 74.076C149.844 74.051 149.86 74.0212 149.87 73.9888C149.88 73.9564 149.883 73.9223 149.878 73.8888C149.873 73.8553 149.86 73.8234 149.842 73.7953C149.823 73.7672 149.798 73.7436 149.769 73.7263C149.74 73.709 149.707 73.6985 149.673 73.6953C149.64 73.6922 149.606 73.6967 149.574 73.7083C149.542 73.72 149.513 73.7385 149.489 73.7627C149.466 73.7869 149.448 73.816 149.437 73.848L146.665 78.708L141.805 75.936C141.753 75.9171 141.697 75.9173 141.646 75.9366C141.595 75.9558 141.552 75.9928 141.526 76.0408C141.5 76.0888 141.492 76.1446 141.503 76.1981C141.515 76.2515 141.545 76.2991 141.589 76.332L146.389 79.104L143.629 83.904C143.497 84.12 143.809 84.432 144.037 84.096C144.265 83.76 144.853 82.668 146.785 79.296C148.388 80.3188 150.046 81.2523 151.753 82.092C151.795 82.0841 151.834 82.0646 151.865 82.0355C151.897 82.0065 151.92 81.9692 151.931 81.9279C151.942 81.8865 151.942 81.8429 151.929 81.8018C151.917 81.7608 151.893 81.7242 151.861 81.696Z" fill="#F1F4F6"/>
    <path d="M180.959 196.092C176.489 191.749 171.427 188.061 165.923 185.136C162.323 183.288 159.611 180.456 156.983 177.708C158.411 175.92 161.051 172.104 159.383 170.508L124.667 138.768C122.945 137.189 121.03 135.834 118.967 134.736C107.399 128.447 95.4752 122.838 83.2552 117.936C82.9912 116.952 82.7752 116.232 82.6912 115.992C84.8113 112.125 86.6597 108.115 88.2232 103.992C91.64 106.277 95.3548 108.082 99.2632 109.356C101.28 110.065 103.47 110.111 105.515 109.488C113.586 107.046 121.464 104.005 129.083 100.392C129.126 100.37 129.161 100.335 129.182 100.292C129.204 100.248 129.211 100.2 129.203 100.152C129.203 99.924 129.203 99.696 129.107 99.456C130.475 99 139.031 95.976 143.099 91.884C143.13 91.8395 143.143 91.7856 143.138 91.7319C143.133 91.6782 143.108 91.6282 143.069 91.5908C143.03 91.5533 142.98 91.5309 142.926 91.5275C142.872 91.524 142.818 91.5398 142.775 91.572C138.839 95.532 130.571 98.484 129.035 99.012C128.548 96.1675 127.468 93.457 125.867 91.056C128.83 89.6253 131.707 88.0226 134.483 86.256C135.575 85.56 139.163 82.86 139.643 83.112C139.658 83.1589 139.658 83.2091 139.643 83.256C139.463 84.456 136.871 86.856 135.887 87.732C135.861 87.7562 135.841 87.7861 135.828 87.8195C135.816 87.8528 135.811 87.8886 135.815 87.924C136.007 89.496 134.615 91.308 131.735 93.288C131.698 93.2973 131.663 93.3161 131.634 93.3425C131.606 93.369 131.585 93.4022 131.573 93.4391C131.561 93.476 131.559 93.5154 131.566 93.5534C131.574 93.5915 131.591 93.627 131.616 93.6566C131.641 93.6862 131.673 93.7089 131.709 93.7226C131.746 93.7363 131.785 93.7405 131.823 93.7349C131.862 93.7292 131.898 93.7138 131.929 93.6902C131.959 93.6666 131.984 93.6356 131.999 93.6C134.975 91.56 136.415 89.664 136.283 87.936C136.859 87.432 139.883 84.744 140.099 83.268C140.13 83.1609 140.127 83.0469 140.09 82.9417C140.054 82.8364 139.986 82.745 139.895 82.68C139.079 82.164 136.007 84.684 134.243 85.812C131.465 87.5894 128.58 89.1925 125.603 90.612L125.111 89.964C125.081 89.9251 125.039 89.897 124.991 89.884C124.944 89.871 124.893 89.8738 124.847 89.892C116.447 93.492 109.439 95.784 103.595 96.72C97.4792 94.5281 91.6682 91.5641 86.3032 87.9C84.0952 86.46 85.1032 83.268 85.4512 82.464C85.9284 82.7184 86.4536 82.8701 86.993 82.9094C87.5324 82.9487 88.0741 82.8746 88.5832 82.692C91.9432 81.264 91.5832 73.968 91.5592 70.26C91.7514 69.1659 91.727 68.0447 91.4872 66.96C92.0994 66.0363 92.3731 64.9292 92.2619 63.8266C92.1507 62.7241 91.6615 61.6939 90.8772 60.911C90.0929 60.1282 89.0619 59.6408 87.9591 59.5316C86.8563 59.4224 85.7498 59.6981 84.8272 60.312C83.1932 59.9647 81.4939 60.0938 79.9312 60.684C79.3805 59.8239 78.6194 59.1186 77.72 58.6349C76.8206 58.1512 75.8126 57.905 74.7915 57.9198C73.7703 57.9345 72.7698 58.2096 71.8848 58.7191C70.9997 59.2286 70.2593 59.9556 69.7337 60.8312C69.2081 61.7068 68.9147 62.7021 68.8813 63.7228C68.8478 64.7435 69.0755 65.7558 69.5427 66.6639C70.0099 67.5721 70.7011 68.3459 71.551 68.9122C72.4008 69.4785 73.3812 69.8185 74.3992 69.9C74.647 71.8025 75.516 73.5699 76.8712 74.928C77.8952 76.162 78.6842 77.5734 79.1992 79.092C79.5832 80.472 79.3432 82.344 78.2512 82.692C76.9072 83.16 75.4792 82.344 74.3872 81.42C61.8472 70.944 53.3272 62.4 44.2312 47.424C44.0439 47.0528 43.742 46.7519 43.3702 46.566C42.9983 46.3801 42.5764 46.3191 42.1672 46.392C40.6672 43.728 38.9392 39.792 39.4912 36.612C40.1512 32.772 39.7552 32.124 39.3472 31.992C38.9392 31.86 38.1472 32.16 36.4312 35.808C36.3592 35.964 36.2872 36.12 36.2152 36.3C35.5735 34.542 35.0248 32.7516 34.5712 30.936C33.9832 28.536 33.3712 27.432 32.7472 27.516C31.6792 27.648 31.7872 31.596 31.8472 32.664C31.0792 30.636 30.1552 27.012 29.1232 27.276C28.0912 27.54 28.6192 30.876 28.7512 31.92C28.3072 30.96 27.8872 30.516 27.4912 30.612C26.6392 30.792 26.8552 33.3 27.0592 34.764C27.2503 36.1261 27.5513 37.4704 27.9592 38.784C27.4792 38.316 26.9392 38.016 26.5792 38.196C26.2192 38.376 26.1952 39.396 27.0592 41.28C28.7272 44.88 31.2832 49.536 32.9992 52.596C32.7885 52.9608 32.6776 53.3747 32.6776 53.796C32.6776 54.2173 32.7885 54.6312 32.9992 54.996C38.6392 66.228 49.9072 79.128 64.1992 90.876C66.2382 97.8594 67.9085 104.945 69.2032 112.104C67.8592 113.196 54.1312 124.764 57.6832 135.132C60.5872 143.616 73.1992 150.48 95.1832 155.532C91.5832 175.56 84.5152 196.872 84.3832 197.916C84.1792 199.812 86.9392 201.828 91.5832 203.208C90.3832 213.336 90.4792 212.46 90.5752 212.712C91.9552 216.54 94.8352 224.448 105.323 234.156C105.35 234.182 105.383 234.201 105.42 234.211C105.456 234.221 105.494 234.221 105.531 234.211C105.567 234.201 105.6 234.182 105.627 234.156C105.654 234.129 105.673 234.096 105.683 234.06C106.667 231.252 106.883 227.148 106.211 221.52C105.503 215.124 104.423 212.448 105.239 204.6C108.023 204.36 112.535 203.568 112.823 200.868C114.483 185.532 115.072 170.098 114.587 154.68L137.651 188.76C137.86 189.044 138.139 189.268 138.461 189.411C138.783 189.554 139.137 189.611 139.487 189.576C141.143 189.576 143.651 188.604 146.591 186.768C153.923 194.64 153.551 194.268 153.635 194.316C162.321 197.403 171.669 198.14 180.731 196.452C180.776 196.461 180.823 196.456 180.866 196.438C180.908 196.42 180.944 196.39 180.969 196.351C180.994 196.312 181.006 196.266 181.004 196.22C181.003 196.174 180.987 196.129 180.959 196.092ZM81.8872 77.16C81.8872 76.908 81.8872 76.128 81.7192 75.96C79.1992 73.092 81.5392 70.728 82.6312 72.684C83.0152 73.368 83.3392 73.68 83.6632 73.68C83.9872 73.68 84.2032 73.332 84.2632 73.212C85.7992 69.072 90.1312 67.476 90.9112 71.916C91.0425 72.7376 91.1107 73.568 91.1152 74.4C91.0312 78.888 90.1312 81.516 88.4392 82.236C86.3152 83.148 83.6392 80.676 83.6392 80.652C83.6026 80.6195 83.5566 80.5997 83.5078 80.5954C83.4591 80.5911 83.4103 80.6026 83.3686 80.6281C83.327 80.6537 83.2946 80.6919 83.2763 80.7373C83.258 80.7827 83.2548 80.8327 83.2672 80.88C83.2672 81 84.5512 84.672 84.5752 84.708C84.4891 85.3836 84.5902 86.0699 84.8674 86.692C85.1446 87.3141 85.5873 87.8482 86.1472 88.236L86.6152 88.548C83.8072 88.212 80.6152 86.472 76.9432 83.232C79.8112 83.748 81.7192 79.632 81.8872 77.16ZM87.1552 89.088L86.7592 92.556L82.4392 87.756C82.3192 87.624 82.7752 87.636 75.4672 88.248L76.1392 83.172C80.3992 87.024 83.9992 88.944 87.1552 89.088ZM29.2192 27.708C29.2192 27.708 29.7232 27.804 30.6472 30.612C31.0912 31.98 31.5472 33.192 31.9912 34.212C32.0868 35.0183 32.2229 35.8194 32.3992 36.612C31.8608 37.3898 31.4062 38.2225 31.0432 39.096C30.0821 36.5105 29.4335 33.8194 29.1112 31.08C28.7992 28.476 29.1112 27.756 29.2192 27.708ZM27.5032 34.704C27.1312 32.016 27.4312 31.104 27.5872 31.044C27.7432 30.984 28.1872 31.152 29.1592 34.32C29.5788 36.1788 30.124 38.007 30.7912 39.792C30.4157 40.7798 30.1501 41.806 29.9992 42.852C28.772 40.2731 27.931 37.5277 27.5032 34.704ZM27.5032 41.088C26.4712 38.88 26.8072 38.604 26.8072 38.604C27.0232 38.496 28.0072 39.204 28.4392 40.092C28.9432 41.484 29.4112 42.492 29.9632 43.692C30.1072 43.992 30.3952 43.872 30.4192 43.692C30.6006 40.7711 31.7634 37.9971 33.7192 35.82C33.7637 35.7786 33.79 35.7212 33.7923 35.6605C33.7945 35.5997 33.7725 35.5406 33.7312 35.496C33.6898 35.4514 33.6324 35.4251 33.5716 35.4229C33.5109 35.4206 33.4517 35.4426 33.4072 35.484C33.191 35.7051 32.9868 35.9374 32.7952 36.18C32.4864 34.6386 32.3217 33.0719 32.3032 31.5C32.3032 28.116 32.8432 27.9 32.8432 27.9C32.8432 27.9 33.5152 28.416 34.1752 30.996C34.6682 33.0134 35.2772 35.0007 35.9992 36.948C35.0597 40.2732 34.4725 43.688 34.2472 47.136C34.2472 47.424 34.6792 47.484 34.6912 47.136C34.6912 47.064 35.2672 39.276 36.8632 35.964C38.6632 32.268 39.2632 32.364 39.2632 32.364C39.2632 32.364 39.7792 32.58 39.1072 36.468C38.1952 41.712 43.0072 48.576 43.7272 49.56C42.4192 52.428 38.1352 55.344 35.2192 55.404C32.7472 51.276 29.5072 45.468 27.4672 41.088H27.5032ZM66.6712 98.052L68.3992 93.84C68.4132 93.7253 68.3832 93.6095 68.3152 93.516C55.6672 83.7 41.2792 69.78 33.8872 55.728C37.0792 57.012 44.0512 52.224 44.4352 48.6C53.3392 63 61.7872 71.484 74.0632 81.804C74.57 82.2413 75.1305 82.6123 75.7312 82.908L74.9752 88.512C74.9713 88.546 74.9752 88.5805 74.9865 88.6128C74.9979 88.6451 75.0163 88.6744 75.0405 88.6986C75.0647 88.7229 75.0941 88.7413 75.1264 88.7526C75.1587 88.7639 75.1931 88.7678 75.2272 88.764L82.1752 88.188L86.7592 93.228C86.7889 93.2608 86.8275 93.2842 86.8703 93.2955C86.9131 93.3067 86.9583 93.3052 87.0002 93.2912C87.0422 93.2772 87.0792 93.2513 87.1067 93.2167C87.1342 93.182 87.1511 93.1401 87.1552 93.096L87.5872 89.256C92.5587 92.5381 97.9097 95.2055 103.523 97.2H103.643C109.487 96.264 116.435 94.044 124.883 90.408C126.998 93.211 128.335 96.5226 128.759 100.008C121.207 103.577 113.401 106.585 105.407 109.008C103.445 109.604 101.344 109.562 99.4072 108.888C96.5678 107.929 93.8174 106.724 91.1872 105.288C88.7872 95.436 89.7352 99.84 89.4472 96.264C89.4472 96.2035 89.4231 96.1455 89.3804 96.1028C89.3376 96.06 89.2796 96.036 89.2192 96.036C89.1587 96.036 89.1007 96.06 89.0579 96.1028C89.0152 96.1455 88.9912 96.2035 88.9912 96.264C89.3032 100.068 88.3552 104.124 82.3432 115.668L69.6712 112.068C69.2272 108.96 67.9672 103.2 66.6712 98.052ZM104.819 205.2C104.099 212.064 105.191 215.904 105.803 221.076C100.607 217.199 95.8434 212.773 91.5952 207.876C92.6632 198.492 93.0952 194.796 93.0952 194.796C97.365 194.597 101.638 195.104 105.743 196.296C105.695 196.8 105.011 203.376 104.819 205.2ZM112.571 199.788C109.643 194.652 90.2152 192.3 85.3432 196.44C88.2712 186.744 90.6112 178.32 92.4352 170.808L98.2672 156C98.3392 155.808 98.2672 155.724 98.0992 155.7C85.7272 152.748 62.2552 146.892 58.1632 134.952C54.6952 124.836 68.2912 113.424 69.5392 112.404L82.2952 116.1C83.2366 119.061 83.8837 122.108 84.2272 125.196C83.2192 124.62 82.2232 124.08 81.2272 123.552C81.1758 123.533 81.1194 123.533 81.0682 123.553C81.0171 123.572 80.9745 123.609 80.9483 123.657C80.9221 123.705 80.9141 123.761 80.9256 123.814C80.9371 123.868 80.9675 123.915 81.0112 123.948C91.3332 129.609 101.093 136.238 110.159 143.748C111.331 144.693 112.289 145.875 112.97 147.218C113.65 148.561 114.038 150.032 114.107 151.536C114.783 167.632 114.27 183.756 112.571 199.776V199.788ZM137.495 187.596L114.695 153.852C114.695 153.072 114.695 152.292 114.599 151.524C114.518 149.949 114.101 148.409 113.377 147.008C112.652 145.607 111.637 144.377 110.399 143.4C102.322 136.742 93.7177 130.75 84.6712 125.484C84.4638 123.105 84.034 120.751 83.3872 118.452C95.5008 123.343 107.324 128.924 118.799 135.168C120.831 136.25 122.718 137.585 124.415 139.14L158.219 170.04C152.519 169.452 137.783 181.824 137.495 187.584V187.596ZM150.959 190.728L141.839 180.924C144.693 177.747 148.001 175.01 151.655 172.8C158.207 179.652 161.255 183.264 165.707 185.556C166.991 186.216 168.299 186.948 169.595 187.764C163.576 189.718 157.287 190.714 150.959 190.716V190.728Z" fill="#0C0C1B"/>
    <path d="M64.2485 171.6L58.3205 170.064L59.8565 164.136C59.8724 164.077 59.8643 164.014 59.8339 163.961C59.8035 163.909 59.7534 163.87 59.6945 163.854C59.6356 163.838 59.5728 163.846 59.5199 163.877C59.4671 163.907 59.4284 163.957 59.4125 164.016L57.8765 169.944L51.9485 168.408C51.8896 168.394 51.8275 168.403 51.7757 168.435C51.7239 168.466 51.6868 168.517 51.6725 168.576C51.6582 168.635 51.6678 168.697 51.6993 168.749C51.7308 168.801 51.7816 168.838 51.8405 168.852L57.7685 170.4L56.2325 176.4C56.2182 176.459 56.2278 176.521 56.2593 176.573C56.2908 176.625 56.3416 176.662 56.4005 176.676C56.4594 176.69 56.5215 176.681 56.5733 176.649C56.625 176.618 56.6622 176.567 56.6765 176.508L58.2005 170.592C63.9365 172.08 64.1045 172.128 64.2005 172.128C64.2705 172.134 64.3402 172.113 64.3942 172.068C64.4482 172.023 64.4821 171.958 64.4885 171.888C64.4949 171.818 64.4731 171.748 64.4281 171.694C64.3831 171.64 64.3185 171.606 64.2485 171.6Z" fill="#FF7A00"/>
    <path d="M116.089 40.992C115.969 40.992 115.705 40.92 104.689 38.04C104.632 38.0232 104.584 37.985 104.555 37.9335C104.526 37.882 104.518 37.8212 104.533 37.764L108.793 21.384C108.793 21.216 108.337 21.444 115.597 18.888C115.632 18.8626 115.674 18.849 115.717 18.849C115.76 18.849 115.802 18.8626 115.837 18.888L120.517 24.18C120.637 24.312 120.889 23.268 116.305 40.764C116.305 40.8224 116.282 40.8787 116.242 40.9211C116.202 40.9635 116.147 40.9889 116.089 40.992ZM105.025 37.656L115.933 40.488L120.097 24.444L115.597 19.356L109.201 21.6L105.025 37.656Z" fill="#FF7A00"/>
    <path d="M120.48 5.808C112.932 10.188 121.848 17.592 114.732 21.792C114.344 21.7492 113.954 21.8526 113.637 22.0819C113.321 22.3112 113.102 22.6501 113.022 23.0325C112.942 23.4149 113.007 23.8134 113.205 24.1503C113.402 24.4873 113.719 24.7385 114.091 24.855C114.464 24.9715 114.867 24.945 115.222 24.7807C115.576 24.6163 115.857 24.3258 116.009 23.9659C116.16 23.606 116.173 23.2024 116.044 22.8338C115.914 22.4652 115.652 22.1579 115.308 21.972C122.184 17.52 113.568 10.344 120.708 6.192C120.74 6.18096 120.77 6.16293 120.794 6.13923C120.818 6.11552 120.837 6.08673 120.848 6.05495C120.86 6.02316 120.864 5.98918 120.861 5.95548C120.858 5.92177 120.847 5.88918 120.83 5.86007C120.813 5.83096 120.789 5.80607 120.761 5.7872C120.733 5.76832 120.701 5.75595 120.668 5.75096C120.634 5.74597 120.6 5.74851 120.568 5.75837C120.535 5.76824 120.505 5.78519 120.48 5.808ZM115.68 23.64C115.627 23.8412 115.518 24.0234 115.366 24.1659C115.214 24.3084 115.025 24.4055 114.821 24.4463C114.617 24.4872 114.405 24.47 114.21 24.3969C114.015 24.3238 113.845 24.1975 113.718 24.0324C113.591 23.8674 113.512 23.6701 113.492 23.4628C113.471 23.2556 113.509 23.0467 113.601 22.8598C113.693 22.6729 113.835 22.5154 114.012 22.4052C114.188 22.2949 114.392 22.2363 114.6 22.236C114.769 22.2411 114.934 22.2842 115.083 22.3621C115.232 22.4399 115.362 22.5505 115.462 22.6856C115.562 22.8206 115.631 22.9766 115.663 23.1419C115.694 23.3072 115.688 23.4774 115.644 23.64H115.68Z" fill="#FF7A00"/>
</svg>