<svg width="24" height="24" viewBox="0 0 24 24" fill="none" xmlns="http://www.w3.org/2000/svg">
<path d="M18.5046 14.6338L13.9828 12L18.5046 9.36621C18.7322 9.23353 18.8983 9.0151 18.9663 8.75896C19.0342 8.50281 18.9986 8.22991 18.8672 8.00026C18.7358 7.7706 18.5194 7.60299 18.2655 7.53427C18.0116 7.46555 17.7411 7.50134 17.5134 7.63379L12.9913 10.2678V5C12.9913 4.73478 12.8868 4.48043 12.7009 4.29289C12.515 4.10536 12.2629 4 12 4C11.7371 4 11.485 4.10536 11.2991 4.29289C11.1132 4.48043 11.0087 4.73478 11.0087 5V10.2678L6.48661 7.63376C6.2589 7.50131 5.98836 7.46552 5.73449 7.53424C5.48062 7.60296 5.26419 7.77057 5.13278 8.00023C5.00138 8.22988 4.96575 8.50278 5.03374 8.75893C5.10173 9.01507 5.26777 9.2335 5.49535 9.36618L10.0172 12L5.49535 14.6338C5.26777 14.7665 5.10173 14.9849 5.03374 15.241C4.96575 15.4972 5.00138 15.7701 5.13278 15.9997C5.26419 16.2294 5.48062 16.397 5.73449 16.4657C5.98836 16.5345 6.2589 16.4987 6.48661 16.3662L11.0087 13.7322V19C11.0087 19.2652 11.1132 19.5196 11.2991 19.7071C11.485 19.8946 11.7371 20 12 20C12.2629 20 12.515 19.8946 12.7009 19.7071C12.8868 19.5196 12.9913 19.2652 12.9913 19V13.7322L17.5134 16.3662C17.7411 16.4987 18.0116 16.5345 18.2655 16.4658C18.5194 16.397 18.7358 16.2294 18.8672 15.9998C18.9986 15.7701 19.0342 15.4972 18.9663 15.2411C18.8983 14.9849 18.7322 14.7665 18.5046 14.6338V14.6338Z" fill="#0C0C1B"/>
</svg>
