<svg width="24" height="24" viewBox="0 0 24 24" fill="none" xmlns="http://www.w3.org/2000/svg">
<path d="M22 11.9962H5V6.40425C4.99649 6.04399 5.09153 5.68962 5.27484 5.3795C5.45815 5.06938 5.72275 4.81532 6.04 4.64479C6.39081 4.45461 6.79058 4.37404 7.18764 4.41351C6.98554 5.02579 6.95683 5.6821 7.10469 6.30971C7.25255 6.93732 7.5712 7.51173 8.02535 7.96929L9.08594 9.03025C9.17877 9.12316 9.28899 9.19686 9.41031 9.24715C9.53162 9.29744 9.66165 9.32332 9.79297 9.32332C9.92429 9.32332 10.0543 9.29744 10.1756 9.24715C10.2969 9.19686 10.4072 9.12316 10.5 9.03025L14.0352 5.49375C14.128 5.40088 14.2017 5.29062 14.252 5.16925C14.3023 5.04789 14.3281 4.91781 14.3281 4.78645C14.3281 4.65508 14.3023 4.525 14.252 4.40364C14.2017 4.28228 14.128 4.17202 14.0352 4.07915L12.9746 3.0182C12.3843 2.43035 11.6035 2.07278 10.773 2.00996C9.94248 1.94713 9.11682 2.18317 8.44489 2.67554C7.83906 2.43884 7.18459 2.35379 6.53841 2.42778C5.89223 2.50178 5.27391 2.73258 4.73722 3.10011C4.20052 3.46765 3.76171 3.96078 3.45895 4.53663C3.15618 5.11248 2.99863 5.75361 3 6.40425V11.9962H2C1.73478 11.9962 1.48043 12.1016 1.29289 12.2892C1.10536 12.4768 1 12.7313 1 12.9966C1 13.2619 1.10536 13.5164 1.29289 13.704C1.48043 13.8916 1.73478 13.997 2 13.997H3V16.9981C3.0019 17.6167 3.19517 18.2196 3.55327 18.7239C3.91137 19.2282 4.41674 19.6093 5 19.8148V20.9996C5 21.2649 5.10536 21.5194 5.29289 21.707C5.48043 21.8946 5.73478 22 6 22C6.26522 22 6.51957 21.8946 6.70711 21.707C6.89464 21.5194 7 21.2649 7 20.9996V19.9992H17V20.9996C17 21.2649 17.1054 21.5194 17.2929 21.707C17.4804 21.8946 17.7348 22 18 22C18.2652 22 18.5196 21.8946 18.7071 21.707C18.8946 21.5194 19 21.2649 19 20.9996V19.8149C19.5833 19.6094 20.0886 19.2283 20.4467 18.7239C20.8048 18.2196 20.9981 17.6167 21 16.9981V13.997H22C22.2652 13.997 22.5196 13.8916 22.7071 13.704C22.8946 13.5164 23 13.2619 23 12.9966C23 12.7313 22.8946 12.4768 22.7071 12.2892C22.5196 12.1016 22.2652 11.9962 22 11.9962ZM9.43945 4.43279C9.72098 4.1519 10.1024 3.99416 10.5 3.99416C10.8976 3.99416 11.279 4.1519 11.5605 4.43279L11.9141 4.78645L9.793 6.90834L9.43948 6.5547C9.15854 6.27314 9.00075 5.89157 9.00074 5.49375C9.00074 5.09593 9.15852 4.71436 9.43945 4.43279ZM19 16.9981C18.9998 17.2634 18.8944 17.5177 18.7069 17.7053C18.5194 17.8929 18.2652 17.9983 18 17.9985H6C5.73484 17.9983 5.48059 17.8929 5.29309 17.7053C5.10559 17.5177 5.00018 17.2634 5 16.9981V13.997H19V16.9981Z" fill="#0C0C1B"/>
</svg>
