<svg width="24" height="24" viewBox="0 0 24 24" fill="none" xmlns="http://www.w3.org/2000/svg">
<path d="M11.0696 6.12205C11.3726 6.04032 11.6853 5.99997 11.9991 6.00211C13.0595 6.00211 14.0764 6.42333 14.8262 7.17311C15.576 7.92288 15.9972 8.93979 15.9972 10.0001V11.3395C15.9972 11.6046 16.1025 11.8588 16.2899 12.0462C16.4774 12.2337 16.7316 12.339 16.9967 12.339C17.2618 12.339 17.516 12.2337 17.7034 12.0462C17.8909 11.8588 17.9962 11.6046 17.9962 11.3395V10.0001C17.9947 8.58396 17.4922 7.21398 16.5775 6.13282C15.6628 5.05166 14.395 4.32909 12.9987 4.09306V3.0036C12.9987 2.73851 12.8933 2.48428 12.7059 2.29684C12.5185 2.10939 12.2642 2.00409 11.9991 2.00409C11.7341 2.00409 11.4798 2.10939 11.2924 2.29684C11.1049 2.48428 10.9996 2.73851 10.9996 3.0036V4.10305L10.5499 4.18301C10.2927 4.25193 10.0735 4.42018 9.94042 4.65073C9.80734 4.88129 9.77129 5.15527 9.84022 5.4124C9.90914 5.66954 10.0774 5.88876 10.3079 6.02184C10.5385 6.15493 10.8125 6.19098 11.0696 6.12205ZM21.7043 20.2851L3.71324 2.29395C3.52503 2.10574 3.26977 2 3.0036 2C2.73743 2 2.48216 2.10574 2.29395 2.29395C2.10574 2.48216 2 2.73743 2 3.0036C2 3.26977 2.10574 3.52503 2.29395 3.71324L6.41191 7.82121C6.14107 8.51574 6.0021 9.25467 6.00211 10.0001V13.1786C5.41885 13.3848 4.91365 13.7663 4.55577 14.271C4.19788 14.7756 4.00484 15.3785 4.0031 15.9972V17.9962C4.0031 18.2613 4.10841 18.5155 4.29585 18.7029C4.48329 18.8904 4.73752 18.9957 5.00261 18.9957H8.14106C8.37122 19.8426 8.87369 20.5903 9.57094 21.1234C10.2682 21.6564 11.1215 21.9452 11.9991 21.9452C12.8768 21.9452 13.7301 21.6564 14.4273 21.1234C15.1246 20.5903 15.6271 19.8426 15.8572 18.9957H17.5864L20.2851 21.7043C20.378 21.798 20.4885 21.8724 20.6103 21.9231C20.7321 21.9739 20.8628 22 20.9947 22C21.1266 22 21.2573 21.9739 21.3791 21.9231C21.5009 21.8724 21.6114 21.798 21.7043 21.7043C21.798 21.6114 21.8724 21.5009 21.9231 21.3791C21.9739 21.2573 22 21.1266 22 20.9947C22 20.8628 21.9739 20.7321 21.9231 20.6103C21.8724 20.4885 21.798 20.378 21.7043 20.2851ZM8.00112 10.0001C7.98587 9.81721 7.98587 9.63333 8.00112 9.45041L11.5893 12.9987H8.00112V10.0001ZM11.9991 19.9952C11.6503 19.9931 11.3081 19.8997 11.0065 19.7244C10.7049 19.549 10.4544 19.2978 10.28 18.9957H13.7183C13.5439 19.2978 13.2934 19.549 12.9918 19.7244C12.6902 19.8997 12.348 19.9931 11.9991 19.9952ZM6.00211 16.9967V15.9972C6.00211 15.7321 6.10742 15.4779 6.29486 15.2904C6.48231 15.103 6.73653 14.9977 7.00162 14.9977H13.5884L15.5874 16.9967H6.00211Z" fill="#0C0C1B"/>
</svg>
