<svg width="24" height="24" viewBox="0 0 24 24" fill="none" xmlns="http://www.w3.org/2000/svg">
<path d="M13 16.004H7.00001C6.73479 16.004 6.48044 16.1093 6.2929 16.2969C6.10537 16.4844 6.00001 16.7388 6.00001 17.004C6.00001 17.2692 6.10537 17.5235 6.2929 17.7111C6.48044 17.8986 6.73479 18.004 7.00001 18.004H13C13.2652 18.004 13.5196 17.8986 13.7071 17.7111C13.8947 17.5235 14 17.2692 14 17.004C14 16.7388 13.8947 16.4844 13.7071 16.2969C13.5196 16.1093 13.2652 16.004 13 16.004ZM9.00001 10.004H11C11.2652 10.004 11.5196 9.89862 11.7071 9.71108C11.8947 9.52354 12 9.26919 12 9.00397C12 8.73876 11.8947 8.4844 11.7071 8.29687C11.5196 8.10933 11.2652 8.00397 11 8.00397H9.00001C8.73479 8.00397 8.48044 8.10933 8.2929 8.29687C8.10537 8.4844 8.00001 8.73876 8.00001 9.00397C8.00001 9.26919 8.10537 9.52354 8.2929 9.71108C8.48044 9.89862 8.73479 10.004 9.00001 10.004ZM21 12.004H18V3.00397C18.0007 2.82776 17.9548 2.6545 17.867 2.50172C17.7792 2.34894 17.6526 2.22208 17.5 2.13397C17.348 2.04621 17.1755 2 17 2C16.8245 2 16.652 2.04621 16.5 2.13397L13.5 3.85397L10.5 2.13397C10.348 2.04621 10.1755 2 10 2C9.82447 2 9.65203 2.04621 9.50001 2.13397L6.50001 3.85397L3.50001 2.13397C3.34799 2.04621 3.17554 2 3.00001 2C2.82447 2 2.65203 2.04621 2.50001 2.13397C2.3474 2.22208 2.22079 2.34894 2.13299 2.50172C2.04518 2.6545 1.99931 2.82776 2.00001 3.00397V19.004C2.00001 19.7996 2.31608 20.5627 2.87869 21.1253C3.4413 21.6879 4.20436 22.004 5.00001 22.004H19C19.7957 22.004 20.5587 21.6879 21.1213 21.1253C21.6839 20.5627 22 19.7996 22 19.004V13.004C22 12.7388 21.8947 12.4844 21.7071 12.2969C21.5196 12.1093 21.2652 12.004 21 12.004ZM5.00001 20.004C4.73479 20.004 4.48044 19.8986 4.2929 19.7111C4.10536 19.5235 4.00001 19.2692 4.00001 19.004V4.73397L6.00001 5.87397C6.15435 5.95459 6.32589 5.99669 6.50001 5.99669C6.67413 5.99669 6.84567 5.95459 7.00001 5.87397L10 4.15397L13 5.87397C13.1543 5.95459 13.3259 5.99669 13.5 5.99669C13.6741 5.99669 13.8457 5.95459 14 5.87397L16 4.73397V19.004C16.0027 19.3451 16.0636 19.6833 16.18 20.004H5.00001ZM20 19.004C20 19.2692 19.8947 19.5235 19.7071 19.7111C19.5196 19.8986 19.2652 20.004 19 20.004C18.7348 20.004 18.4804 19.8986 18.2929 19.7111C18.1054 19.5235 18 19.2692 18 19.004V14.004H20V19.004ZM13 12.004H7.00001C6.73479 12.004 6.48044 12.1093 6.2929 12.2969C6.10537 12.4844 6.00001 12.7388 6.00001 13.004C6.00001 13.2692 6.10537 13.5235 6.2929 13.7111C6.48044 13.8986 6.73479 14.004 7.00001 14.004H13C13.2652 14.004 13.5196 13.8986 13.7071 13.7111C13.8947 13.5235 14 13.2692 14 13.004C14 12.7388 13.8947 12.4844 13.7071 12.2969C13.5196 12.1093 13.2652 12.004 13 12.004Z" fill="#0C0C1B"/>
</svg>
