<svg width="24" height="24" viewBox="0 0 24 24" fill="none" xmlns="http://www.w3.org/2000/svg">
<path d="M13.9079 11.9974L17.7045 8.20649C17.7981 8.1135 17.8724 8.00288 17.9232 7.88099C17.9739 7.7591 18 7.62836 18 7.49632C18 7.36428 17.9739 7.23354 17.9232 7.11165C17.8724 6.98976 17.7981 6.87914 17.7045 6.78615L13.2085 2.28508C13.1135 2.19402 13.0014 2.12264 12.8788 2.07503C12.6356 1.97499 12.3627 1.97499 12.1195 2.07503C11.8754 2.17653 11.6814 2.37075 11.58 2.61516C11.5288 2.73541 11.5016 2.86454 11.5 2.99525V9.58682L8.71255 6.78615C8.6194 6.69289 8.50881 6.61891 8.38709 6.56844C8.26538 6.51797 8.13493 6.49199 8.00319 6.49199C7.87145 6.49199 7.741 6.51797 7.61929 6.56844C7.49757 6.61891 7.38698 6.69289 7.29383 6.78615C7.20067 6.87941 7.12678 6.99013 7.07636 7.11198C7.02595 7.23383 7 7.36443 7 7.49632C7 7.62821 7.02595 7.75881 7.07636 7.88066C7.12678 8.00251 7.20067 8.11323 7.29383 8.20649L11.0904 11.9974L7.29383 15.7883C7.20067 15.8816 7.12678 15.9923 7.07636 16.1141C7.02595 16.236 7 16.3666 7 16.4985C7 16.6303 7.02595 16.7609 7.07636 16.8828C7.12678 17.0047 7.20067 17.1154 7.29383 17.2086C7.38698 17.3019 7.49757 17.3759 7.61929 17.4263C7.741 17.4768 7.87145 17.5028 8.00319 17.5028C8.13493 17.5028 8.26538 17.4768 8.38709 17.4263C8.50881 17.3759 8.6194 17.3019 8.71255 17.2086L11.5 14.408V20.9995C11.5016 21.1302 11.5288 21.2594 11.58 21.3796C11.6814 21.624 11.8754 21.8182 12.1195 21.9197C12.2391 21.9727 12.3684 22 12.4991 22C12.6299 22 12.7592 21.9727 12.8788 21.9197C13.0014 21.8721 13.1135 21.8008 13.2085 21.7097L17.7045 17.2086C17.7981 17.1156 17.8724 17.005 17.9232 16.8831C17.9739 16.7612 18 16.6305 18 16.4985C18 16.3664 17.9739 16.2357 17.9232 16.1138C17.8724 15.9919 17.7981 15.8813 17.7045 15.7883L13.9079 11.9974ZM13.4982 5.40582L15.5864 7.49632L13.4982 9.58682V5.40582ZM13.4982 18.589V14.408L15.5864 16.4985L13.4982 18.589Z" fill="#0C0C1B"/>
</svg>
