<svg width="24" height="24" viewBox="0 0 24 24" fill="none" xmlns="http://www.w3.org/2000/svg">
<path d="M9.99534 13H14.0047C14.2705 13 14.5254 12.8946 14.7134 12.7071C14.9014 12.5196 15.007 12.2652 15.007 12C15.007 11.7348 14.9014 11.4804 14.7134 11.2929C14.5254 11.1054 14.2705 11 14.0047 11H9.99534C9.7295 11 9.47455 11.1054 9.28658 11.2929C9.09861 11.4804 8.993 11.7348 8.993 12C8.993 12.2652 9.09861 12.5196 9.28658 12.7071C9.47455 12.8946 9.7295 13 9.99534 13ZM19.0163 3H4.98367C4.27849 3.00546 3.59766 3.25801 3.06021 3.71352C2.52275 4.16902 2.16285 4.79849 2.04343 5.49189C1.92401 6.18529 2.05267 6.89851 2.40691 7.50687C2.76114 8.11523 3.31843 8.58002 3.98134 8.82V18C3.98134 18.7956 4.29815 19.5587 4.86207 20.1213C5.42599 20.6839 6.19083 21 6.98834 21H17.0117C17.8092 21 18.574 20.6839 19.1379 20.1213C19.7019 19.5587 20.0187 18.7956 20.0187 18V8.82C20.6816 8.58002 21.2389 8.11523 21.5931 7.50687C21.9473 6.89851 22.076 6.18529 21.9566 5.49189C21.8371 4.79849 21.4773 4.16902 20.9398 3.71352C20.4023 3.25801 19.7215 3.00546 19.0163 3ZM18.014 18C18.014 18.2652 17.9084 18.5196 17.7204 18.7071C17.5324 18.8946 17.2775 19 17.0117 19H6.98834C6.7225 19 6.46756 18.8946 6.27958 18.7071C6.09161 18.5196 5.98601 18.2652 5.98601 18V9H18.014V18ZM19.0163 7H4.98367C4.71784 7 4.46289 6.89464 4.27492 6.70711C4.08694 6.51957 3.98134 6.26522 3.98134 6C3.98134 5.73478 4.08694 5.48043 4.27492 5.29289C4.46289 5.10536 4.71784 5 4.98367 5H19.0163C19.2822 5 19.5371 5.10536 19.7251 5.29289C19.9131 5.48043 20.0187 5.73478 20.0187 6C20.0187 6.26522 19.9131 6.51957 19.7251 6.70711C19.5371 6.89464 19.2822 7 19.0163 7Z" fill="#0C0C1B"/>
</svg>
