<svg width="24" height="24" viewBox="0 0 24 24" fill="none" xmlns="http://www.w3.org/2000/svg">
<path d="M21 7.56138C20.9943 7.53487 20.9943 7.50745 21 7.48094C20.9951 7.45774 20.9951 7.43377 21 7.41056V7.32007L20.9396 7.16925C20.9151 7.1281 20.8845 7.09082 20.849 7.05865L20.7584 6.97821H20.7081L16.7418 4.47462L12.9969 2.16207C12.9103 2.09343 12.8112 2.04221 12.705 2.01125H12.6245C12.5345 1.99625 12.4426 1.99625 12.3527 2.01125H12.252C12.1351 2.03708 12.023 2.0812 11.9198 2.14196L4.39994 6.81734L4.30934 6.88772L4.21874 6.96816L4.11807 7.03854L4.06773 7.09887L4.00733 7.24969V7.34018V7.40051C3.99756 7.46718 3.99756 7.53492 4.00733 7.6016V16.3792C4.00699 16.5501 4.05025 16.7183 4.13304 16.8678C4.21582 17.0173 4.3354 17.1433 4.48047 17.2339L12.0305 21.8992L12.1815 21.9595H12.2621C12.4324 22.0135 12.6152 22.0135 12.7855 21.9595H12.8661L13.0171 21.8992L20.5067 17.3043C20.6518 17.2137 20.7714 17.0877 20.8542 16.9382C20.9369 16.7886 20.9802 16.6205 20.9799 16.4496V7.67198C20.9799 7.67198 21 7.6016 21 7.56138ZM12.4533 4.19309L14.2452 5.2991L8.6179 8.77798L6.81596 7.67198L12.4533 4.19309ZM11.4467 19.275L5.90995 15.8966V9.47175L11.4467 12.8903V19.275ZM12.4533 11.1207L10.5306 9.96442L16.1579 6.47548L18.0907 7.67198L12.4533 11.1207ZM18.9967 15.8665L13.46 19.3051V12.8903L18.9967 9.47175V15.8665Z" fill="#0C0C1B"/>
</svg>
