<svg width="24" height="24" viewBox="0 0 24 24" fill="none" xmlns="http://www.w3.org/2000/svg">
<path d="M20.163 4.80154C19.1019 3.76685 17.695 3.13776 16.1982 3.0287C14.7015 2.91963 13.2142 3.33782 12.0071 4.20722C10.7353 3.28519 9.15245 2.86709 7.57716 3.03713C6.00187 3.20717 4.55117 3.95272 3.51722 5.12363C2.48326 6.29455 1.94284 7.80386 2.00479 9.34763C2.06674 10.8914 2.72645 12.3549 3.85108 13.4436L11.2974 20.7118C11.3903 20.8031 11.5009 20.8756 11.6227 20.9251C11.7445 20.9745 11.8751 21 12.0071 21C12.139 21 12.2696 20.9745 12.3914 20.9251C12.5132 20.8756 12.6238 20.8031 12.7167 20.7118L20.163 13.4436C20.7454 12.8762 21.2074 12.2026 21.5226 11.4612C21.8378 10.7198 22 9.92511 22 9.12255C22 8.31999 21.8378 7.5253 21.5226 6.78388C21.2074 6.04246 20.7454 5.36885 20.163 4.80154ZM18.7537 12.0601L12.0071 18.6366L5.26038 12.0601C4.48618 11.323 4.02893 10.3263 3.98156 9.2724C3.93419 8.21853 4.30026 7.18662 5.00537 6.3864C5.71048 5.58617 6.70171 5.07769 7.77762 4.96428C8.85352 4.85087 9.93335 5.14105 10.7977 5.77584L9.08849 9.67303C9.0291 9.79996 8.99836 9.93785 8.99836 10.0774C8.99836 10.2169 9.0291 10.3548 9.08849 10.4817C9.15197 10.6085 9.24294 10.7203 9.35511 10.8095C9.46729 10.8986 9.59799 10.963 9.73817 10.9981L12.5068 11.6801L11.1075 14.4958C11.0495 14.6109 11.0154 14.736 11.0071 14.864C10.9988 14.992 11.0166 15.1203 11.0593 15.2416C11.102 15.3629 11.1689 15.4748 11.256 15.5709C11.3432 15.6669 11.449 15.7452 11.5673 15.8014C11.7043 15.8661 11.8548 15.8994 12.0071 15.8988C12.1944 15.8991 12.378 15.8482 12.5371 15.7517C12.6961 15.6552 12.8242 15.5172 12.9066 15.3532L14.9056 11.456C14.9696 11.3251 15.0027 11.182 15.0027 11.037C15.0027 10.8921 14.9696 10.749 14.9056 10.6181C14.8396 10.4875 14.7457 10.3721 14.6302 10.2797C14.5147 10.1872 14.3803 10.1199 14.236 10.0822L11.4073 9.39048L12.8566 6.08762C13.6691 5.32275 14.76 4.90384 15.8894 4.92302C17.0187 4.94221 18.094 5.39792 18.8787 6.18992C19.6633 6.98191 20.0931 8.04531 20.0734 9.14617C20.0537 10.247 19.5862 11.2952 18.7737 12.0601H18.7537Z" fill="#0C0C1B"/>
</svg>
