<svg width="24" height="24" viewBox="0 0 24 24" fill="none" xmlns="http://www.w3.org/2000/svg">
<path d="M8.46776 8.35432L8.46551 8.35614L8.46337 8.35821L8.46776 8.35432ZM18.4218 8.1688C18.3523 8.10211 18.2751 8.04376 18.1918 7.99494C18.074 7.92598 17.9432 7.88179 17.8076 7.86509C17.6719 7.8484 17.5342 7.85956 17.4031 7.89788C17.2719 7.93621 17.15 8.00088 17.045 8.08791C16.94 8.17494 16.854 8.28246 16.7924 8.40385C16.448 9.07885 15.9729 9.67956 15.3944 10.1715C15.4829 9.67584 15.5275 9.17339 15.5277 8.66996C15.5296 7.13844 15.1234 5.63377 14.3504 4.30917C13.5774 2.98456 12.4653 1.88733 11.1274 1.12919C10.98 1.04609 10.8138 1.0016 10.6443 0.999884C10.4749 0.998169 10.3078 1.03929 10.1588 1.11939C10.0097 1.19948 9.88357 1.31593 9.79215 1.45781C9.70073 1.59968 9.64706 1.76232 9.63615 1.93048C9.58019 2.8735 9.33232 3.7954 8.90755 4.64033C8.48277 5.48526 7.88995 6.23563 7.16499 6.84596L6.93452 7.03244C6.17644 7.53976 5.50542 8.16515 4.94723 8.88462C4.07954 9.97178 3.47847 11.2451 3.19169 12.6035C2.9049 13.9619 2.94028 15.3681 3.29503 16.7105C3.64977 18.0529 4.31412 19.2947 5.23539 20.3374C6.15666 21.38 7.30952 22.1948 8.60253 22.7172C8.75434 22.7789 8.9191 22.8025 9.08225 22.7859C9.2454 22.7693 9.40194 22.713 9.53805 22.622C9.67417 22.5311 9.78568 22.4081 9.86275 22.2642C9.93982 22.1202 9.98008 21.9596 9.97998 21.7965C9.97927 21.6909 9.96248 21.5862 9.93018 21.4857C9.70646 20.6492 9.64203 19.7786 9.74023 18.9186C10.6865 20.6936 12.2054 22.1006 14.0527 22.9134C14.2782 23.0137 14.5331 23.0272 14.7681 22.9513C16.2276 22.4827 17.5425 21.6508 18.5877 20.5345C19.6329 19.4183 20.3738 18.0547 20.7399 16.5734C21.106 15.0922 21.0853 13.5424 20.6795 12.0714C20.2738 10.6004 19.4966 9.25695 18.4218 8.1688ZM14.5171 20.9301C13.6454 20.4907 12.8764 19.8738 12.2602 19.1195C11.644 18.3651 11.1943 17.4902 10.9404 16.5517C10.8629 16.2357 10.8029 15.9156 10.7607 15.5931C10.7322 15.3876 10.6398 15.1962 10.4964 15.0456C10.3531 14.895 10.1661 14.7926 9.96141 14.7529C9.89836 14.7406 9.83425 14.7344 9.76998 14.7345C9.59423 14.7344 9.42156 14.7804 9.26939 14.8679C9.11723 14.9554 8.99095 15.0812 8.90329 15.2327C8.07356 16.6561 7.65629 18.2801 7.69772 19.9249C6.96796 19.3606 6.35807 18.6578 5.9034 17.8574C5.44873 17.0569 5.15832 16.1747 5.049 15.2618C4.93968 14.3489 5.01362 13.4234 5.26655 12.5392C5.51947 11.6549 5.94635 10.8294 6.52243 10.1104C6.95984 9.54529 7.48752 9.05543 8.08443 8.66029C8.11027 8.6437 8.13506 8.62554 8.15865 8.6059C8.15865 8.6059 8.45534 8.36176 8.46548 8.35617C9.89017 7.15768 10.9035 5.54704 11.3642 3.74867C12.4538 4.75042 13.1803 6.08194 13.431 7.53647C13.6816 8.99099 13.4424 10.4871 12.7504 11.7926C12.659 11.9668 12.6215 12.164 12.6427 12.3594C12.6638 12.5547 12.7427 12.7395 12.8693 12.8904C12.9959 13.0412 13.1646 13.1514 13.354 13.207C13.5435 13.2626 13.7454 13.2612 13.934 13.2029C15.4658 12.7253 16.8137 11.7925 17.7963 10.53C18.3869 11.3975 18.773 12.3864 18.9258 13.423C19.0787 14.4596 18.9944 15.5171 18.6792 16.5168C18.3639 17.5165 17.826 18.4325 17.1053 19.1966C16.3847 19.9608 15.4999 20.5533 14.517 20.9301L14.5171 20.9301Z" fill="#0C0C1B"/>
</svg>
