<svg width="40" height="40" viewBox="0 0 40 40" fill="none" xmlns="http://www.w3.org/2000/svg">
<path fill-rule="evenodd" clip-rule="evenodd" d="M38.0305 29.3636C38.6134 30.1917 38.6722 31.4966 38.053 32.5083C37.5005 33.4117 34.1917 36.8783 33.1151 37.9923C32.1822 38.9598 30.922 39.9284 29.682 39.9284H3.71978C0.211252 39.9284 0 38.7486 0 36.0802V25.2576C0 22.5327 0.810155 21.7451 3.20652 21.7451H29.682C30.922 21.7451 32.0254 22.3733 33.2929 23.6512C34.3681 24.7361 37.5833 28.7265 38.0305 29.3636Z" fill="#33CCCC"/>
<path fill-rule="evenodd" clip-rule="evenodd" d="M38.0305 29.3636C38.6134 30.1917 38.6722 31.4966 38.053 32.5083C37.5005 33.4117 34.1917 36.8783 33.1151 37.9923C32.1822 38.9598 30.922 39.9284 29.682 39.9284H3.71978C0.211252 39.9284 0 38.7486 0 36.0802V25.2576C0 22.5327 0.810155 21.7451 3.20652 21.7451H29.682C30.922 21.7451 32.0254 22.3733 33.2929 23.6512C34.3681 24.7361 37.5833 28.7265 38.0305 29.3636Z" fill="url(#paint0_linear_5_804)"/>
<path fill-rule="evenodd" clip-rule="evenodd" d="M5.88571 25.93V25.8588C5.88571 25.5106 5.85595 25.1667 5.28172 25.1667H3.11185C2.60731 25.1667 2.57537 25.4434 2.57537 25.8732V28.7335C3.63163 27.235 4.80259 26.539 5.88571 25.93ZM20.4411 36.2652V36.1117H20.4425V29.2272C20.4425 26.3402 19.1629 24.8969 16.6037 24.8973C15.8948 24.8908 15.1981 25.0798 14.5913 25.4431C13.9822 25.8073 13.3971 26.316 12.836 26.9691C12.5601 26.2593 12.1439 25.7365 11.5873 25.4008C11.0308 25.065 10.3102 24.8972 9.42546 24.8972C8.40041 24.8972 7.20984 25.2532 6.36556 25.9422C6.17609 26.1298 2.57537 28.9416 2.57537 31.8293V36.2366C2.57537 36.3769 2.50712 36.9086 3.10821 36.9086H5.36665C6.06864 36.9086 5.99969 36.4525 5.99969 36.2648V29.1367C6.38081 28.6349 7.16048 27.3957 8.42581 27.3957C8.91148 27.3957 9.26115 27.5587 9.47482 27.8849C9.68849 28.211 9.79593 28.7578 9.79715 29.5252V35.0925H9.79424V36.2364C9.79424 36.3766 9.726 36.9084 10.3264 36.9084H12.5565C13.2592 36.9084 13.1902 36.4523 13.1902 36.2646V36.1111H13.1931V29.1367C13.6019 28.6349 14.4156 27.3957 15.6185 27.3957C16.1136 27.3957 16.4706 27.5587 16.6893 27.8849C16.9081 28.211 17.0172 28.7578 17.0167 29.5252V35.0925H17.0146V36.2364C17.0146 36.3766 16.947 36.9084 17.5474 36.9084H19.8066C20.51 36.9084 20.4411 36.4525 20.4411 36.2649V36.2652ZM32.881 33.4661C32.0773 35.6095 30.1536 36.8074 27.7703 36.8074C24.3169 36.8074 22.036 34.4733 22.036 30.9729C22.036 27.5144 24.4033 25.0075 27.6621 25.0075C30.8853 25.0075 33.0479 27.2344 33.1852 30.8216C33.2026 31.2799 33.0675 31.6849 32.4904 31.6849H25.1634C25.2069 33.6084 26.142 34.6459 27.792 34.6459C28.7982 34.6459 29.395 34.2154 29.914 33.3718C30.1405 33.0048 30.6029 33.0251 30.6029 33.0251H32.4897C32.7982 33.0246 32.9347 33.323 32.881 33.4659V33.4661ZM27.6621 27.2331C26.293 27.2331 25.3376 28.1839 25.1634 29.7407H30.073C29.9423 28.3787 29.2033 27.2328 27.6621 27.2328V27.2331Z" fill="white"/>
<path fill-rule="evenodd" clip-rule="evenodd" d="M13.1847 2.23069C12.9096 1.79548 12.5525 1.41687 12.1328 1.11558C11.7133 0.823087 11.2524 0.593766 10.7651 0.43508C10.2242 0.260164 9.66543 0.144981 9.09904 0.0916258C8.45106 0.0284194 7.80024 -0.00212374 7.14912 0.000114634H1.44168C0.928427 0.000114634 0.390497 0.334432 0.390497 0.965008V10.1449C1.11355 11.6748 2.52189 13.2991 4.12262 14.0753V12.2543C4.12262 11.2937 4.8522 11.079 5.15347 11.079H6.84131C9.16583 11.079 10.9398 10.5948 12.1633 9.62648C13.3865 8.6595 13.9982 7.22302 13.9985 5.31709C14.0021 4.76645 13.9377 4.21745 13.8068 3.68227C13.677 3.16924 13.4671 2.67947 13.1847 2.23069ZM9.85911 6.94515C9.66223 7.28425 9.36844 7.55806 9.01483 7.73194C8.63153 7.91338 8.21744 8.02223 7.79378 8.05288C7.33278 8.09367 6.85655 8.1141 6.36508 8.11417H4.76146C4.36944 8.11417 4.12262 7.79763 4.12262 7.33V3.57702C4.12262 3.15616 4.3992 2.97954 4.73096 2.97954H6.36508C6.8972 2.97954 7.39642 2.99479 7.86274 3.0253C8.28213 3.04424 8.69396 3.14289 9.07581 3.31587C9.4165 3.47656 9.69839 3.73826 9.88234 4.06472C10.0769 4.40045 10.1742 4.87407 10.1742 5.48558C10.1742 6.10693 10.0691 6.59345 9.85911 6.94515ZM4.12262 14.6681C2.36218 13.9703 1.18179 13.1375 0.390497 12.3119V16.7436C0.390497 16.7436 0.325161 17.4663 1.03442 17.4663H3.52443C4.20682 17.4663 4.12262 16.7436 4.12262 16.7436V14.6681ZM39.4076 4.82896H37.1731C36.7186 4.82896 36.4195 5.01832 36.2395 5.51371C36.058 6.00918 33.6907 12.5527 33.6907 12.5527C33.6907 12.5527 31.425 6.14429 31.2471 5.6481C31.0693 5.15191 30.776 4.82896 30.2482 4.82896H28.1952C27.4715 4.82896 27.4715 5.39335 27.5607 5.61717C27.6341 5.79803 30.4457 13.443 31.5165 16.355C31.7691 17.0427 31.8685 17.2495 31.8765 17.5043C31.8845 17.7591 31.6232 18.2939 31.4431 18.6007C31.3601 18.7407 31.2648 18.8732 31.1586 18.9969C33.258 18.3734 35.6776 16.1109 36.9292 13.6597C38.1662 10.2437 39.7981 5.73119 39.8685 5.50033C39.9825 5.12666 39.9811 4.82896 39.4076 4.82896ZM29.5411 19.6472C29.3472 19.6439 29.1536 19.63 28.9611 19.6057C28.7252 19.5747 28.2845 19.6183 28.2845 20.0014V21.7129C28.2845 22.366 28.5996 22.4096 28.7724 22.4483C29.2939 22.5561 29.8258 22.6071 30.3586 22.6004C31.0642 22.6004 31.6783 22.473 32.201 22.2182C32.7288 21.959 33.1989 21.598 33.584 21.1563C34.0086 20.6642 34.3673 20.1199 34.6511 19.5369C34.9633 18.9106 35.2628 18.2204 35.5499 17.4665C35.5499 17.4665 35.6725 17.1259 35.8751 16.5678C35.2587 17.1847 32.3542 19.9175 29.5411 19.6472ZM26.1851 6.86069C26.064 6.57464 25.8984 6.30917 25.6943 6.07393C25.4912 5.84809 25.2585 5.65022 25.0025 5.48558C24.7264 5.30732 24.4334 5.15625 24.1277 5.0345C23.8156 4.91351 23.4945 4.81655 23.1673 4.7445C22.7957 4.66373 22.4186 4.6101 22.0391 4.58407C21.629 4.55381 21.168 4.53855 20.6562 4.53832C17.2711 4.53832 15.3437 5.59959 14.874 7.72216C14.7208 8.38086 15.3778 8.41957 15.3778 8.41957H17.4598C18.0036 8.41957 17.9803 8.24576 18.2439 7.7577C18.3393 7.49252 18.5102 7.2605 18.7361 7.08983C19.1361 6.78441 19.7352 6.6317 20.5335 6.6317C21.3016 6.6317 21.8596 6.77925 22.2076 7.07436C22.5555 7.3695 22.7602 7.81777 22.8217 8.41928C22.8217 9.11669 22.6025 9.58187 21.7531 9.58187C19.6805 9.50727 17.454 9.74015 16.1996 10.4531C14.9451 11.166 14.2366 12.561 14.2366 14.0584C14.2366 14.6692 14.3467 15.204 14.5669 15.6627C14.7802 16.1124 15.0955 16.5071 15.4882 16.8162C15.905 17.1387 16.3829 17.3751 16.8936 17.5115C17.4739 17.6693 18.0734 17.7465 18.6751 17.7409C19.576 17.7409 20.3721 17.6288 21.0635 17.4045C21.7546 17.1807 22.8239 16.4425 22.9604 16.3348V16.7288C22.9604 17.1186 23.0794 17.4663 23.5484 17.4663H25.9702C26.4602 17.4663 26.5691 17.1186 26.5691 16.6907V9.29079C26.5732 8.83079 26.5426 8.37115 26.4776 7.91568C26.4254 7.55317 26.3271 7.19871 26.1851 6.86069ZM22.8834 14.1164C22.8834 14.1164 22.2584 15.405 20.0268 15.405C19.4127 15.405 18.9134 15.2675 18.5292 14.9926C18.1448 14.7176 17.9528 14.2898 17.9528 13.7089C17.9528 12.9544 18.2651 12.4219 18.89 12.1114C19.5143 11.8011 20.7644 11.6237 21.7009 11.6455C22.6373 11.6673 22.8834 12.2543 22.8834 12.6599V14.1167V14.1164Z" fill="#333333"/>
<defs>
<linearGradient id="paint0_linear_5_804" x1="51.2118" y1="26.9953" x2="46.2496" y2="57.2076" gradientUnits="userSpaceOnUse">
<stop offset="0.47231" stop-color="#00CCCC"/>
<stop offset="1" stop-color="#3399FF"/>
</linearGradient>
</defs>
</svg>
