<svg width="24" height="24" viewBox="0 0 24 24" fill="none" xmlns="http://www.w3.org/2000/svg">
<path d="M6.99855 13.0067C6.80083 13.0067 6.60754 13.0652 6.44314 13.175C6.27874 13.2847 6.1506 13.4407 6.07494 13.6231C5.99927 13.8056 5.97948 14.0064 6.01805 14.2001C6.05662 14.3938 6.15184 14.5718 6.29165 14.7114C6.43146 14.8511 6.60959 14.9462 6.80352 14.9847C6.99744 15.0232 7.19845 15.0035 7.38112 14.9279C7.5638 14.8523 7.71993 14.7243 7.82978 14.5601C7.93963 14.3959 7.99826 14.2028 7.99826 14.0053C7.99826 13.7404 7.89293 13.4864 7.70545 13.2992C7.51797 13.1119 7.26369 13.0067 6.99855 13.0067ZM19.7549 9.12205L18.4052 5.06767C18.1973 4.4801 17.8111 3.97193 17.3004 3.61394C16.7897 3.25595 16.1799 3.06596 15.5561 3.07044H9.65778C9.39264 3.07044 9.13836 3.17565 8.95088 3.36293C8.7634 3.5502 8.65807 3.80421 8.65807 4.06905C8.65807 4.3339 8.7634 4.58791 8.95088 4.77518C9.13836 4.96246 9.39264 5.06767 9.65778 5.06767H15.5561C15.7753 5.05695 15.992 5.11862 16.1727 5.24315C16.3534 5.36768 16.488 5.54816 16.5558 5.75672L17.6055 9.0122H15.656C15.3909 9.0122 15.1366 9.11741 14.9491 9.30469C14.7617 9.49197 14.6563 9.74597 14.6563 10.0108C14.6563 10.2757 14.7617 10.5297 14.9491 10.7169C15.1366 10.9042 15.3909 11.0094 15.656 11.0094H18.9951C19.2602 11.0094 19.5145 11.1146 19.702 11.3019C19.8895 11.4892 19.9948 11.7432 19.9948 12.008V15.3434C19.9948 15.6083 20.1001 15.8623 20.2876 16.0496C20.4751 16.2368 20.7294 16.342 20.9945 16.342C21.2596 16.342 21.5139 16.2368 21.7014 16.0496C21.8889 15.8623 21.9942 15.6083 21.9942 15.3434V12.008C21.9915 11.3477 21.7705 10.7068 21.3656 10.1849C20.9606 9.66297 20.3943 9.28933 19.7549 9.12205ZM3.75949 2.31149C3.57124 2.11683 3.31329 2.00483 3.04238 2.00015C2.77146 1.99547 2.50979 2.09848 2.31491 2.28653C2.12003 2.47457 2.00792 2.73224 2.00323 3.00285C1.99854 3.27347 2.10167 3.53486 2.28992 3.72953L5.1091 6.53564L4.23935 9.12205C3.59986 9.28933 3.03362 9.66297 2.62865 10.1849C2.22368 10.7068 2.00268 11.3477 2 12.008V16.0025C2.00174 16.6206 2.19482 17.223 2.55278 17.7272C2.91073 18.2314 3.41604 18.6126 3.99942 18.8186V19.997C3.99942 20.2618 4.10475 20.5158 4.29223 20.7031C4.47971 20.8904 4.73399 20.9956 4.99913 20.9956C5.26427 20.9956 5.51855 20.8904 5.70603 20.7031C5.89351 20.5158 5.99884 20.2618 5.99884 19.997V18.9984H17.5855L17.9954 19.4078V19.997C17.9954 20.2618 18.1007 20.5158 18.2882 20.7031C18.4757 20.8904 18.7299 20.9956 18.9951 20.9956C19.1572 20.994 19.316 20.9492 19.4549 20.8658L20.2847 21.7046C20.3776 21.7982 20.4882 21.8725 20.61 21.9232C20.7319 21.9739 20.8625 22 20.9945 22C21.1265 22 21.2571 21.9739 21.379 21.9232C21.5008 21.8725 21.6113 21.7982 21.7043 21.7046C21.798 21.6118 21.8724 21.5013 21.9231 21.3796C21.9739 21.2579 22 21.1274 22 20.9956C22 20.8638 21.9739 20.7332 21.9231 20.6115C21.8724 20.4899 21.798 20.3794 21.7043 20.2866L3.75949 2.31149ZM6.75862 8.11345L7.65836 9.0122H6.38873L6.75862 8.11345ZM4.99913 17.0011C4.73399 17.0011 4.47971 16.8959 4.29223 16.7086C4.10475 16.5214 3.99942 16.2674 3.99942 16.0025V12.008C3.99942 11.7432 4.10475 11.4892 4.29223 11.3019C4.47971 11.1146 4.73399 11.0094 4.99913 11.0094H9.5878L11.5872 13.0067H10.9974C10.7323 13.0067 10.478 13.1119 10.2905 13.2992C10.103 13.4864 9.99768 13.7404 9.99768 14.0053C9.99768 14.2701 10.103 14.5241 10.2905 14.7114C10.478 14.8987 10.7323 15.0039 10.9974 15.0039H12.9968C13.1589 15.0023 13.3177 14.9575 13.4567 14.8741L15.5861 17.0011H4.99913Z" fill="#0C0C1B"/>
</svg>
