<svg width="24" height="24" viewBox="0 0 24 24" fill="none" xmlns="http://www.w3.org/2000/svg">
<path d="M7.5 4.00409C7.63161 4.00485 7.76207 3.97963 7.88391 3.92986C8.00574 3.8801 8.11656 3.80677 8.21 3.71409L9.21 2.71409C9.3983 2.52579 9.50409 2.27039 9.50409 2.00409C9.50409 1.73779 9.3983 1.4824 9.21 1.29409C9.0217 1.10579 8.7663 1 8.5 1C8.2337 1 7.9783 1.10579 7.79 1.29409L6.79 2.29409C6.69627 2.38705 6.62188 2.49766 6.57111 2.61952C6.52034 2.74137 6.4942 2.87208 6.4942 3.00409C6.4942 3.1361 6.52034 3.26681 6.57111 3.38867C6.62188 3.51053 6.69627 3.62113 6.79 3.71409C6.88344 3.80677 6.99426 3.8801 7.11609 3.92986C7.23793 3.97963 7.36839 4.00485 7.5 4.00409ZM11.5 4.00409C11.6316 4.00485 11.7621 3.97963 11.8839 3.92986C12.0057 3.8801 12.1166 3.80677 12.21 3.71409L13.21 2.71409C13.3983 2.52579 13.5041 2.27039 13.5041 2.00409C13.5041 1.73779 13.3983 1.4824 13.21 1.29409C13.0217 1.10579 12.7663 1 12.5 1C12.2337 1 11.9783 1.10579 11.79 1.29409L10.79 2.29409C10.6963 2.38705 10.6219 2.49766 10.5711 2.61952C10.5203 2.74137 10.4942 2.87208 10.4942 3.00409C10.4942 3.1361 10.5203 3.26681 10.5711 3.38867C10.6219 3.51053 10.6963 3.62113 10.79 3.71409C10.8834 3.80677 10.9943 3.8801 11.1161 3.92986C11.2379 3.97963 11.3684 4.00485 11.5 4.00409ZM15.5 4.00409C15.6316 4.00485 15.7621 3.97963 15.8839 3.92986C16.0057 3.8801 16.1166 3.80677 16.21 3.71409L17.21 2.71409C17.3032 2.62085 17.3772 2.51016 17.4277 2.38834C17.4781 2.26652 17.5041 2.13595 17.5041 2.00409C17.5041 1.87223 17.4781 1.74166 17.4277 1.61984C17.3772 1.49802 17.3032 1.38733 17.21 1.29409C17.1168 1.20085 17.0061 1.12689 16.8842 1.07643C16.7624 1.02597 16.6319 1 16.5 1C16.3681 1 16.2376 1.02597 16.1158 1.07643C15.9939 1.12689 15.8832 1.20085 15.79 1.29409L14.79 2.29409C14.6963 2.38705 14.6219 2.49766 14.5711 2.61952C14.5203 2.74137 14.4942 2.87208 14.4942 3.00409C14.4942 3.1361 14.5203 3.26681 14.5711 3.38867C14.6219 3.51053 14.6963 3.62113 14.79 3.71409C14.8834 3.80677 14.9943 3.8801 15.1161 3.92986C15.2379 3.97963 15.3684 4.00485 15.5 4.00409ZM17.92 15.6241C17.8981 15.5604 17.8678 15.4998 17.83 15.4441L17.71 15.2941L17.56 15.1741C17.5043 15.1362 17.4437 15.106 17.38 15.0841C17.3205 15.0536 17.2562 15.0334 17.19 15.0241C17.0293 14.9919 16.8632 14.9997 16.7063 15.0468C16.5494 15.0939 16.4064 15.1788 16.29 15.2941C16.247 15.3416 16.2069 15.3917 16.17 15.4441C16.1322 15.4998 16.1019 15.5604 16.08 15.6241C16.0512 15.6808 16.0309 15.7414 16.02 15.8041C16.0151 15.8707 16.0151 15.9375 16.02 16.0041C16.0211 16.2664 16.1253 16.5178 16.31 16.7041C16.4025 16.8008 16.5152 16.8759 16.64 16.9241C16.754 16.9728 16.8761 17 17 17.0041C17.2652 17.0041 17.5196 16.8987 17.7071 16.7112C17.8946 16.5237 18 16.2693 18 16.0041C18.0049 15.9375 18.0049 15.8707 18 15.8041C17.9828 15.7403 17.9558 15.6796 17.92 15.6241ZM19.76 11.1141L18.4 7.05409C18.1926 6.46732 17.8077 5.9596 17.2989 5.60125C16.7901 5.24291 16.1824 5.05169 15.56 5.05409H8.44C7.81764 5.05169 7.20995 5.24291 6.7011 5.60125C6.19225 5.9596 5.80745 6.46732 5.6 7.05409L4.24 11.1141C3.60033 11.2816 3.03392 11.6558 2.62883 12.1784C2.22374 12.701 2.00268 13.3429 2 14.0041V18.0041C2.00174 18.623 2.19488 19.2263 2.55294 19.7312C2.911 20.236 3.41645 20.6178 4 20.8241V22.0041C4 22.2693 4.10536 22.5237 4.29289 22.7112C4.48043 22.8987 4.73478 23.0041 5 23.0041C5.26522 23.0041 5.51957 22.8987 5.70711 22.7112C5.89464 22.5237 6 22.2693 6 22.0041V21.0041H18V22.0041C18 22.2693 18.1054 22.5237 18.2929 22.7112C18.4804 22.8987 18.7348 23.0041 19 23.0041C19.2652 23.0041 19.5196 22.8987 19.7071 22.7112C19.8946 22.5237 20 22.2693 20 22.0041V20.8241C20.5835 20.6178 21.089 20.236 21.4471 19.7312C21.8051 19.2263 21.9983 18.623 22 18.0041V14.0041C21.9973 13.3429 21.7763 12.701 21.3712 12.1784C20.9661 11.6558 20.3997 11.2816 19.76 11.1141ZM7.49 7.68409C7.55709 7.48547 7.6849 7.31296 7.85537 7.19093C8.02584 7.06891 8.23036 7.00355 8.44 7.00409H15.56C15.7781 6.99271 15.9939 7.05302 16.1744 7.17581C16.355 7.29859 16.4904 7.47711 16.56 7.68409L17.61 11.0041H6.39L7.49 7.68409ZM20 18.0041C20 18.2693 19.8946 18.5237 19.7071 18.7112C19.5196 18.8987 19.2652 19.0041 19 19.0041H5C4.73478 19.0041 4.48043 18.8987 4.29289 18.7112C4.10536 18.5237 4 18.2693 4 18.0041V14.0041C4 13.7389 4.10536 13.4845 4.29289 13.297C4.48043 13.1094 4.73478 13.0041 5 13.0041H19C19.2652 13.0041 19.5196 13.1094 19.7071 13.297C19.8946 13.4845 20 13.7389 20 14.0041V18.0041ZM13 15.0041H11C10.7348 15.0041 10.4804 15.1094 10.2929 15.297C10.1054 15.4845 10 15.7389 10 16.0041C10 16.2693 10.1054 16.5237 10.2929 16.7112C10.4804 16.8987 10.7348 17.0041 11 17.0041H13C13.2652 17.0041 13.5196 16.8987 13.7071 16.7112C13.8946 16.5237 14 16.2693 14 16.0041C14 15.7389 13.8946 15.4845 13.7071 15.297C13.5196 15.1094 13.2652 15.0041 13 15.0041ZM7.92 15.6241C7.89811 15.5604 7.86785 15.4998 7.83 15.4441L7.71 15.2941C7.56938 15.1553 7.3908 15.0613 7.19681 15.024C7.00282 14.9866 6.80211 15.0075 6.62 15.0841C6.49725 15.1317 6.3851 15.2031 6.29 15.2941C6.24699 15.3416 6.20692 15.3917 6.17 15.4441C6.13215 15.4998 6.10189 15.5604 6.08 15.6241C6.0442 15.6796 6.01722 15.7403 6 15.8041C5.99509 15.8707 5.99509 15.9375 6 16.0041C6.00083 16.2019 6.06028 16.3949 6.17085 16.5589C6.28141 16.7229 6.43812 16.8504 6.62115 16.9254C6.80418 17.0003 7.00532 17.0193 7.19913 16.9799C7.39295 16.9405 7.57073 16.8445 7.71 16.7041C7.89474 16.5178 7.9989 16.2664 8 16.0041C8.00491 15.9375 8.00491 15.8707 8 15.8041C7.98278 15.7403 7.9558 15.6796 7.92 15.6241Z" fill="currentColor"/>
</svg>
