<svg width="24" height="24" viewBox="0 0 24 24" fill="none" xmlns="http://www.w3.org/2000/svg">
<path d="M6.5 14C6.30222 14 6.10888 14.0586 5.94443 14.1685C5.77998 14.2784 5.65181 14.4346 5.57612 14.6173C5.50043 14.8 5.48063 15.0011 5.51921 15.1951C5.5578 15.3891 5.65304 15.5673 5.79289 15.7071C5.93275 15.847 6.11093 15.9422 6.30491 15.9808C6.49889 16.0194 6.69996 15.9996 6.88268 15.9239C7.06541 15.8482 7.22159 15.72 7.33147 15.5556C7.44135 15.3911 7.5 15.1978 7.5 15C7.5 14.7348 7.39464 14.4804 7.20711 14.2929C7.01957 14.1054 6.76522 14 6.5 14ZM17.5 14.0192C17.3022 14.0192 17.1089 14.0779 16.9444 14.1877C16.78 14.2976 16.6518 14.4538 16.5761 14.6365C16.5004 14.8193 16.4806 15.0203 16.5192 15.2143C16.5578 15.4083 16.653 15.5865 16.7929 15.7263C16.9327 15.8662 17.1109 15.9614 17.3049 16C17.4989 16.0386 17.7 16.0188 17.8827 15.9431C18.0654 15.8674 18.2216 15.7392 18.3315 15.5748C18.4414 15.4103 18.5 15.217 18.5 15.0192C18.5 14.754 18.3946 14.4996 18.2071 14.3121C18.0196 14.1246 17.7652 14.0192 17.5 14.0192ZM19 8H5C4.20435 8 3.44129 8.31607 2.87868 8.87868C2.31607 9.44129 2 10.2044 2 11V19C2 19.7956 2.31607 20.5587 2.87868 21.1213C3.44129 21.6839 4.20435 22 5 22H19C19.7956 22 20.5587 21.6839 21.1213 21.1213C21.6839 20.5587 22 19.7956 22 19V11C22 10.2044 21.6839 9.44129 21.1213 8.87868C20.5587 8.31607 19.7956 8 19 8ZM20 19C20 19.2652 19.8946 19.5196 19.7071 19.7071C19.5196 19.8946 19.2652 20 19 20H5C4.73478 20 4.48043 19.8946 4.29289 19.7071C4.10536 19.5196 4 19.2652 4 19V11C4 10.7348 4.10536 10.4804 4.29289 10.2929C4.48043 10.1054 4.73478 10 5 10H19C19.2652 10 19.5196 10.1054 19.7071 10.2929C19.8946 10.4804 20 10.7348 20 11V19ZM12 12C11.4067 12 10.8266 12.1759 10.3333 12.5056C9.83994 12.8352 9.45542 13.3038 9.22836 13.8519C9.0013 14.4001 8.94189 15.0033 9.05764 15.5853C9.1734 16.1672 9.45912 16.7018 9.87868 17.1213C10.2982 17.5409 10.8328 17.8266 11.4147 17.9424C11.9967 18.0581 12.5999 17.9987 13.1481 17.7716C13.6962 17.5446 14.1648 17.1601 14.4944 16.6667C14.8241 16.1734 15 15.5933 15 15C15 14.2044 14.6839 13.4413 14.1213 12.8787C13.5587 12.3161 12.7956 12 12 12ZM12 16C11.8022 16 11.6089 15.9414 11.4444 15.8315C11.28 15.7216 11.1518 15.5654 11.0761 15.3827C11.0004 15.2 10.9806 14.9989 11.0192 14.8049C11.0578 14.6109 11.153 14.4327 11.2929 14.2929C11.4327 14.153 11.6109 14.0578 11.8049 14.0192C11.9989 13.9806 12.2 14.0004 12.3827 14.0761C12.5654 14.1518 12.7216 14.28 12.8315 14.4444C12.9414 14.6089 13 14.8022 13 15C13 15.2652 12.8946 15.5196 12.7071 15.7071C12.5196 15.8946 12.2652 16 12 16Z" fill="#0C0C1B"/>
<path fill-rule="evenodd" clip-rule="evenodd" d="M5 6C5 5.44772 5.44772 5 6 5H18C18.5523 5 19 5.44772 19 6C19 6.55228 18.5523 7 18 7H6C5.44772 7 5 6.55228 5 6Z" fill="#0C0C1B"/>
<path fill-rule="evenodd" clip-rule="evenodd" d="M7 3C7 2.44772 7.44772 2 8 2H16C16.5523 2 17 2.44772 17 3C17 3.55228 16.5523 4 16 4H8C7.44772 4 7 3.55228 7 3Z" fill="#0C0C1B"/>
</svg>
