<svg width="24" height="24" viewBox="0 0 24 24" fill="none" xmlns="http://www.w3.org/2000/svg">
<path d="M15.665 8.33503C15.5731 8.24244 15.4639 8.16895 15.3435 8.1188C15.2231 8.06865 15.094 8.04283 14.9636 8.04283C14.8332 8.04283 14.7041 8.06865 14.5837 8.1188C14.4633 8.16895 14.354 8.24244 14.2622 8.33503L12 10.6071L9.7378 8.33503C9.55178 8.14902 9.29949 8.04451 9.03642 8.04451C8.77335 8.04451 8.52105 8.14902 8.33503 8.33503C8.14902 8.52105 8.04451 8.77335 8.04451 9.03642C8.04451 9.29949 8.14902 9.55178 8.33503 9.7378L10.6071 12L8.33503 14.2622C8.24244 14.354 8.16895 14.4633 8.1188 14.5837C8.06865 14.7041 8.04283 14.8332 8.04283 14.9636C8.04283 15.094 8.06865 15.2231 8.1188 15.3435C8.16895 15.4639 8.24244 15.5731 8.33503 15.665C8.42687 15.7576 8.53613 15.831 8.65651 15.8812C8.77689 15.9313 8.90601 15.9572 9.03642 15.9572C9.16683 15.9572 9.29594 15.9313 9.41632 15.8812C9.5367 15.831 9.64596 15.7576 9.7378 15.665L12 13.3929L14.2622 15.665C14.354 15.7576 14.4633 15.831 14.5837 15.8812C14.7041 15.9313 14.8332 15.9572 14.9636 15.9572C15.094 15.9572 15.2231 15.9313 15.3435 15.8812C15.4639 15.831 15.5731 15.7576 15.665 15.665C15.7576 15.5731 15.831 15.4639 15.8812 15.3435C15.9313 15.2231 15.9572 15.094 15.9572 14.9636C15.9572 14.8332 15.9313 14.7041 15.8812 14.5837C15.831 14.4633 15.7576 14.354 15.665 14.2622L13.3929 12L15.665 9.7378C15.7576 9.64596 15.831 9.5367 15.8812 9.41632C15.9313 9.29594 15.9572 9.16683 15.9572 9.03642C15.9572 8.90601 15.9313 8.77689 15.8812 8.65651C15.831 8.53613 15.7576 8.42687 15.665 8.33503ZM18.9842 5.01582C18.0729 4.07231 16.9829 3.31974 15.7776 2.80201C14.5724 2.28428 13.2761 2.01177 11.9644 2.00037C10.6528 1.98897 9.35196 2.23892 8.13792 2.73563C6.92387 3.23233 5.82091 3.96585 4.89338 4.89338C3.96585 5.82091 3.23233 6.92387 2.73563 8.13792C2.23892 9.35196 1.98897 10.6528 2.00037 11.9644C2.01177 13.2761 2.28428 14.5724 2.80201 15.7776C3.31974 16.9829 4.07231 18.0729 5.01582 18.9842C5.92709 19.9277 7.01714 20.6803 8.22237 21.198C9.4276 21.7157 10.7239 21.9882 12.0356 21.9996C13.3472 22.011 14.648 21.7611 15.8621 21.2644C17.0761 20.7677 18.1791 20.0342 19.1066 19.1066C20.0342 18.1791 20.7677 17.0761 21.2644 15.8621C21.7611 14.648 22.011 13.3472 21.9996 12.0356C21.9882 10.7239 21.7157 9.4276 21.198 8.22237C20.6803 7.01714 19.9277 5.92709 18.9842 5.01582ZM17.5913 17.5913C16.2992 18.8848 14.5986 19.6903 12.7792 19.8706C10.9598 20.0509 9.13422 19.5947 7.61342 18.5799C6.09263 17.5651 4.97074 16.0544 4.43889 14.3052C3.90704 12.5559 3.99813 10.6764 4.69666 8.98681C5.39518 7.29722 6.65792 5.90208 8.26973 5.0391C9.88154 4.17612 11.7427 3.89868 13.5361 4.25406C15.3296 4.60943 16.9443 5.57564 18.1052 6.98805C19.2661 8.40046 19.9014 10.1717 19.9029 12C19.9064 13.0385 19.7039 14.0674 19.3071 15.0272C18.9104 15.9869 18.3272 16.8584 17.5913 17.5913Z" fill="#0C0C1B"/>
</svg>
