<svg width="24" height="24" viewBox="0 0 24 24" fill="none" xmlns="http://www.w3.org/2000/svg">
<path d="M20.5 15.1C20.2626 14.9821 19.9881 14.9633 19.7369 15.0477C19.4856 15.132 19.2781 15.3127 19.16 15.55C18.5271 16.8282 17.5639 17.9139 16.3703 18.6948C15.1767 19.4756 13.796 19.9231 12.3713 19.9909C10.9466 20.0588 9.52961 19.7445 8.2672 19.0806C7.00479 18.4167 5.94283 17.4274 5.19132 16.2151C4.4398 15.0028 4.02607 13.6116 3.99296 12.1857C3.95985 10.7597 4.30858 9.35086 5.00302 8.105C5.69747 6.85914 6.71237 5.8216 7.94261 5.09984C9.17284 4.37808 10.5737 3.99835 12 3.99999C13.4911 3.99354 14.9539 4.40763 16.2203 5.19474C17.4868 5.98186 18.5057 7.11011 19.16 8.44999C19.2794 8.68869 19.4886 8.8702 19.7418 8.95459C19.995 9.03898 20.2713 9.01934 20.51 8.89999C20.7487 8.78065 20.9302 8.57137 21.0146 8.31819C21.099 8.06502 21.0794 7.78869 20.96 7.54999C19.9566 5.53074 18.3002 3.90985 16.2597 2.95042C14.2192 1.99099 11.9143 1.74933 9.71921 2.26467C7.52407 2.78001 5.56753 4.02209 4.16713 5.78931C2.76674 7.55654 2.0047 9.74518 2.0047 12C2.0047 14.2548 2.76674 16.4434 4.16713 18.2107C5.56753 19.9779 7.52407 21.22 9.71921 21.7353C11.9143 22.2507 14.2192 22.009 16.2597 21.0496C18.3002 20.0901 19.9566 18.4692 20.96 16.45C21.0196 16.3314 21.055 16.2021 21.0641 16.0696C21.0732 15.9372 21.0558 15.8042 21.013 15.6786C20.9702 15.5529 20.9027 15.437 20.8147 15.3377C20.7266 15.2384 20.6196 15.1576 20.5 15.1ZM21 11H11.41L13.71 8.70999C13.8032 8.61676 13.8772 8.50606 13.9277 8.38424C13.9781 8.26242 14.0041 8.13185 14.0041 7.99999C14.0041 7.86813 13.9781 7.73757 13.9277 7.61574C13.8772 7.49392 13.8032 7.38323 13.71 7.28999C13.6168 7.19675 13.5061 7.12279 13.3843 7.07233C13.2624 7.02187 13.1319 6.9959 13 6.9959C12.8681 6.9959 12.7376 7.02187 12.6158 7.07233C12.4939 7.12279 12.3832 7.19675 12.29 7.28999L8.29001 11.29C8.19897 11.3851 8.1276 11.4972 8.08001 11.62C7.97999 11.8635 7.97999 12.1365 8.08001 12.38C8.1276 12.5027 8.19897 12.6149 8.29001 12.71L12.29 16.71C12.383 16.8037 12.4936 16.8781 12.6154 16.9289C12.7373 16.9797 12.868 17.0058 13 17.0058C13.132 17.0058 13.2627 16.9797 13.3846 16.9289C13.5064 16.8781 13.617 16.8037 13.71 16.71C13.8037 16.617 13.8781 16.5064 13.9289 16.3846C13.9797 16.2627 14.0058 16.132 14.0058 16C14.0058 15.868 13.9797 15.7373 13.9289 15.6154C13.8781 15.4936 13.8037 15.383 13.71 15.29L11.41 13H21C21.2652 13 21.5196 12.8946 21.7071 12.7071C21.8946 12.5196 22 12.2652 22 12C22 11.7348 21.8946 11.4804 21.7071 11.2929C21.5196 11.1054 21.2652 11 21 11Z" fill="#0C0C1B"/>
</svg>
