<svg width="40" height="40" viewBox="0 0 40 40" fill="none" xmlns="http://www.w3.org/2000/svg">
<g clip-path="url(#clip0_5_813)">
<path d="M20.2494 40C19.2768 39.9947 18.3101 39.8472 17.3801 39.5623C16.3603 39.2494 15.3745 38.8346 14.4378 38.3242C13.1568 37.6656 11.9331 36.9011 10.7794 36.0388C9.74093 35.2255 8.75947 34.3419 7.84188 33.3943C6.59897 32.1514 5.43957 30.88 4.48616 29.7122C3.43169 28.4693 2.5212 27.111 1.77208 25.6634L1.70875 25.5312V25.527L1.69414 25.4964V25.4894V25.4824L1.62037 25.3245L1.6155 25.314L1.61063 25.3036L1.54104 25.1512L1.53199 25.1317V25.1261L1.48049 25.012L1.46448 24.9765L1.45265 24.9494L1.44291 24.9278V24.9236L1.38933 24.8018L1.38376 24.7879L1.36914 24.7747L1.30581 24.6272L1.29538 24.6028L1.23344 24.4532L1.22926 24.4434L1.22509 24.4337L1.16663 24.2876L1.15967 24.2702L1.1033 24.1261V24.1212L1.09565 24.1017L1.04206 23.9626L1.03719 23.9486L1.03093 23.9326C1.01423 23.8881 0.998219 23.8436 0.981517 23.7976V23.7886L0.971774 23.7614C0.952984 23.7099 0.93837 23.6675 0.925148 23.6299V23.6216L0.914709 23.5902L0.860427 23.4525L0.847205 23.4121L0.804754 23.284L0.797795 23.2639L0.792227 23.2437C0.776917 23.1964 0.764391 23.1553 0.75256 23.1177L0.740729 23.078L0.706629 22.9653L0.700366 22.9437V22.9396L0.693407 22.9152L0.658611 22.8039L0.653044 22.7851L0.647476 22.7565C0.635646 22.7127 0.625207 22.6744 0.615464 22.6382L0.608505 22.6173L0.602241 22.5944C0.593195 22.5589 0.582756 22.5206 0.572317 22.4775L0.561878 22.4357V22.426C0.554223 22.3947 0.543784 22.3564 0.534041 22.3118L0.519427 22.2569C0.511076 22.2228 0.502725 22.1873 0.493678 22.1441L0.488111 22.1177L0.481848 22.0898C0.473497 22.0523 0.465842 22.0147 0.458186 21.9778L0.449835 21.9263C0.444268 21.8999 0.439397 21.8734 0.433829 21.847V21.833V21.8212V21.817L0.42339 21.7614V21.7544L0.408776 21.673C0.403905 21.6472 0.399729 21.6215 0.395554 21.5957L0.381635 21.5108C0.37746 21.4865 0.37398 21.4621 0.369805 21.4412C0.365629 21.4204 0.360758 21.3807 0.355886 21.3501L0.351711 21.3202L0.347535 21.2902C0.342664 21.2547 0.337793 21.2206 0.333617 21.1851L0.317611 21.1309V21.1211C0.310652 21.0808 0.310652 21.0474 0.303693 21.0167C0.303693 20.9979 0.299517 20.9792 0.297429 20.9604V20.9534C0.29395 20.92 0.29047 20.8838 0.28699 20.8504C0.28699 20.8309 0.283511 20.8107 0.281423 20.7913V20.7871C0.278639 20.7583 0.276088 20.7296 0.273768 20.7008C0.273768 20.675 0.269593 20.65 0.268201 20.6242C0.266809 20.5985 0.264721 20.5734 0.262633 20.5484C0.262633 20.5199 0.259154 20.4913 0.257762 20.4621C0.25637 20.4329 0.257762 20.4141 0.253586 20.3925C0.249411 20.3709 0.253586 20.3347 0.250107 20.3062V20.302C0.250107 20.2777 0.250107 20.2533 0.250107 20.229C0.250107 20.2046 0.250107 20.1907 0.250107 20.1719V20.1441C0.250107 20.1176 0.250107 20.0905 0.250107 20.064C0.250107 20.0376 0.250107 20.0209 0.250107 19.9993V19.8372C0.250107 19.8037 0.250107 19.7703 0.250107 19.7369C0.250107 19.7133 0.250107 19.6896 0.250107 19.6674C0.250107 19.6451 0.250107 19.6082 0.250107 19.5783C0.250107 19.5616 0.250107 19.5456 0.250107 19.5289V19.5045C0.250107 19.4669 0.250107 19.4349 0.254978 19.4029C0.254978 19.3841 0.254978 19.3646 0.254978 19.3458C0.254978 19.3152 0.258458 19.2825 0.261242 19.2435C0.261242 19.2254 0.261242 19.2067 0.265417 19.1886C0.265417 19.1538 0.270984 19.119 0.273768 19.0842V19.0501V19.0257C0.277016 18.9909 0.280495 18.9561 0.284207 18.9213L0.289774 18.8663V18.8552C0.289774 18.8239 0.296733 18.7898 0.302301 18.7494C0.302301 18.7369 0.302301 18.7244 0.307172 18.7119V18.6938V18.6868C0.311348 18.652 0.316219 18.6172 0.32109 18.5824L0.32805 18.533C0.333617 18.4954 0.339184 18.4578 0.344752 18.421L0.351711 18.3792V18.3729C0.357278 18.3381 0.363542 18.2999 0.371197 18.256L0.379548 18.2073C0.386507 18.167 0.394162 18.1259 0.401817 18.0848L0.40808 18.0528V18.0354C0.415735 17.9951 0.424086 17.9533 0.432437 17.9129L0.439397 17.8781V17.8719C0.447748 17.8315 0.456795 17.7898 0.465842 17.7487V17.7355L0.471409 17.7097C0.47976 17.6715 0.489503 17.6311 0.500637 17.5838L0.509684 17.5469C0.519427 17.5072 0.529866 17.4641 0.543088 17.4112L0.54796 17.3924L0.552135 17.3771C0.563966 17.3305 0.576492 17.2831 0.590411 17.2316L0.59389 17.2184L0.598066 17.2038C0.611984 17.153 0.624511 17.1078 0.636342 17.0646L0.645388 17.0326C0.657219 16.9915 0.671833 16.9428 0.686448 16.8934V16.8879L0.694103 16.8628C0.709413 16.8127 0.724723 16.764 0.738641 16.7194L0.746297 16.6951C0.761607 16.6471 0.778309 16.5956 0.797795 16.5371L0.80197 16.5239V16.519C0.819368 16.4661 0.838158 16.4125 0.85486 16.3631L0.863211 16.3402C0.880609 16.2894 0.899399 16.2379 0.916797 16.1898L0.920972 16.1787L0.925148 16.1676C0.946721 16.1091 0.964815 16.0611 0.981517 16.0152L0.988476 15.9964C1.00866 15.9442 1.02954 15.8899 1.05111 15.8349L1.05528 15.8245C1.07616 15.7709 1.09913 15.7145 1.12488 15.6519L1.12975 15.6401C1.15341 15.5823 1.17568 15.528 1.19934 15.4751L1.20699 15.457C1.22718 15.409 1.24945 15.3575 1.27659 15.2956L1.28494 15.2768C1.30581 15.2295 1.32878 15.1766 1.3587 15.1112L1.36497 15.0973C1.39628 15.0277 1.42273 14.9706 1.44709 14.9184C2.89738 11.8007 5.06586 9.62942 7.16684 7.53053L7.2086 7.48878C8.43063 6.26675 9.57124 5.22356 10.6951 4.30008C11.9806 3.23254 13.3502 2.27066 14.7906 1.42385C15.5914 0.947356 16.4506 0.576816 17.3467 0.321514C18.1147 0.10923 18.9077 0.00109078 19.7045 0C20.776 0.00773424 21.8391 0.188689 22.8528 0.535857C23.8228 0.867276 24.7616 1.2839 25.6581 1.78086C27.09 2.54982 28.4637 3.42251 29.7682 4.39194C30.996 5.30651 32.1562 6.3087 33.2394 7.39065C34.3702 8.53457 35.4053 9.76933 36.3342 11.0825C37.2022 12.2549 37.9187 13.5323 38.4665 14.8843C38.8236 15.8298 39.127 16.7947 39.3753 17.7745C39.5919 18.626 39.7137 19.4989 39.7386 20.3772C39.7557 21.2379 39.6515 22.0968 39.4289 22.9284C39.1667 23.88 38.7942 24.7976 38.3189 25.6627C37.642 26.9321 36.85 28.1367 35.9528 29.2613C35.0593 30.3651 34.1029 31.4165 33.0884 32.4103C31.9924 33.5062 30.8378 34.5418 29.6297 35.5127C28.3653 36.5308 27.0391 37.4698 25.6588 38.3242C24.051 39.3845 22.175 39.9657 20.2494 40ZM9.87605 17.5065L9.83012 17.606V17.6137L9.78906 17.7056L9.78488 17.716L9.74591 17.8058V17.8106V17.8155L9.70764 17.9074V17.9136L9.66936 18.009V18.0132L9.63457 18.1029V18.1092V18.1148L9.60325 18.199L9.59907 18.2094L9.56915 18.2929V18.2999V18.3054C9.55941 18.3319 9.55036 18.3604 9.53992 18.3917V18.3987C9.52809 18.4342 9.51904 18.4606 9.51139 18.4864L9.50721 18.4996L9.48286 18.5796L9.47798 18.5963C9.4701 18.6218 9.46244 18.6474 9.45502 18.6729V18.6819V18.691L9.43345 18.7675L9.39795 18.7898L9.39378 18.8065L9.37708 18.8691L9.37221 18.8879C9.36594 18.913 9.35968 18.938 9.35342 18.9631L9.34854 18.9833L9.33254 19.0529L9.32836 19.0723L9.32279 19.0988L9.31375 19.1412V19.1524V19.1642L9.30192 19.222V19.2331L9.288 19.2693L9.27965 19.3138L9.27547 19.3375V19.3479V19.3625C9.27199 19.3841 9.26851 19.405 9.26503 19.4266L9.26086 19.453L9.25181 19.5156L9.24764 19.5421C9.24764 19.563 9.24207 19.5831 9.23929 19.604V19.62V19.636C9.23929 19.6555 9.23441 19.675 9.23233 19.6945V19.714V19.7314V19.7502C9.23233 19.7634 9.23233 19.7766 9.22885 19.7891V19.8218V19.8392C9.22885 19.8525 9.22885 19.8664 9.22885 19.8796C9.22885 19.8928 9.22885 19.8998 9.22885 19.9102C9.22885 19.9207 9.22885 19.9464 9.22537 19.9645C9.22537 19.9715 9.22537 19.9784 9.22537 19.9861V19.9986C9.22537 20.0167 9.22537 20.0348 9.22537 20.0536C9.22537 20.0724 9.22537 20.08 9.22537 20.0933C9.22537 20.1086 9.22537 20.1246 9.22537 20.1399V20.1837C9.22537 20.2011 9.22537 20.2185 9.22537 20.2359V20.3619C9.22537 20.3765 9.22537 20.3918 9.22537 20.4064C9.22537 20.421 9.22537 20.4377 9.22537 20.4537V20.4941C9.22537 20.5108 9.22537 20.5275 9.22537 20.5442V20.5644V20.5846C9.22537 20.5957 9.22537 20.6061 9.22537 20.6173V20.634V20.6556V20.6764C9.22537 20.6904 9.22537 20.705 9.22537 20.7189V20.7425V20.7683V20.8003C9.22537 20.8191 9.22885 20.8379 9.23093 20.8567C9.23093 20.8643 9.23093 20.8713 9.23093 20.8789V20.8915C9.23093 20.911 9.23511 20.9297 9.23789 20.9485V20.9632V20.9826L9.24207 21.0119L9.24555 21.0383L9.25042 21.0717V21.0884L9.25529 21.1204V21.1371V21.1573L9.25947 21.181V21.2012V21.2213L9.26364 21.2443L9.27269 21.2916V21.3048L9.27756 21.3313V21.3445L9.28452 21.3807L9.29009 21.4071C9.29426 21.428 9.29867 21.4487 9.30331 21.4691L9.30957 21.499L9.31931 21.5415L9.32349 21.5609V21.5756V21.5888L9.33811 21.65L9.34506 21.6786C9.35133 21.7036 9.35689 21.7245 9.36177 21.7433L9.36873 21.7697L9.38612 21.833L9.3896 21.8456L9.39308 21.8581C9.39865 21.879 9.40491 21.8992 9.41048 21.92L9.41814 21.9472L9.43692 22.0105L9.4404 22.0223V22.0328L9.46198 22.1024V22.1128V22.1239L9.47311 22.1573L9.48494 22.1928L9.48982 22.2068V22.2151L9.50791 22.2687L9.51348 22.2847L9.52113 22.3063V22.316L9.54271 22.3773L9.54966 22.3974L9.5775 22.4726L9.58168 22.483V22.49L9.6116 22.5686L9.61717 22.5826L9.64848 22.6626L9.65266 22.6723L9.6805 22.7419L9.68537 22.7537V22.7586V22.7649C9.6965 22.792 9.70833 22.8199 9.72016 22.8477L9.72434 22.8581L9.75914 22.9403L9.76401 22.9521L9.79115 23.014L9.7988 23.0314L9.80576 23.0467L9.84265 23.1295V23.1344L9.84682 23.1435L9.88579 23.2284V23.2353V23.2402L9.89693 23.2639L9.92685 23.3286V23.3328L9.94147 23.3627L9.97069 23.4246C10.8794 25.0124 12.0142 26.4595 13.3396 27.7205C14.3913 28.8406 15.6315 29.7672 17.0036 30.4583C17.9851 31.0334 19.095 31.3533 20.232 31.3887C21.3016 31.3698 22.3438 31.0471 23.237 30.4583C24.7336 29.5247 26.1183 28.4226 27.3638 27.1735C28.5213 26.0827 29.5018 24.8181 30.2699 23.4253C31.4112 21.2902 31.1927 19.7369 30.3521 17.4404C29.6706 15.9092 28.7107 14.5179 27.5211 13.3373C26.2769 12.0987 24.8582 11.0488 23.3101 10.221C22.3071 9.62322 21.1716 9.28345 20.0051 9.23205C19.0468 9.2422 18.109 9.51127 17.2911 10.0108C15.7453 10.9439 14.3292 12.0767 13.0794 13.3797L13.0571 13.402C11.7564 14.5656 10.6793 15.9571 9.87883 17.5079L9.87605 17.5065Z" fill="#53B7D1"/>
</g>
<defs>
<clipPath id="clip0_5_813">
<rect width="40" height="40" fill="white"/>
</clipPath>
</defs>
</svg>
