<svg width="24" height="24" viewBox="0 0 24 24" fill="none" xmlns="http://www.w3.org/2000/svg">
<path d="M12.0458 15.3471L8.14056 19.2523C7.90958 19.4842 7.63509 19.6682 7.33283 19.7937C7.03057 19.9193 6.70649 19.9839 6.37919 19.9839C6.05189 19.9839 5.72782 19.9193 5.42556 19.7937C5.1233 19.6682 4.8488 19.4842 4.61782 19.2523C4.38472 19.022 4.19965 18.7477 4.07333 18.4453C3.94702 18.143 3.88198 17.8186 3.88198 17.4909C3.88198 17.1632 3.94702 16.8388 4.07333 16.5365C4.19965 16.2341 4.38472 15.9598 4.61782 15.7295L8.52303 11.8243C8.71255 11.6348 8.81903 11.3778 8.81903 11.1097C8.81903 10.8417 8.71255 10.5846 8.52303 10.3951C8.3335 10.2056 8.07645 10.0991 7.80842 10.0991C7.54038 10.0991 7.28333 10.2056 7.0938 10.3951L3.1886 14.3104C2.40188 15.1667 1.9764 16.2938 2.00101 17.4564C2.02562 18.619 2.49843 19.7271 3.32069 20.5494C4.14294 21.3717 5.25107 21.8445 6.41366 21.8691C7.57625 21.8937 8.7034 21.4682 9.55972 20.6815L13.475 16.7763C13.6645 16.5868 13.771 16.3297 13.771 16.0617C13.771 15.7936 13.6645 15.5366 13.475 15.3471C13.2855 15.1575 13.0284 15.0511 12.7604 15.0511C12.4923 15.0511 12.2353 15.1575 12.0458 15.3471ZM8.74446 15.1256C8.8385 15.2189 8.95004 15.2927 9.07267 15.3428C9.1953 15.3929 9.32661 15.4183 9.45907 15.4175C9.59153 15.4183 9.72284 15.3929 9.84547 15.3428C9.9681 15.2927 10.0796 15.2189 10.1737 15.1256L15.1256 10.1737C15.3152 9.98415 15.4216 9.7271 15.4216 9.45907C15.4216 9.19104 15.3152 8.93398 15.1256 8.74446C14.9361 8.55493 14.6791 8.44845 14.411 8.44845C14.143 8.44845 13.8859 8.55493 13.6964 8.74446L8.74446 13.6964C8.65012 13.79 8.57524 13.9013 8.52414 14.024C8.47304 14.1466 8.44674 14.2782 8.44674 14.411C8.44674 14.5439 8.47304 14.6755 8.52414 14.7981C8.57524 14.9208 8.65012 15.0321 8.74446 15.1256ZM20.9935 17.974H19.987V16.9675C19.987 16.7006 19.881 16.4446 19.6922 16.2558C19.5035 16.0671 19.2475 15.961 18.9805 15.961C18.7136 15.961 18.4576 16.0671 18.2688 16.2558C18.0801 16.4446 17.974 16.7006 17.974 16.9675V17.974H16.9675C16.7006 17.974 16.4446 18.0801 16.2558 18.2688C16.0671 18.4576 15.961 18.7136 15.961 18.9805C15.961 19.2475 16.0671 19.5035 16.2558 19.6922C16.4446 19.881 16.7006 19.987 16.9675 19.987H17.974V20.9935C17.974 21.2604 18.0801 21.5165 18.2688 21.7052C18.4576 21.894 18.7136 22 18.9805 22C19.2475 22 19.5035 21.894 19.6922 21.7052C19.881 21.5165 19.987 21.2604 19.987 20.9935V19.987H20.9935C21.2604 19.987 21.5165 19.881 21.7052 19.6922C21.894 19.5035 22 19.2475 22 18.9805C22 18.7136 21.894 18.4576 21.7052 18.2688C21.5165 18.0801 21.2604 17.974 20.9935 17.974ZM16.7763 13.475L20.6815 9.55972C21.4682 8.7034 21.8937 7.57625 21.8691 6.41366C21.8445 5.25107 21.3717 4.14294 20.5494 3.32069C19.7271 2.49843 18.619 2.02562 17.4564 2.00101C16.2938 1.9764 15.1667 2.40188 14.3104 3.1886L10.3951 7.0938C10.3013 7.18765 10.2268 7.29906 10.176 7.42167C10.1252 7.54428 10.0991 7.6757 10.0991 7.80842C10.0991 7.94113 10.1252 8.07255 10.176 8.19516C10.2268 8.31777 10.3013 8.42918 10.3951 8.52303C10.489 8.61687 10.6004 8.69131 10.723 8.7421C10.8456 8.79289 10.977 8.81903 11.1097 8.81903C11.2424 8.81903 11.3739 8.79289 11.4965 8.7421C11.6191 8.69131 11.7305 8.61687 11.8243 8.52303L15.7295 4.61782C15.9605 4.38593 16.235 4.20193 16.5373 4.07638C16.8395 3.95083 17.1636 3.8862 17.4909 3.8862C17.8182 3.8862 18.1423 3.95083 18.4445 4.07638C18.7468 4.20193 19.0213 4.38593 19.2523 4.61782C19.4854 4.84812 19.6704 5.12239 19.7968 5.42474C19.9231 5.7271 19.9881 6.05151 19.9881 6.37919C19.9881 6.70687 19.9231 7.03129 19.7968 7.33364C19.6704 7.63599 19.4854 7.91026 19.2523 8.14056L15.3471 12.0458C15.2527 12.1393 15.1779 12.2506 15.1268 12.3733C15.0757 12.4959 15.0493 12.6275 15.0493 12.7604C15.0493 12.8932 15.0757 13.0248 15.1268 13.1474C15.1779 13.2701 15.2527 13.3814 15.3471 13.475C15.4406 13.5693 15.552 13.6442 15.6746 13.6953C15.7973 13.7464 15.9288 13.7727 16.0617 13.7727C16.1945 13.7727 16.3261 13.7464 16.4488 13.6953C16.5714 13.6442 16.6827 13.5693 16.7763 13.475Z" fill="#0C0C1B"/>
</svg>
