<svg width="24" height="24" viewBox="0 0 24 24" fill="none" xmlns="http://www.w3.org/2000/svg">
<path d="M4.76661 10.5857C5.02931 10.6201 5.29481 10.548 5.50472 10.3852C5.71463 10.2223 5.85174 9.98216 5.88589 9.71748C5.92004 9.4528 5.84843 9.18529 5.68682 8.9738C5.52522 8.76232 5.28684 8.62417 5.02414 8.58976L3.28083 8.15065C3.15374 8.1114 3.0201 8.09832 2.88788 8.1122C2.75566 8.12607 2.62757 8.16663 2.51123 8.23143C2.3949 8.29624 2.2927 8.38398 2.21073 8.48942C2.12876 8.59486 2.06869 8.71585 2.03411 8.84518C1.99952 8.9745 1.99113 9.10952 2.00943 9.24218C2.02773 9.37484 2.07234 9.50243 2.14062 9.61735C2.20889 9.73228 2.29942 9.83218 2.40683 9.9111C2.51423 9.99003 2.6363 10.0464 2.76577 10.0768L4.50907 10.5458C4.59205 10.5737 4.67914 10.5872 4.76661 10.5857ZM8.58999 5.00701C8.64804 5.22473 8.77754 5.41624 8.9574 5.55034C9.13726 5.68444 9.35689 5.75324 9.58051 5.74552C9.66581 5.75932 9.75274 5.75932 9.83804 5.74552C10.0894 5.67545 10.3033 5.50829 10.4331 5.28033C10.5629 5.05237 10.5982 4.78202 10.5314 4.52798L10.0659 2.77154C10.0357 2.64109 9.97978 2.5181 9.90145 2.40989C9.82311 2.30168 9.72396 2.21046 9.6099 2.14168C9.49583 2.07289 9.3692 2.02794 9.23753 2.0095C9.10586 1.99106 8.97185 1.99952 8.8435 2.03436C8.71514 2.06921 8.59506 2.12973 8.4904 2.21231C8.38575 2.2949 8.29867 2.39787 8.23434 2.51508C8.17002 2.6323 8.12977 2.76136 8.116 2.89457C8.10222 3.02779 8.1152 3.16243 8.15417 3.29049L8.58999 5.00701ZM13.3742 14.9868C13.2816 14.8887 13.1703 14.8105 13.0468 14.7571C12.9234 14.7037 12.7904 14.6762 12.6561 14.6762C12.5217 14.6762 12.3888 14.7037 12.2653 14.7571C12.1419 14.8105 12.0305 14.8887 11.9379 14.9868L8.47113 18.5396C8.06352 18.9336 7.52051 19.1536 6.95564 19.1536C6.39077 19.1536 5.84777 18.9336 5.44016 18.5396C5.2395 18.34 5.08019 18.1023 4.97145 17.8402C4.86271 17.5781 4.80672 17.2968 4.80672 17.0127C4.80672 16.7286 4.86271 16.4474 4.97145 16.1853C5.08019 15.9231 5.2395 15.6854 5.44016 15.4858L8.96639 11.9929C9.07008 11.9034 9.15429 11.7933 9.21375 11.6695C9.2732 11.5457 9.30661 11.4108 9.31188 11.2734C9.31715 11.1359 9.29416 10.9989 9.24437 10.8708C9.19457 10.7428 9.11903 10.6264 9.0225 10.5292C8.92597 10.4319 8.81053 10.3558 8.68342 10.3057C8.55631 10.2555 8.42028 10.2323 8.28387 10.2376C8.14746 10.2429 8.01361 10.2766 7.89072 10.3365C7.76783 10.3964 7.65856 10.4813 7.56976 10.5857L4.01381 14.0687C3.62879 14.4566 3.32337 14.9171 3.11499 15.424C2.90662 15.9308 2.79937 16.4741 2.79937 17.0227C2.79937 17.5713 2.90662 18.1146 3.11499 18.6214C3.32337 19.1283 3.62879 19.5888 4.01381 19.9767C4.39884 20.3647 4.85593 20.6724 5.35899 20.8823C5.86205 21.0923 6.40123 21.2003 6.94574 21.2003C7.49025 21.2003 8.02942 21.0923 8.53248 20.8823C9.03554 20.6724 9.49264 20.3647 9.87766 19.9767L13.3742 16.4538C13.4747 16.3604 13.555 16.247 13.6098 16.1207C13.6647 15.9945 13.6931 15.8582 13.6931 15.7203C13.6931 15.5825 13.6647 15.4462 13.6098 15.3199C13.555 15.1937 13.4747 15.0803 13.3742 14.9868ZM5.18262 6.5938C5.36712 6.77817 5.61613 6.88211 5.87598 6.88322C6.00634 6.88398 6.13557 6.8588 6.25625 6.80914C6.37693 6.75947 6.48669 6.6863 6.57925 6.5938C6.76373 6.40682 6.86728 6.15388 6.86728 5.89023C6.86728 5.62657 6.76373 5.37363 6.57925 5.18665L5.30148 3.89926C5.112 3.73576 4.86825 3.65033 4.61897 3.66003C4.36968 3.66973 4.1332 3.77385 3.9568 3.95159C3.78039 4.12932 3.67705 4.36758 3.66742 4.61875C3.65779 4.86991 3.74259 5.11549 3.90486 5.30641L5.18262 6.5938ZM21.1101 13.909L19.3668 13.4399C19.2376 13.395 19.1006 13.3774 18.9643 13.3884C18.8281 13.3993 18.6955 13.4386 18.5751 13.5037C18.4546 13.5688 18.3488 13.6583 18.2644 13.7666C18.1799 13.8748 18.1186 13.9996 18.0844 14.1329C18.0501 14.2662 18.0436 14.4052 18.0652 14.5412C18.0868 14.6772 18.1362 14.8072 18.2101 14.923C18.2841 15.0389 18.381 15.138 18.4948 15.2143C18.6087 15.2905 18.7369 15.3422 18.8715 15.3661L20.6148 15.8351H20.8724C21.1351 15.8695 21.4006 15.7974 21.6105 15.6345C21.8204 15.4717 21.9575 15.2315 21.9917 14.9669C22.0258 14.7022 21.9542 14.4347 21.7926 14.2232C21.631 14.0117 21.3926 13.8736 21.1299 13.8391L21.1101 13.909ZM15.2859 18.9787C15.2515 18.8522 15.1927 18.7338 15.1128 18.6302C15.033 18.5266 14.9336 18.4398 14.8205 18.375C14.7073 18.3101 14.5826 18.2683 14.4534 18.252C14.3242 18.2358 14.1931 18.2453 14.0675 18.2802C13.8161 18.3502 13.6023 18.5174 13.4725 18.7453C13.3427 18.9733 13.3074 19.2437 13.3742 19.4977L13.8397 21.2541C13.8978 21.4719 14.0273 21.6634 14.2071 21.7975C14.387 21.9316 14.6066 22.0004 14.8302 21.9926C14.9158 22.0025 15.0022 22.0025 15.0878 21.9926C15.2142 21.9591 15.3329 21.9006 15.4368 21.8206C15.5407 21.7406 15.6279 21.6406 15.6932 21.5265C15.7586 21.4124 15.8009 21.2864 15.8177 21.1557C15.8345 21.025 15.8254 20.8923 15.791 20.7651L15.2859 18.9787ZM18.6932 17.4119C18.5038 17.2484 18.26 17.163 18.0107 17.1727C17.7614 17.1824 17.525 17.2865 17.3486 17.4642C17.1722 17.642 17.0688 17.8802 17.0592 18.1314C17.0496 18.3826 17.1343 18.6281 17.2966 18.8191L18.5744 20.1065C18.76 20.2923 19.011 20.3967 19.2727 20.3967C19.5344 20.3967 19.7854 20.2923 19.971 20.1065C20.1555 19.9195 20.259 19.6665 20.259 19.4029C20.259 19.1392 20.1555 18.8863 19.971 18.6993L18.6932 17.4119ZM21.0507 7.00297C21.0661 6.17309 20.8342 5.35761 20.385 4.66181C19.9359 3.96601 19.29 3.42184 18.5308 3.09955C17.7716 2.77726 16.934 2.69165 16.126 2.85377C15.3181 3.01589 14.5769 3.41829 13.9982 4.00903L10.5017 7.56184C10.408 7.65686 10.3339 7.76953 10.2834 7.89343C10.233 8.01732 10.2073 8.15001 10.2077 8.28392C10.2082 8.41783 10.2348 8.55033 10.2861 8.67387C10.3374 8.79741 10.4123 8.90956 10.5066 9.00393C10.6009 9.09829 10.7128 9.17301 10.8357 9.22383C10.9587 9.27464 11.0904 9.30056 11.2233 9.3001C11.3562 9.29963 11.4877 9.2728 11.6104 9.22113C11.733 9.16945 11.8443 9.09395 11.9379 8.99894L15.4047 5.44612C15.8123 5.05211 16.3554 4.83211 16.9202 4.83211C17.4851 4.83211 18.0281 5.05211 18.4357 5.44612C18.6364 5.64571 18.7957 5.88346 18.9044 6.14557C19.0132 6.40769 19.0691 6.68895 19.0691 6.97304C19.0691 7.25712 19.0132 7.53838 18.9044 7.8005C18.7957 8.06261 18.6364 8.30036 18.4357 8.49995L14.9095 11.9929C14.725 12.1799 14.6214 12.4328 14.6214 12.6965C14.6214 12.9601 14.725 13.213 14.9095 13.4C15.0951 13.5859 15.3461 13.6902 15.6078 13.6902C15.8695 13.6902 16.1205 13.5859 16.3061 13.4L19.8621 9.91708C20.6202 9.139 21.0467 8.09333 21.0507 7.00297Z" fill="#0C0C1B"/>
</svg>
