<svg width="24" height="24" viewBox="0 0 24 24" fill="none" xmlns="http://www.w3.org/2000/svg">
<path d="M12.0482 15.4754L8.14204 19.3815C7.66911 19.838 7.0375 20.0931 6.38025 20.0931C5.72299 20.0931 5.09138 19.838 4.61846 19.3815C4.38651 19.1505 4.20246 18.876 4.07688 18.5736C3.9513 18.2713 3.88666 17.9471 3.88666 17.6198C3.88666 17.2924 3.9513 16.9682 4.07688 16.6659C4.20246 16.3636 4.38651 16.089 4.61846 15.858L8.5246 11.9518C8.71417 11.7622 8.82067 11.5051 8.82067 11.237C8.82067 10.9689 8.71417 10.7118 8.5246 10.5223C8.33503 10.3327 8.07791 10.2262 7.80981 10.2262C7.54172 10.2262 7.2846 10.3327 7.09503 10.5223L3.18889 14.4385C2.40198 15.295 1.97639 16.4224 2.00101 17.5853C2.02563 18.7481 2.49855 19.8565 3.321 20.679C4.14346 21.5015 5.25186 21.9744 6.41472 21.999C7.57759 22.0236 8.70501 21.598 9.56154 20.8111L13.4777 16.905C13.6673 16.7154 13.7738 16.4583 13.7738 16.1902C13.7738 15.9221 13.6673 15.665 13.4777 15.4754C13.2882 15.2858 13.0311 15.1793 12.763 15.1793C12.4949 15.1793 12.2378 15.2858 12.0482 15.4754ZM20.686 3.31401C19.8391 2.47238 18.6936 2 17.4997 2C16.3057 2 15.1602 2.47238 14.3133 3.31401L10.3971 7.22015C10.3033 7.31402 10.2288 7.42545 10.178 7.5481C10.1272 7.67074 10.1011 7.80219 10.1011 7.93493C10.1011 8.06768 10.1272 8.19913 10.178 8.32177C10.2288 8.44442 10.3033 8.55585 10.3971 8.64972C10.491 8.74358 10.6024 8.81804 10.7251 8.86884C10.8477 8.91964 10.9792 8.94579 11.1119 8.94579C11.2447 8.94579 11.3761 8.91964 11.4988 8.86884C11.6214 8.81804 11.7328 8.74358 11.8267 8.64972L15.7328 4.74357C16.2058 4.28715 16.8374 4.03207 17.4946 4.03207C18.1519 4.03207 18.7835 4.28715 19.2564 4.74357C19.4884 4.97461 19.6724 5.24917 19.798 5.5515C19.9236 5.85383 19.9882 6.17799 19.9882 6.50537C19.9882 6.83274 19.9236 7.1569 19.798 7.45923C19.6724 7.76156 19.4884 8.03612 19.2564 8.26716L15.3503 12.1733C15.2559 12.2669 15.181 12.3782 15.1299 12.5009C15.0788 12.6236 15.0525 12.7552 15.0525 12.8881C15.0525 13.021 15.0788 13.1526 15.1299 13.2753C15.181 13.3979 15.2559 13.5093 15.3503 13.6029C15.4439 13.6972 15.5552 13.7721 15.6779 13.8232C15.8006 13.8743 15.9322 13.9007 16.0651 13.9007C16.198 13.9007 16.3296 13.8743 16.4522 13.8232C16.5749 13.7721 16.6863 13.6972 16.7798 13.6029L20.686 9.68666C21.5276 8.83977 22 7.6943 22 6.50033C22 5.30637 21.5276 4.16089 20.686 3.31401ZM8.74608 15.2539C8.84015 15.3472 8.95171 15.421 9.07437 15.4711C9.19703 15.5212 9.32837 15.5466 9.46086 15.5459C9.59336 15.5466 9.7247 15.5212 9.84736 15.4711C9.97002 15.421 10.0816 15.3472 10.1756 15.2539L15.1288 10.3008C15.3184 10.1112 15.4249 9.85408 15.4249 9.58598C15.4249 9.31789 15.3184 9.06077 15.1288 8.8712C14.9392 8.68163 14.6821 8.57513 14.414 8.57513C14.1459 8.57513 13.8888 8.68163 13.6992 8.8712L8.74608 13.8244C8.65172 13.9179 8.57683 14.0293 8.52571 14.152C8.4746 14.2746 8.44829 14.4062 8.44829 14.5391C8.44829 14.672 8.4746 14.8036 8.52571 14.9263C8.57683 15.049 8.65172 15.1603 8.74608 15.2539Z" fill="#0C0C1B"/>
</svg>
