<svg width="24" height="24" viewBox="0 0 24 24" fill="none" xmlns="http://www.w3.org/2000/svg">
<path d="M20.9926 7.38486C20.9926 7.38486 20.9926 7.38486 20.9926 7.30467L20.9322 7.15431C20.9111 7.12241 20.8876 7.09224 20.8617 7.06409C20.8348 7.02166 20.8045 6.98144 20.7711 6.94381L20.6805 6.87364L20.5194 6.79345L12.9682 2.15237C12.8082 2.0528 12.6233 2 12.4346 2C12.2459 2 12.061 2.0528 11.9009 2.15237L4.41015 6.79345L4.31954 6.87364L4.22892 6.94381C4.19555 6.98144 4.16525 7.02166 4.13831 7.06409C4.11243 7.09224 4.08886 7.12241 4.06783 7.15431L4.00742 7.30467C4.00742 7.30467 4.00742 7.30467 4.00742 7.38486C3.99753 7.47145 3.99753 7.55889 4.00742 7.64548V16.4064C4.00708 16.5768 4.05035 16.7444 4.13315 16.8935C4.21594 17.0425 4.33553 17.1681 4.48063 17.2584L12.0318 21.8995C12.0783 21.9281 12.1294 21.9484 12.1829 21.9597C12.1829 21.9597 12.2332 21.9597 12.2634 21.9597C12.4337 22.0134 12.6166 22.0134 12.7869 21.9597C12.7869 21.9597 12.8373 21.9597 12.8675 21.9597C12.9209 21.9484 12.972 21.9281 13.0185 21.8995L20.5194 17.2584C20.6645 17.1681 20.7841 17.0425 20.8669 16.8935C20.9497 16.7444 20.9929 16.5768 20.9926 16.4064V7.64548C21.0025 7.55889 21.0025 7.47145 20.9926 7.38486ZM11.4579 19.2532L5.92039 15.8451V9.44979L11.4579 12.8479V19.2532ZM12.4648 11.1138L6.82654 7.64548L12.4648 4.18722L18.103 7.64548L12.4648 11.1138ZM19.0091 15.8451L13.4716 19.2532V12.8479L19.0091 9.44979V15.8451Z" fill="currentColor"/>
</svg>
