<svg width="24" height="24" viewBox="0 0 24 24" fill="none" xmlns="http://www.w3.org/2000/svg">
<path d="M21.7043 20.2851L3.71324 2.29395C3.52503 2.10574 3.26977 2 3.0036 2C2.73743 2 2.48216 2.10574 2.29395 2.29395C2.10574 2.48216 2 2.73743 2 3.0036C2 3.26977 2.10574 3.52503 2.29395 3.71324L4.0031 5.4124V18.9957C4.0031 19.7909 4.31902 20.5536 4.88135 21.116C5.44368 21.6783 6.20636 21.9942 7.00162 21.9942H16.9967C17.4605 21.9927 17.9176 21.8835 18.3321 21.6754C18.7466 21.4673 19.1072 21.1659 19.3855 20.7948L20.2851 21.7043C20.378 21.798 20.4885 21.8724 20.6103 21.9231C20.7321 21.9739 20.8628 22 20.9947 22C21.1266 22 21.2573 21.9739 21.3791 21.9231C21.5009 21.8724 21.6114 21.798 21.7043 21.7043C21.798 21.6114 21.8724 21.5009 21.9231 21.3791C21.9739 21.2573 22 21.1266 22 20.9947C22 20.8628 21.9739 20.7321 21.9231 20.6103C21.8724 20.4885 21.798 20.378 21.7043 20.2851ZM16.9967 19.9952H7.00162C6.73653 19.9952 6.48231 19.8899 6.29486 19.7024C6.10742 19.515 6.00211 19.2608 6.00211 18.9957V7.41142L17.9262 19.3355C17.857 19.5271 17.7308 19.6929 17.5647 19.8108C17.3986 19.9287 17.2004 19.9931 16.9967 19.9952ZM8.6608 4.0031H11.9991V7.00162C11.9991 7.79687 12.3151 8.55956 12.8774 9.12189C13.4397 9.68422 14.2024 10.0001 14.9977 10.0001H17.9962V13.3385C17.9962 13.6036 18.1015 13.8578 18.2889 14.0452C18.4764 14.2327 18.7306 14.338 18.9957 14.338C19.2608 14.338 19.515 14.2327 19.7024 14.0452C19.8899 13.8578 19.9952 13.6036 19.9952 13.3385V9.00063C19.9952 9.00063 19.9952 9.00063 19.9952 8.94066C19.9848 8.84884 19.9647 8.75838 19.9352 8.67079V8.58084C19.8872 8.47807 19.8231 8.3836 19.7453 8.30098L13.7483 2.30394C13.6657 2.2262 13.5712 2.16209 13.4684 2.11404H13.3785L13.0586 2.00409H8.6608C8.39571 2.00409 8.14148 2.10939 7.95404 2.29684C7.7666 2.48428 7.66129 2.73851 7.66129 3.0036C7.66129 3.26868 7.7666 3.52291 7.95404 3.71035C8.14148 3.8978 8.39571 4.0031 8.6608 4.0031ZM13.9982 5.4124L16.5869 8.00112H14.9977C14.7326 8.00112 14.4784 7.89582 14.2909 7.70838C14.1035 7.52093 13.9982 7.2667 13.9982 7.00162V5.4124Z" fill="#0C0C1B"/>
</svg>
