<svg width="24" height="24" viewBox="0 0 24 24" fill="none" xmlns="http://www.w3.org/2000/svg">
<path d="M17.7045 14.2899C17.6116 14.1961 17.5011 14.1217 17.3793 14.071C17.2576 14.0202 17.127 13.9941 16.9951 13.9941C16.8632 13.9941 16.7326 14.0202 16.6108 14.071C16.4891 14.1217 16.3786 14.1961 16.2857 14.2899L12.9984 17.5898V3.99999C12.9984 3.73477 12.8931 3.48042 12.7057 3.29289C12.5183 3.10536 12.2642 3 11.9992 3C11.7342 3 11.4801 3.10536 11.2927 3.29289C11.1053 3.48042 11 3.73477 11 3.99999V17.5898L7.71274 14.2899C7.52459 14.1016 7.26941 13.9958 7.00332 13.9958C6.73724 13.9958 6.48206 14.1016 6.29391 14.2899C6.10576 14.4782 6.00006 14.7335 6.00006 14.9998C6.00006 15.2661 6.10576 15.5215 6.29391 15.7098L11.2898 20.7098C11.3848 20.8008 11.4969 20.8722 11.6195 20.9198C11.7391 20.9727 11.8684 21 11.9992 21C12.13 21 12.2593 20.9727 12.3789 20.9198C12.5015 20.8722 12.6136 20.8008 12.7086 20.7098L17.7045 15.7098C17.7982 15.6169 17.8725 15.5063 17.9232 15.3844C17.9739 15.2626 18.0001 15.1319 18.0001 14.9998C18.0001 14.8678 17.9739 14.7371 17.9232 14.6153C17.8725 14.4934 17.7982 14.3828 17.7045 14.2899Z" fill="#0C0C1B"/>
</svg>
