<svg width="24" height="24" viewBox="0 0 24 24" fill="none" xmlns="http://www.w3.org/2000/svg">
<path d="M5 18.0012H9.24C9.37161 18.0019 9.50207 17.9767 9.62391 17.927C9.74574 17.8772 9.85656 17.8039 9.95 17.7112L16.87 10.7833L19.71 8.00406C19.8037 7.91112 19.8781 7.80055 19.9289 7.67873C19.9797 7.5569 20.0058 7.42624 20.0058 7.29426C20.0058 7.16229 19.9797 7.03162 19.9289 6.9098C19.8781 6.78797 19.8037 6.6774 19.71 6.58447L15.47 2.29571C15.377 2.20201 15.2664 2.12764 15.1446 2.07688C15.0227 2.02613 14.892 2 14.76 2C14.628 2 14.4973 2.02613 14.3754 2.07688C14.2536 2.12764 14.143 2.20201 14.05 2.29571L11.23 5.12489L4.29 12.0529C4.19732 12.1463 4.12399 12.2571 4.07423 12.3789C4.02446 12.5007 3.99924 12.6311 4 12.7627V17.0014C4 17.2666 4.10536 17.5209 4.29289 17.7084C4.48043 17.8958 4.73478 18.0012 5 18.0012ZM14.76 4.4151L17.59 7.24428L16.17 8.66387L13.34 5.83469L14.76 4.4151ZM6 13.1726L11.93 7.24428L14.76 10.0735L8.83 16.0017H6V13.1726ZM21 20.0006H3C2.73478 20.0006 2.48043 20.1059 2.29289 20.2934C2.10536 20.4809 2 20.7351 2 21.0003C2 21.2654 2.10536 21.5197 2.29289 21.7072C2.48043 21.8947 2.73478 22 3 22H21C21.2652 22 21.5196 21.8947 21.7071 21.7072C21.8946 21.5197 22 21.2654 22 21.0003C22 20.7351 21.8946 20.4809 21.7071 20.2934C21.5196 20.1059 21.2652 20.0006 21 20.0006Z" fill="#0C0C1B"/>
</svg>
