<svg width="24" height="24" viewBox="0 0 24 24" fill="none" xmlns="http://www.w3.org/2000/svg">
<path d="M2.96774 17.1935H13.1323C13.5465 18.4974 14.7542 19.4516 16.1935 19.4516C17.6329 19.4516 18.8406 18.4974 19.2548 17.1935H21.0323C21.2889 17.1935 21.5351 17.0916 21.7166 16.9101C21.898 16.7286 22 16.4825 22 16.2258C22 15.9691 21.898 15.723 21.7166 15.5415C21.5351 15.36 21.2889 15.258 21.0323 15.258H19.2548C18.8406 13.9542 17.6329 13 16.1935 13C14.7542 13 13.5465 13.9542 13.1323 15.258H2.96774C2.71108 15.258 2.46493 15.36 2.28345 15.5415C2.10196 15.723 2 15.9691 2 16.2258C2 16.4825 2.10196 16.7286 2.28345 16.9101C2.46493 17.0916 2.71108 17.1935 2.96774 17.1935ZM16.1935 14.9355C16.9052 14.9355 17.4839 15.5142 17.4839 16.2258C17.4839 16.9374 16.9052 17.5161 16.1935 17.5161C15.4819 17.5161 14.9032 16.9374 14.9032 16.2258C14.9032 15.5142 15.4819 14.9355 16.1935 14.9355Z" fill="#0C0C1B"/>
<path d="M21.0323 6.25805L10.8677 6.25805C10.4535 4.95418 9.24581 3.99998 7.80645 3.99998C6.3671 3.99998 5.15935 4.95418 4.74516 6.25805L2.96774 6.25805C2.71108 6.25805 2.46493 6.36001 2.28345 6.54149C2.10196 6.72298 2 6.96913 2 7.22579C2 7.48245 2.10196 7.7286 2.28345 7.91009C2.46493 8.09157 2.71108 8.19354 2.96774 8.19354H4.74516C5.15935 9.49741 6.3671 10.4516 7.80645 10.4516C9.24581 10.4516 10.4535 9.49741 10.8677 8.19353L21.0323 8.19353C21.2889 8.19353 21.5351 8.09157 21.7166 7.91009C21.898 7.7286 22 7.48245 22 7.22579C22 6.96913 21.898 6.72298 21.7166 6.54149C21.5351 6.36001 21.2889 6.25805 21.0323 6.25805ZM7.80645 8.51612C7.09484 8.51612 6.51613 7.9374 6.51613 7.22579C6.51613 6.51418 7.09484 5.93547 7.80645 5.93547C8.51806 5.93547 9.09678 6.51418 9.09678 7.22579C9.09678 7.9374 8.51806 8.51612 7.80645 8.51612Z" fill="#0C0C1B"/>
</svg>
