<svg width="24" height="24" viewBox="0 0 24 24" fill="none" xmlns="http://www.w3.org/2000/svg">
<path d="M10.9397 6.08207C11.2903 6.02833 11.6445 6.0016 11.9991 6.00211C15.1776 6.00211 18.1661 8.29098 19.9052 11.9991C19.6393 12.5635 19.3388 13.1109 19.0057 13.6383C18.8999 13.8021 18.8443 13.9931 18.8458 14.1881C18.848 14.4062 18.9215 14.6176 19.0551 14.79C19.1887 14.9625 19.3751 15.0865 19.5857 15.1431C19.7964 15.1997 20.0198 15.1859 20.2219 15.1037C20.4239 15.0215 20.5935 14.8754 20.7048 14.6878C21.1705 13.9561 21.575 13.1872 21.9142 12.389C21.9679 12.2642 21.9955 12.1299 21.9955 11.9941C21.9955 11.8584 21.9679 11.7241 21.9142 11.5993C19.8952 6.91166 16.0971 4.0031 11.9991 4.0031C11.53 4.00074 11.0617 4.04088 10.5998 4.12304C10.4686 4.14536 10.343 4.1933 10.2303 4.26415C10.1176 4.33499 10.0199 4.42735 9.94285 4.53594C9.86581 4.64453 9.81092 4.76723 9.78131 4.89704C9.75169 5.02684 9.74794 5.16121 9.77025 5.29246C9.79256 5.42372 9.84051 5.5493 9.91136 5.66202C9.9822 5.77475 10.0746 5.87242 10.1831 5.94945C10.2917 6.02649 10.4144 6.08138 10.5442 6.11099C10.674 6.14061 10.8084 6.14437 10.9397 6.12205V6.08207ZM3.71324 2.29395C3.62005 2.20075 3.50942 2.12683 3.38765 2.07639C3.26589 2.02596 3.13539 2 3.0036 2C2.8718 2 2.7413 2.02596 2.61954 2.07639C2.49777 2.12683 2.38714 2.20075 2.29395 2.29395C2.10574 2.48216 2 2.73743 2 3.0036C2 3.26977 2.10574 3.52503 2.29395 3.71324L5.39241 6.80172C3.97869 8.16257 2.85353 9.79422 2.08405 11.5993C2.02901 11.7254 2.00061 11.8616 2.00061 11.9991C2.00061 12.1367 2.02901 12.2728 2.08405 12.3989C4.10305 17.0866 7.90117 19.9952 11.9991 19.9952C13.7954 19.9828 15.5492 19.448 17.0466 18.456L20.2851 21.7043C20.378 21.798 20.4885 21.8724 20.6103 21.9231C20.7321 21.9739 20.8628 22 20.9947 22C21.1266 22 21.2573 21.9739 21.3791 21.9231C21.5009 21.8724 21.6114 21.798 21.7043 21.7043C21.798 21.6114 21.8724 21.5009 21.9231 21.3791C21.9739 21.2573 22 21.1266 22 20.9947C22 20.8628 21.9739 20.7321 21.9231 20.6103C21.8724 20.4885 21.798 20.378 21.7043 20.2851L3.71324 2.29395ZM10.0701 11.4794L12.5189 13.9282C12.35 13.9766 12.1749 14.0002 11.9991 13.9982C11.469 13.9982 10.9605 13.7875 10.5856 13.4127C10.2107 13.0378 10.0001 12.5293 10.0001 11.9991C9.99809 11.8234 10.0217 11.6483 10.0701 11.4794ZM11.9991 17.9962C8.82072 17.9962 5.8322 15.7073 4.10305 11.9991C4.74882 10.5736 5.66535 9.28707 6.80172 8.21102L8.57084 10.0001C8.15529 10.7586 7.99687 11.6313 8.11932 12.4874C8.24178 13.3435 8.63853 14.1368 9.25003 14.7483C9.86154 15.3598 10.6548 15.7565 11.5109 15.879C12.367 16.0014 13.2397 15.843 13.9982 15.4275L15.5874 16.9967C14.499 17.6372 13.2619 17.9818 11.9991 17.9962Z" fill="#0C0C1B"/>
</svg>
