<svg width="24" height="24" viewBox="0 0 24 24" fill="none" xmlns="http://www.w3.org/2000/svg">
<path fill-rule="evenodd" clip-rule="evenodd" d="M4.79557 2.83013C5.30898 2.30205 6.01142 2 6.75 2H12.875C13.1451 2 13.4037 2.10926 13.592 2.30292L19.717 8.60292C19.8985 8.78958 20 9.03966 20 9.3V19.2C20 19.9337 19.7169 20.6427 19.2044 21.1699C18.691 21.698 17.9886 22 17.25 22H6.75C6.01142 22 5.30898 21.698 4.79557 21.1699C4.28308 20.6427 4 19.9337 4 19.2V4.8C4 4.06634 4.28308 3.35726 4.79557 2.83013ZM6.75 4C6.56032 4 6.37252 4.07724 6.22956 4.22429C6.08566 4.37229 6 4.57888 6 4.8V19.2C6 19.4211 6.08566 19.6277 6.22956 19.7757C6.37252 19.9228 6.56032 20 6.75 20H17.25C17.4397 20 17.6275 19.9228 17.7704 19.7757C17.9143 19.6277 18 19.4211 18 19.2V10.3H12.875C12.3227 10.3 11.875 9.85228 11.875 9.3V4H6.75ZM13.875 5.46313L16.6331 8.3H13.875V5.46313Z" fill="#0C0C1B"/>
</svg>
