<svg width="24" height="24" viewBox="0 0 24 24" fill="none" xmlns="http://www.w3.org/2000/svg">
<path d="M19.2204 5.99612H12.6618C12.3967 5.99612 12.1424 6.10127 11.9549 6.28843C11.7674 6.47559 11.662 6.72944 11.662 6.99413C11.662 7.25882 11.7674 7.51267 11.9549 7.69983C12.1424 7.88699 12.3967 7.99214 12.6618 7.99214H19.2204C19.4273 7.99214 19.6256 8.07415 19.7719 8.22014C19.9181 8.36613 20.0003 8.56413 20.0003 8.77059V9.54904H16.2211C15.9559 9.54904 15.7016 9.65418 15.5141 9.84134C15.3266 10.0285 15.2213 10.2824 15.2213 10.547C15.2213 10.8117 15.3266 11.0656 15.5141 11.2527C15.7016 11.4399 15.9559 11.5451 16.2211 11.5451H18.5906L17.8907 12.2337C17.797 12.3265 17.7226 12.4368 17.6719 12.5585C17.6211 12.6801 17.595 12.8105 17.595 12.9423C17.595 13.074 17.6211 13.2045 17.6719 13.3261C17.7226 13.4477 17.797 13.5581 17.8907 13.6509C17.9837 13.7444 18.0942 13.8186 18.2161 13.8693C18.3379 13.92 18.4686 13.9461 18.6006 13.9461C18.7325 13.9461 18.8632 13.92 18.9851 13.8693C19.1069 13.8186 19.2175 13.7444 19.3104 13.6509L21.19 11.7746C21.42 11.5458 21.6034 11.2747 21.7299 10.9762V10.8764C21.8957 10.5439 21.9878 10.1797 21.9998 9.80852V8.81051C22.0038 8.44318 21.9349 8.07869 21.7971 7.73806C21.6593 7.39742 21.4554 7.08737 21.197 6.82576C20.9387 6.56416 20.631 6.35617 20.2918 6.21378C19.9525 6.07139 19.5884 5.99742 19.2204 5.99612ZM3.71373 2.29351C3.62051 2.20045 3.50984 2.12664 3.38805 2.07628C3.26625 2.02592 3.13571 2 3.00388 2C2.87205 2 2.74151 2.02592 2.61971 2.07628C2.49791 2.12664 2.38725 2.20045 2.29403 2.29351C2.10577 2.48144 2 2.73632 2 3.00209C2 3.26786 2.10577 3.52275 2.29403 3.71068L5.14342 6.54503C4.78932 6.79828 4.50108 7.13246 4.30279 7.51964C4.10451 7.90682 4.00194 8.33575 4.00367 8.77059V9.7686C4.00395 10.1475 4.08578 10.5219 4.24361 10.8664V10.9263C4.3712 11.2272 4.55434 11.5014 4.7835 11.7347L10.1923 17.1239V20.9663C10.192 21.1359 10.235 21.3028 10.3172 21.4512C10.3994 21.5996 10.5182 21.7247 10.6622 21.8146C10.8214 21.913 11.005 21.9649 11.1921 21.9643C11.3486 21.9633 11.5027 21.9257 11.642 21.8545L15.2013 20.078C15.3662 19.9951 15.5048 19.8682 15.6019 19.7114C15.6989 19.5547 15.7506 19.3741 15.7512 19.1898V17.1938L20.2602 21.7048C20.3532 21.7983 20.4637 21.8726 20.5856 21.9232C20.7074 21.9739 20.8381 22 20.9701 22C21.102 22 21.2327 21.9739 21.3546 21.9232C21.4764 21.8726 21.587 21.7983 21.6799 21.7048C21.7736 21.612 21.848 21.5016 21.8988 21.38C21.9495 21.2584 21.9756 21.128 21.9756 20.9962C21.9756 20.8645 21.9495 20.734 21.8988 20.6124C21.848 20.4908 21.7736 20.3804 21.6799 20.2876L3.71373 2.29351ZM6.00324 8.77059C6.00203 8.61395 6.04944 8.46078 6.13895 8.33211C6.22846 8.20345 6.35568 8.10561 6.50313 8.05202L6.59312 7.99214L8.15278 9.54904H6.00324V8.77059ZM14.0715 16.0461C13.9789 16.1393 13.9056 16.2499 13.8558 16.3715C13.806 16.4931 13.7808 16.6233 13.7816 16.7547V18.571L12.2219 19.3495V16.7547C12.2227 16.6233 12.1975 16.4931 12.1477 16.3715C12.0979 16.2499 12.0246 16.1393 11.932 16.0461L7.41294 11.5451H10.1524L14.3715 15.7567L14.0715 16.0461Z" fill="#0C0C1B"/>
</svg>
