<svg width="24" height="24" viewBox="0 0 24 24" fill="none" xmlns="http://www.w3.org/2000/svg">
<path d="M4 22C3.4 22 3 21.6 3 21V4C3 3.7 3.1 3.5 3.3 3.3C3.5 3.1 4.8 2 8 2C9.7 2 11.1 2.5 12.4 3.1C13.6 3.5 14.7 4 16 4C18.4 4 19.3 3.3 19.3 3.3C19.6 3 20 2.9 20.4 3.1C20.8 3.3 21 3.6 21 4V14C21 14.3 20.9 14.5 20.7 14.7C20.5 14.9 19.3 16 16 16C14.3 16 12.9 15.5 11.6 14.9C10.4 14.5 9.3 14 8 14C6.4 14 5.4 14.3 5 14.5V21C5 21.6 4.6 22 4 22ZM8 12C9.7 12 11.1 12.5 12.4 13.1C13.6 13.6 14.7 14 16 14C17.6 14 18.6 13.7 19 13.5V5.6C18.3 5.8 17.3 6 16 6C14.3 6 12.9 5.5 11.6 4.9C10.4 4.5 9.3 4 8 4C6.4 4 5.4 4.3 5 4.5V12.4C5.7 12.2 6.7 12 8 12Z" fill="#0C0C1B"/>
</svg>
