<svg width="20" height="20" viewBox="0 0 20 20" fill="none" xmlns="http://www.w3.org/2000/svg">
<rect x="-0.333252" width="26.6667" height="6.66667" fill="#3273D3"/>
<rect x="-0.333252" width="26.6667" height="6.25" fill="#3273D3"/>
<rect x="-0.333252" y="6.66669" width="26.6667" height="6.66667" fill="#F5F8FB"/>
<rect x="-0.333252" y="13.3333" width="26.6667" height="6.66667" fill="#2B9F5A"/>
<path d="M4.80728 4.87522C4.34121 4.96542 3.84011 4.83005 3.47917 4.46911C2.90163 3.89156 2.90163 2.95518 3.47917 2.37763C3.84011 2.01669 4.3412 1.88132 4.80727 1.97153C4.12338 1.50427 3.1826 1.57417 2.57556 2.18121C1.88953 2.86724 1.88953 3.97951 2.57556 4.66554C3.1826 5.27258 4.12338 5.34247 4.80728 4.87522Z" fill="#F5F8FB"/>
<rect x="-0.333252" y="6.25" width="26.6667" height="0.833333" fill="#EE3838"/>
<rect x="-0.333252" y="12.9167" width="26.6667" height="0.833333" fill="#EE3838"/>
<rect x="8.55576" y="1.66669" width="1.11111" height="1.11111" fill="#C5D0EC"/>
<rect x="10.7777" y="1.66669" width="1.11111" height="1.11111" fill="#C5D0EC"/>
<rect x="6.33334" y="3.88892" width="1.11111" height="1.11111" fill="#C5D0EC"/>
<rect x="8.55576" y="3.88892" width="1.11111" height="1.11111" fill="#C5D0EC"/>
<rect x="7.44443" y="2.77777" width="1.11111" height="1.11111" fill="#C5D0EC"/>
<rect x="9.66684" y="2.77777" width="1.11111" height="1.11111" fill="#C5D0EC"/>
<rect x="10.7777" y="3.88892" width="1.11111" height="1.11111" fill="#C5D0EC"/>
</svg>
