<svg width="20" height="20" viewBox="0 0 20 20" fill="none" xmlns="http://www.w3.org/2000/svg">
<path d="M-3 0H23V20H-3V0Z" fill="#41479B"/>
<path d="M23 17.3959L13.3854 10L23 2.60417V0H19.6146L10 7.39585L0.385415 0H-3V2.60417L6.61459 10L-3 17.3959V20H0.385462L10 12.6042L19.6145 20H23V17.3959Z" fill="white"/>
<path fill-rule="evenodd" clip-rule="evenodd" d="M-2.99987 0L-3 0.00017234V1.04167L8.64592 10.0001L-3 18.9585V20H-1.64563L10.0001 11.0417L21.6458 20H23V18.9584L11.3542 10.0001L23 1.04179V0H21.646L10.0001 8.95841L-1.64583 0H-2.99987Z" fill="#EE3838"/>
<path fill-rule="evenodd" clip-rule="evenodd" d="M6.75 6.66667V0H13.25V6.66667H23V13.3333H13.25V20H6.75V13.3333H-3V6.66667H6.75Z" fill="white"/>
<path fill-rule="evenodd" clip-rule="evenodd" d="M8.375 8.33333V0H11.625V8.33333H23V11.6667H11.625V20H8.375V11.6667H-3V8.33333H8.375Z" fill="#EE3838"/>
</svg>
