<svg width="24" height="24" viewBox="0 0 24 24" fill="none" xmlns="http://www.w3.org/2000/svg">
<path d="M13.0653 10.7318L16.3307 7.67074L5.98933 2.31976C5.58475 2.109 5.12932 1.99891 4.66646 2.00001C4.20361 2.0011 3.74878 2.11334 3.34533 2.32601L13.0653 10.7318ZM2.37333 3.18597C2.136 3.5497 2 3.96593 2 4.40716V19.5889C2 20.0163 2.124 20.4238 2.348 20.7801L12.1227 11.6168L2.37333 3.18597ZM20.66 9.91062L17.5453 8.29946L14.0453 11.5793L18.3347 15.2878L20.6613 14.0842C21.4987 13.6492 22 12.8692 22 11.9968C21.9992 11.5679 21.8741 11.1472 21.6381 10.7798C21.4021 10.4124 21.064 10.1119 20.66 9.91062ZM13.1027 12.4642L3.30133 21.6525C3.7151 21.8775 4.18435 21.9973 4.66267 22C5.116 22 5.572 21.8925 5.98933 21.6763L17.1053 15.9253L13.1027 12.4642Z" fill="#0C0C1B"/>
</svg>
