<svg width="40" height="40" viewBox="0 0 40 40" fill="none" xmlns="http://www.w3.org/2000/svg">
<path d="M39.2071 6.79617C39.178 4.47016 38.4511 2.14414 36.4158 0.864837C34.4387 -0.385395 31.7929 -0.385395 30.2228 1.56264C30.1065 1.70802 29.8158 1.96969 29.903 2.20229C29.9902 2.4349 30.4845 2.37674 30.688 2.49304C31.0369 2.6675 31.1823 3.0164 31.1823 3.39438C31.1823 3.8305 31.1532 8.0464 31.1532 13.8614C26.036 13.8324 20.9188 13.8033 15.8016 13.7742C15.7143 12.4949 15.6562 11.0702 15.7725 9.52923C15.8597 8.10455 16.0342 6.67987 16.3249 5.28426C16.4412 4.67368 16.5866 4.0631 16.761 3.45252C16.9355 2.7838 17.4298 1.96969 17.3716 1.27189C17.3716 1.18466 17.3425 1.06836 17.2844 1.01021C17.139 0.83576 16.8773 0.864836 16.6738 0.922986C15.3654 1.27189 14.1152 1.94062 13.0976 2.84195C12.7777 3.1327 11.9636 3.88865 11.2368 5.22611C9.25964 8.74421 9.11426 13.7451 9.11426 13.7451C9.02704 16.9725 8.88166 23.5144 12.3416 30.318C12.3416 30.318 14.7548 35.0863 18.2148 36.2493C18.8835 36.4819 19.087 36.3365 19.1452 36.2493C19.4069 35.9004 18.8254 35.3189 18.68 35.0572C18.3602 34.563 18.0985 34.0687 17.8659 33.5162C17.4007 32.4114 17.0809 31.2484 16.8483 30.0854C16.1214 26.5091 15.6562 22.9038 15.7725 19.2694H31.2695C31.2695 23.8342 31.2695 28.399 31.2695 32.9347C31.2695 33.8361 31.6475 34.7083 32.4616 35.1444C32.9559 35.4061 33.5374 35.4934 34.0898 35.5515C35.0784 35.6678 36.0669 35.755 37.0555 35.5515C37.637 35.4352 38.1894 35.2317 38.6255 34.8537C39.3234 34.214 39.3234 33.3709 39.3234 32.4986C39.3234 25.6369 39.3815 18.7751 39.3815 11.8843C39.2361 10.198 39.2361 8.5116 39.2071 6.79617Z" fill="url(#paint0_linear_5_798)"/>
<path d="M17.9821 37.9648C11.731 36.133 9.28867 29.5039 7.95121 23.7761C7.66046 22.5258 7.36971 21.3047 7.22433 19.9963C6.73006 16.1293 6.75913 11.8843 8.00936 8.16272C7.04988 8.36625 6.61376 9.20943 6.06133 9.87816C4.02607 12.3205 3.85162 15.1408 3.76439 17.9901C3.53179 24.6193 5.94503 29.3294 6.49745 30.3471C7.71861 32.6149 9.02699 34.1268 9.43405 34.563C10.8297 36.104 12.2253 37.1797 13.301 37.8775C12.4579 37.674 11.2367 37.267 9.9574 36.4819C8.76532 35.755 7.92214 34.9409 7.36971 34.3013C6.55561 33.2837 6.00318 32.3533 5.6252 31.7136C4.63664 29.9982 3.38641 27.8466 2.74676 24.9682C2.57231 24.1541 2.45601 23.34 2.13618 23.3109C1.67098 23.2527 1.14763 24.91 1.0604 25.2589C0.711499 26.3928 0.595198 27.4396 0.624273 28.0211C0.653348 30.2017 2.28156 34.4176 6.17763 37.296C6.17763 37.296 9.57942 39.7965 15.3945 40C15.6271 40 17.0517 39.9709 18.0984 39.215C18.5636 38.8079 18.8835 38.2264 17.9821 37.9648Z" fill="url(#paint1_linear_5_798)"/>
<path d="M8.00942 8.13367L7.98035 8.16274H8.00942V8.13367Z" fill="url(#paint2_linear_5_798)"/>
<path d="M8.00946 8.13361V8.16269L8.09669 8.04639L8.00946 8.13361Z" fill="url(#paint3_linear_5_798)"/>
<defs>
<linearGradient id="paint0_linear_5_798" x1="31.7938" y1="22.1598" x2="6.97607" y2="3.37897" gradientUnits="userSpaceOnUse">
<stop offset="0.329" stop-color="#9C8837"/>
<stop offset="0.5606" stop-color="#F7E59E"/>
<stop offset="0.6012" stop-color="#EFDD95"/>
<stop offset="0.6639" stop-color="#DDCA81"/>
<stop offset="0.7405" stop-color="#C4B062"/>
<stop offset="0.7875" stop-color="#B39F4D"/>
</linearGradient>
<linearGradient id="paint1_linear_5_798" x1="22.5234" y1="34.4097" x2="-2.29429" y2="15.6289" gradientUnits="userSpaceOnUse">
<stop offset="0.329" stop-color="#9C8837"/>
<stop offset="0.5606" stop-color="#F7E59E"/>
<stop offset="0.6012" stop-color="#EFDD95"/>
<stop offset="0.6639" stop-color="#DDCA81"/>
<stop offset="0.7405" stop-color="#C4B062"/>
<stop offset="0.7875" stop-color="#B39F4D"/>
</linearGradient>
<linearGradient id="paint2_linear_5_798" x1="29.8678" y1="24.7044" x2="5.05123" y2="5.92242" gradientUnits="userSpaceOnUse">
<stop offset="0.329" stop-color="#9C8837"/>
<stop offset="0.5606" stop-color="#F7E59E"/>
<stop offset="0.6012" stop-color="#EFDD95"/>
<stop offset="0.6639" stop-color="#DDCA81"/>
<stop offset="0.7405" stop-color="#C4B062"/>
<stop offset="0.7875" stop-color="#B39F4D"/>
</linearGradient>
<linearGradient id="paint3_linear_5_798" x1="29.9093" y1="24.6497" x2="5.09165" y2="5.86885" gradientUnits="userSpaceOnUse">
<stop offset="0.329" stop-color="#9C8837"/>
<stop offset="0.5606" stop-color="#F7E59E"/>
<stop offset="0.6012" stop-color="#EFDD95"/>
<stop offset="0.6639" stop-color="#DDCA81"/>
<stop offset="0.7405" stop-color="#C4B062"/>
<stop offset="0.7875" stop-color="#B39F4D"/>
</linearGradient>
</defs>
</svg>
