<svg width="40" height="40" viewBox="0 0 40 40" fill="none" xmlns="http://www.w3.org/2000/svg">
<path d="M40 7.96834V32.0317C40 36.4335 36.4316 40 32.0317 40H7.96834C3.5684 40 0 36.4316 0 32.0317V7.96834C0 3.5684 3.5684 0 7.96834 0H32.0317C36.4316 0 40 3.5684 40 7.96834Z" fill="url(#paint0_linear_5_817)"/>
<path d="M33.4468 28.8504C35.0647 28.8504 36.3763 27.5388 36.3763 25.9209C36.3763 24.303 35.0647 22.9915 33.4468 22.9915C31.8289 22.9915 30.5173 24.303 30.5173 25.9209C30.5173 27.5388 31.8289 28.8504 33.4468 28.8504Z" fill="white"/>
<path d="M4.23792 32.1957C5.03634 32.1957 5.68359 31.5484 5.68359 30.75C5.68359 29.9516 5.03634 29.3043 4.23792 29.3043C3.4395 29.3043 2.79225 29.9516 2.79225 30.75C2.79225 31.5484 3.4395 32.1957 4.23792 32.1957Z" fill="#D64412"/>
<path d="M8.02175 33.4087C8.82017 33.4087 9.46742 32.7614 9.46742 31.963C9.46742 31.1646 8.82017 30.5173 8.02175 30.5173C7.22333 30.5173 6.57608 31.1646 6.57608 31.963C6.57608 32.7614 7.22333 33.4087 8.02175 33.4087Z" fill="#D64412"/>
<path d="M5.11326 35.6401C5.91168 35.6401 6.55892 34.9929 6.55892 34.1944C6.55892 33.396 5.91168 32.7488 5.11326 32.7488C4.31484 32.7488 3.66759 33.396 3.66759 34.1944C3.66759 34.9929 4.31484 35.6401 5.11326 35.6401Z" fill="#D64412"/>
<path d="M8.37832 37.1125C9.17674 37.1125 9.82399 36.4653 9.82399 35.6669C9.82399 34.8684 9.17674 34.2212 8.37832 34.2212C7.5799 34.2212 6.93265 34.8684 6.93265 35.6669C6.93265 36.4653 7.5799 37.1125 8.37832 37.1125Z" fill="#D64412"/>
<path fill-rule="evenodd" clip-rule="evenodd" d="M36.4965 11.6855C35.377 11.2106 34.1449 10.9474 32.8537 10.9474H7.76241L26.8231 1.65163C28.9573 0.610293 31.5282 1.49715 32.5695 3.62941L36.4965 11.6855Z" fill="#8AC43E"/>
<path fill-rule="evenodd" clip-rule="evenodd" d="M37.2956 12.0688C37.0362 11.9277 36.7692 11.7999 36.4965 11.6835C35.377 11.2086 34.1449 10.9454 32.8537 10.9454H7.7567L31.1334 5.117C33.4354 4.54293 35.768 5.94282 36.342 8.24673L37.2956 12.0688Z" fill="#209245"/>
<path d="M39.9999 14.1897V18.5763C39.2446 15.3302 36.3285 12.9024 32.8555 12.9024H6.33185C5.77113 12.9024 5.31531 12.4484 5.31531 11.8858C5.31531 11.3232 5.76922 10.8693 6.33185 10.8693H32.8555C35.7163 10.8693 38.2815 12.1585 39.9999 14.1897Z" fill="white"/>
<defs>
<linearGradient id="paint0_linear_5_817" x1="2.33397" y1="37.6658" x2="37.6658" y2="2.33398" gradientUnits="userSpaceOnUse">
<stop stop-color="#E63C06"/>
<stop offset="1" stop-color="#F7BE4C"/>
</linearGradient>
</defs>
</svg>
