<svg width="24" height="24" viewBox="0 0 24 24" fill="none" xmlns="http://www.w3.org/2000/svg">
<path d="M16.6353 2.05665C18.2819 2.18899 19.8279 2.92039 20.9943 4.11873C22.2789 5.4433 23 7.23495 23 9.10247C23 10.97 22.2789 12.7617 20.9943 14.0862L14.1615 21.0995C13.5894 21.6766 12.8188 22 12.016 22C11.2132 22 10.4426 21.6766 9.87045 21.0995L3.03771 14.0862C1.7997 12.8264 1.07347 11.1326 1.00528 9.34604C0.937082 7.55945 1.53199 5.81275 2.67019 4.45766C3.80839 3.10257 5.40535 2.23976 7.13947 2.04297C8.87359 1.84618 10.6161 2.33004 12.016 3.39711C13.3504 2.39976 14.9888 1.92431 16.6353 2.05665Z"/>
</svg>
