<svg width="24" height="24" viewBox="0 0 24 24" fill="none" xmlns="http://www.w3.org/2000/svg">
<path d="M12 22C11.7 22 11.5 21.9 11.3 21.7L2.8 13C1.6 11.8 1 10.1 1 8.39998C1 6.69998 1.6 5.09998 2.8 3.89998C4 2.69998 5.6 1.99998 7.3 1.99998C9 1.99998 10.6 2.69998 11.7 3.89998L12 4.19998L12.3 3.89998C12.9 3.29998 13.6 2.79998 14.3 2.49998C15.8 1.79998 17.6 1.79998 19.1 2.49998C19.9 2.79998 20.5 3.29998 21.1 3.89998C21.7 4.49998 22.1 5.19998 22.5 5.99998C22.8 6.79998 23 7.59998 23 8.39998C23 9.19998 22.8 10.1 22.5 10.9C22.2 11.7 21.7 12.4 21.1 13L12.6 21.7C12.5 21.9 12.3 22 12 22ZM7.3 3.99998C6.2 3.99998 5.1 4.49998 4.3 5.29998C3.5 6.09998 3 7.29998 3 8.39998C3 9.59998 3.5 10.7 4.3 11.5L12 19.5L19.7 11.5C20.1 11.1 20.4 10.6 20.6 10.1C20.9 9.59998 21 8.99998 21 8.39998C21 7.79998 20.9 7.19998 20.7 6.69998C20.5 6.19998 20.2 5.69998 19.8 5.29998C19.4 4.89998 18.9 4.59998 18.4 4.29998C17.4 3.89998 16.2 3.89998 15.2 4.29998C14.7 4.49998 14.2 4.79998 13.8 5.29998L12.8 6.29998C12.4 6.69998 11.7 6.69998 11.4 6.29998L10.4 5.29998C9.5 4.49998 8.4 3.99998 7.3 3.99998Z"/>
</svg>
