<svg width="24" height="24" viewBox="0 0 24 24" fill="none" xmlns="http://www.w3.org/2000/svg">
<path fill-rule="evenodd" clip-rule="evenodd" d="M13.7934 4.39828C14.4258 4.13536 15.1039 4 15.7887 4C16.4735 4 17.1516 4.13536 17.7841 4.39828C18.4164 4.66112 18.9907 5.04627 19.4743 5.53156C19.9582 6.01677 20.3419 6.5927 20.6036 7.22636C20.8653 7.86001 21 8.53908 21 9.22479C21 9.91049 20.8653 10.5896 20.6036 11.2232C20.3419 11.8568 19.9583 12.4327 19.4745 12.9178L12.708 19.706C12.5204 19.8942 12.2656 20 11.9998 20C11.734 20 11.4792 19.8942 11.2916 19.706L4.5251 12.9178C3.54823 11.9378 3 10.6093 3 9.22479C3 7.84023 3.54823 6.51173 4.5251 5.53173C5.50209 4.55161 6.82784 4.00041 8.21089 4.00041C9.59393 4.00041 10.9197 4.55161 11.8967 5.53173L11.9998 5.63518L12.1028 5.53189C12.5864 5.04652 13.1609 4.66115 13.7934 4.39828Z" fill="#0C0C1B"/>
</svg>
