<svg width="24" height="24" viewBox="0 0 24 24" fill="none" xmlns="http://www.w3.org/2000/svg">
<path d="M11.4273 19.7603C11.5909 19.9201 11.7545 20 12 20C12.2455 20 12.4091 19.9201 12.4909 19.7603L19.4455 12.809C19.9364 12.3296 20.3455 11.7703 20.5909 11.1311C20.8364 10.4919 21 9.77278 21 9.13358C21 8.49438 20.8364 7.85518 20.5909 7.21598C20.2636 6.57678 19.9364 6.01748 19.4455 5.53808C18.9545 5.05868 18.4636 4.65918 17.8091 4.41948C16.5818 3.86017 15.1091 3.86017 13.8818 4.41948C13.3091 4.65918 12.7364 5.05868 12.2455 5.53808L12 5.77778L11.7545 5.53808C10.8545 4.57928 9.54545 4.01998 8.15455 4.01998C6.76364 4.01998 5.45455 4.57928 4.47273 5.53808C3.49091 6.49688 3 7.77528 3 9.13358C3 10.4919 3.49091 11.8502 4.47273 12.809L11.4273 19.7603Z" fill="#0C0C1B"/>
</svg>
