<svg width="24" height="24" viewBox="0 0 24 24" fill="none" xmlns="http://www.w3.org/2000/svg">
<path d="M21.6625 10.2493L12.6602 2.24875C12.4776 2.08842 12.243 2 12 2C11.757 2 11.5224 2.08842 11.3398 2.24875L2.33752 10.2493C2.18452 10.3846 2.07662 10.5635 2.02834 10.7619C1.98006 10.9604 1.99371 11.1689 2.06745 11.3593C2.13999 11.5473 2.26761 11.7089 2.43359 11.8231C2.59958 11.9373 2.7962 11.9988 2.99769 11.9994H3.99795V20.9999C3.99795 21.2652 4.10333 21.5195 4.29091 21.7071C4.4785 21.8946 4.73292 22 4.9982 22H19.0018C19.2671 22 19.5215 21.8946 19.7091 21.7071C19.8967 21.5195 20.0021 21.2652 20.0021 20.9999V11.9994H21.0023C21.2038 11.9988 21.4004 11.9373 21.5664 11.8231C21.7324 11.7089 21.86 11.5473 21.9325 11.3593C22.0063 11.1689 22.0199 10.9604 21.9717 10.7619C21.9234 10.5635 21.8155 10.3846 21.6625 10.2493ZM13.0003 19.9999H10.9997V16.9997C10.9997 16.7345 11.1051 16.4801 11.2927 16.2925C11.4803 16.105 11.7347 15.9996 12 15.9996C12.2653 15.9996 12.5197 16.105 12.7073 16.2925C12.8949 16.4801 13.0003 16.7345 13.0003 16.9997V19.9999ZM18.0015 19.9999H15.0008V16.9997C15.0008 16.204 14.6846 15.4409 14.1219 14.8782C13.5591 14.3156 12.7959 13.9995 12 13.9995C11.2041 13.9995 10.4409 14.3156 9.87813 14.8782C9.31538 15.4409 8.99923 16.204 8.99923 16.9997V19.9999H5.99846V11.9994H18.0015V19.9999ZM5.62836 9.99924L12 4.33888L18.3716 9.99924H5.62836Z" fill="#0C0C1B"/>
</svg>
