<svg width="24" height="24" viewBox="0 0 24 24" fill="none" xmlns="http://www.w3.org/2000/svg">
<path d="M21.7239 20.3033L20.7934 19.3729L20.7034 19.2728L20.6433 19.2028L20.1431 18.7025L20.013 18.6325L14.8304 13.4299L14.7404 13.3498L11.5388 10.1382L11.4388 10.0081L3.71494 2.29424C3.62166 2.20095 3.51091 2.12696 3.38903 2.07647C3.26715 2.02598 3.13651 2 3.00459 2C2.87266 2 2.74203 2.02598 2.62015 2.07647C2.49827 2.12696 2.38752 2.20095 2.29424 2.29424C2.10584 2.48264 2 2.73816 2 3.0046C2 3.27104 2.10584 3.52656 2.29424 3.71496L3.29473 4.71546C3.10324 5.11875 3.00412 5.55968 3.00459 6.00612V18.0122C3.00459 18.8082 3.32082 19.5717 3.8837 20.1346C4.44659 20.6975 5.21003 21.0137 6.00608 21.0137H18.012C18.4537 21.0084 18.8882 20.9023 19.2827 20.7035C19.2827 20.7035 19.2827 20.7035 19.3327 20.7035L20.2831 21.7041C20.3762 21.7978 20.4868 21.8723 20.6087 21.9231C20.7307 21.9739 20.8614 22 20.9935 22C21.1256 22 21.2563 21.9739 21.3783 21.9231C21.5002 21.8723 21.6108 21.7978 21.7039 21.7041C21.8899 21.5197 21.9962 21.2697 21.9999 21.0078C22.0036 20.7459 21.9045 20.493 21.7239 20.3033ZM5.00558 6.41632L8.24719 9.65796C8.00158 9.7846 7.77576 9.94638 7.57685 10.1382L5.00558 12.7195V6.41632ZM6.00608 19.0127C5.74073 19.0127 5.48625 18.9073 5.29862 18.7197C5.11099 18.532 5.00558 18.2775 5.00558 18.0122V15.5509L9.00756 11.5489C9.15733 11.4104 9.35383 11.3335 9.55784 11.3335C9.76184 11.3335 9.95834 11.4104 10.1081 11.5489L17.6018 19.0127H6.00608ZM9.66789 5.00561H18.012C18.2774 5.00561 18.5319 5.11102 18.7195 5.29865C18.9071 5.48628 19.0125 5.74077 19.0125 6.00612V11.9491C18.9192 11.8558 18.8085 11.7818 18.6866 11.7314C18.5647 11.6809 18.4341 11.6549 18.3022 11.6549C18.1702 11.6549 18.0396 11.6809 17.9177 11.7314C17.7958 11.7818 17.6851 11.8558 17.5918 11.9491C17.4985 12.0424 17.4245 12.1532 17.374 12.275C17.3236 12.3969 17.2976 12.5276 17.2976 12.6595C17.2976 12.7914 17.3236 12.922 17.374 13.0439C17.4245 13.1658 17.4985 13.2766 17.5918 13.3698L19.3327 15.1107C19.4257 15.2045 19.5363 15.2789 19.6583 15.3297C19.7802 15.3805 19.911 15.4067 20.043 15.4067C20.1751 15.4067 20.3059 15.3805 20.4278 15.3297C20.5497 15.2789 20.6604 15.2045 20.7534 15.1107C20.8473 15.016 20.9214 14.9035 20.9712 14.7798C21.021 14.6561 21.0456 14.5237 21.0435 14.3904V6.00612C21.0435 5.21007 20.7273 4.44662 20.1644 3.88372C19.6015 3.32083 18.8381 3.0046 18.042 3.0046H9.66789C9.40254 3.0046 9.14806 3.11001 8.96043 3.29764C8.7728 3.48527 8.66739 3.73975 8.66739 4.00511C8.66739 4.27046 8.7728 4.52494 8.96043 4.71257C9.14806 4.9002 9.40254 5.00561 9.66789 5.00561Z" fill="#0C0C1B"/>
</svg>
