<svg width="24" height="24" viewBox="0 0 24 24" fill="none" xmlns="http://www.w3.org/2000/svg">
<path d="M20.078 4.0031H10.539C10.2727 4.0031 10.0173 4.10841 9.82901 4.29585C9.64071 4.48329 9.53492 4.73752 9.53492 5.00261C9.53492 5.26769 9.64071 5.52192 9.82901 5.70936C10.0173 5.89681 10.2727 6.00211 10.539 6.00211H20.078C20.3444 6.00211 20.5998 6.10742 20.7881 6.29486C20.9764 6.48231 21.0822 6.73653 21.0822 7.00162V13.7583L19.1944 11.8792C18.8717 11.5596 18.4803 11.317 18.0497 11.1696C17.9245 11.1276 17.7921 11.1105 17.6602 11.1194C17.5284 11.1284 17.3995 11.163 17.2811 11.2215C17.1627 11.28 17.057 11.3611 16.9701 11.4602C16.8832 11.5594 16.8167 11.6746 16.7745 11.7992C16.7323 11.9239 16.7152 12.0557 16.7242 12.187C16.7331 12.3182 16.768 12.4465 16.8267 12.5643C16.8855 12.6822 16.967 12.7874 17.0665 12.8739C17.1661 12.9605 17.2819 13.0266 17.4071 13.0686C17.5459 13.1121 17.6706 13.1914 17.7686 13.2985L21.0922 16.5869C21.0865 16.6367 21.0865 16.687 21.0922 16.7368C21.0877 16.7867 21.0877 16.8369 21.0922 16.8867C21.1299 16.9507 21.1736 17.0109 21.2227 17.0666C21.2472 17.1075 21.2777 17.1446 21.3131 17.1766C21.3733 17.2321 21.4409 17.2792 21.5139 17.3165C21.5485 17.3403 21.5856 17.3604 21.6244 17.3765C21.7412 17.4288 21.8678 17.456 21.9959 17.4564C22.2622 17.4564 22.5176 17.3511 22.7059 17.1637C22.8942 16.9763 23 16.722 23 16.4569V7.00162C23.0004 6.22171 22.6954 5.47234 22.1499 4.91253C21.6044 4.35271 20.8612 4.0265 20.078 4.0031ZM3.72113 2.29395C3.53206 2.10574 3.27561 2 3.00822 2C2.74082 2 2.48438 2.10574 2.2953 2.29395C2.10622 2.48216 2 2.73743 2 3.0036C2 3.26977 2.10622 3.52503 2.2953 3.71324L3.69101 5.10256C3.24993 5.6381 3.00868 6.30911 3.00822 7.00162V16.9967C3.00822 17.7919 3.32559 18.5546 3.89051 19.1169C4.45543 19.6793 5.22162 19.9952 6.02054 19.9952H18.6623L20.3692 21.7043C20.4626 21.798 20.5736 21.8724 20.696 21.9231C20.8184 21.9739 20.9496 22 21.0822 22C21.2147 22 21.346 21.9739 21.4683 21.9231C21.5907 21.8724 21.7017 21.798 21.7951 21.7043C21.8892 21.6114 21.9639 21.5009 22.0149 21.3791C22.0658 21.2573 22.0921 21.1266 22.0921 20.9947C22.0921 20.8628 22.0658 20.7321 22.0149 20.6103C21.9639 20.4885 21.8892 20.378 21.7951 20.2851L3.72113 2.29395ZM5.01643 7.00162C5.01888 6.84095 5.06022 6.68323 5.13692 6.54185L7.8681 9.25051C7.49476 9.39205 7.15343 9.6061 6.86399 9.8802L5.01643 11.7593V7.00162ZM6.02054 17.9962C5.75423 17.9962 5.49883 17.8909 5.31053 17.7034C5.12222 17.516 5.01643 17.2618 5.01643 16.9967V14.5779L8.32999 11.2895C8.51768 11.1064 8.77003 11.0038 9.03286 11.0038C9.29569 11.0038 9.54804 11.1064 9.73574 11.2895L16.4733 17.9962H6.02054Z" fill="#0C0C1B"/>
</svg>
