<svg width="24" height="24" viewBox="0 0 24 24" fill="none" xmlns="http://www.w3.org/2000/svg">
<path d="M21.6786 6.53237L20.2612 5.1229L21.6786 3.71344C21.8666 3.52521 21.9722 3.26991 21.9722 3.00371C21.9722 2.73751 21.8666 2.48221 21.6786 2.29398C21.4907 2.10575 21.2357 2 20.9699 2C20.7041 2 20.4491 2.10575 20.2612 2.29398L9.7398 12.83C8.70767 12.1481 7.45951 11.8741 6.23717 12.0612C5.01484 12.2482 3.90536 12.883 3.12371 13.8424C2.34206 14.8019 1.9439 16.0178 2.00638 17.2544C2.06886 18.4911 2.58752 19.6605 3.46188 20.5361C4.33624 21.4117 5.50403 21.931 6.73897 21.9936C7.97392 22.0562 9.18809 21.6575 10.1462 20.8747C11.1044 20.092 11.7382 18.981 11.925 17.7569C12.1118 16.5329 11.8382 15.283 11.1573 14.2494L16.0286 9.36129L17.4362 10.7808C17.5294 10.8734 17.64 10.9467 17.7617 10.9964C17.8833 11.0462 18.0135 11.0714 18.1449 11.0706C18.2763 11.0714 18.4065 11.0462 18.5281 10.9964C18.6497 10.9467 18.7604 10.8734 18.8536 10.7808C18.9472 10.6878 19.0215 10.5773 19.0721 10.4555C19.1228 10.3336 19.1489 10.203 19.1489 10.071C19.1489 9.93906 19.1228 9.80841 19.0721 9.68659C19.0215 9.56478 18.9472 9.45422 18.8536 9.36129L17.4362 8.00181L18.8536 6.58235L20.2612 8.00181C20.3544 8.09446 20.465 8.16775 20.5867 8.2175C20.7083 8.26724 20.8385 8.29246 20.9699 8.2917C21.1013 8.29246 21.2315 8.26724 21.3531 8.2175C21.4747 8.16775 21.5854 8.09446 21.6786 8.00181C21.78 7.9082 21.8608 7.79459 21.9161 7.66814C21.9714 7.54169 22 7.40514 22 7.26709C22 7.12904 21.9714 6.99249 21.9161 6.86603C21.8608 6.73958 21.78 6.62598 21.6786 6.53237ZM6.99466 19.9972C6.40237 19.9972 5.82337 19.8214 5.3309 19.4918C4.83843 19.1623 4.45459 18.694 4.22793 18.146C4.00127 17.598 3.94196 16.9951 4.05751 16.4133C4.17306 15.8316 4.45828 15.2973 4.87709 14.8779C5.29591 14.4585 5.82951 14.1729 6.41043 14.0571C6.99134 13.9414 7.59347 14.0008 8.14068 14.2278C8.68789 14.4548 9.1556 14.8392 9.48466 15.3323C9.81372 15.8255 9.98935 16.4053 9.98935 16.9984C9.98935 17.7937 9.67384 18.5565 9.11223 19.1189C8.55062 19.6813 7.7889 19.9972 6.99466 19.9972Z" fill="#0C0C1B"/>
</svg>
