<svg width="24" height="24" viewBox="0 0 24 24" fill="none" xmlns="http://www.w3.org/2000/svg">
<path d="M7.49999 6.00002C7.20331 6.00002 6.9133 6.08799 6.66663 6.25281C6.41996 6.41763 6.2277 6.6519 6.11417 6.92599C6.00064 7.20008 5.97093 7.50168 6.02881 7.79265C6.08669 8.08362 6.22955 8.3509 6.43933 8.56068C6.6491 8.77046 6.91638 8.91332 7.20735 8.97119C7.49832 9.02907 7.79992 8.99937 8.07401 8.88584C8.3481 8.7723 8.58237 8.58005 8.74719 8.33337C8.91201 8.0867 8.99999 7.79669 8.99999 7.50002C8.99999 7.10219 8.84195 6.72066 8.56065 6.43936C8.27934 6.15805 7.89781 6.00002 7.49999 6.00002ZM21.12 10.71L12.71 2.29002C12.6165 2.19734 12.5057 2.12401 12.3839 2.07425C12.2621 2.02448 12.1316 1.99926 12 2.00002H2.99999C2.73477 2.00002 2.48042 2.10537 2.29288 2.29291C2.10534 2.48045 1.99999 2.7348 1.99999 3.00002V12C1.99923 12.1316 2.02445 12.2621 2.07421 12.3839C2.12398 12.5058 2.1973 12.6166 2.28999 12.71L10.71 21.12C11.2725 21.6818 12.035 21.9974 12.83 21.9974C13.625 21.9974 14.3875 21.6818 14.95 21.12L21.12 15C21.6818 14.4375 21.9973 13.675 21.9973 12.88C21.9973 12.085 21.6818 11.3225 21.12 10.76V10.71ZM19.71 13.53L13.53 19.7C13.3426 19.8863 13.0892 19.9908 12.825 19.9908C12.5608 19.9908 12.3073 19.8863 12.12 19.7L3.99999 11.59V4.00002H11.59L19.71 12.12C19.8027 12.2135 19.876 12.3243 19.9258 12.4461C19.9755 12.5679 20.0007 12.6984 20 12.83C19.9989 13.0924 19.8947 13.3438 19.71 13.53Z" fill="#0C0C1B"/>
</svg>
