<svg width="24" height="24" viewBox="0 0 24 24" fill="none" xmlns="http://www.w3.org/2000/svg">
<path d="M2.50447 11.0607L11.5002 16.2582C11.6522 16.346 11.8245 16.3922 12 16.3922C12.1755 16.3922 12.3478 16.346 12.4998 16.2582L21.4955 11.0607C21.647 10.9728 21.7727 10.8467 21.8601 10.695C21.9475 10.5432 21.9935 10.3712 21.9935 10.1961C21.9935 10.021 21.9475 9.84893 21.8601 9.6972C21.7727 9.54546 21.647 9.41935 21.4955 9.33148L12.4998 4.13391C12.3478 4.04618 12.1755 4 12 4C11.8245 4 11.6522 4.04618 11.5002 4.13391L2.50447 9.33148C2.35301 9.41935 2.22728 9.54546 2.13988 9.6972C2.05248 9.84893 2.00648 10.021 2.00648 10.1961C2.00648 10.3712 2.05248 10.5432 2.13988 10.695C2.22728 10.8467 2.35301 10.9728 2.50447 11.0607ZM12 6.15297L18.9967 10.1511L12 14.1992L5.0033 10.1911L12 6.15297ZM20.496 13.9393L12 18.847L3.504 13.9393C3.39052 13.8728 3.26502 13.8294 3.13471 13.8115C3.00441 13.7936 2.87184 13.8016 2.74463 13.835C2.61742 13.8684 2.49805 13.9266 2.39338 14.0063C2.2887 14.0859 2.20078 14.1855 2.13465 14.2992C2.06856 14.4132 2.02569 14.5393 2.00852 14.67C1.99134 14.8007 2.0002 14.9335 2.03457 15.0608C2.06895 15.1881 2.12816 15.3073 2.20881 15.4116C2.28946 15.5159 2.38994 15.6032 2.50447 15.6685L11.5002 20.8661C11.6522 20.9538 11.8245 21 12 21C12.1755 21 12.3478 20.9538 12.4998 20.8661L21.4955 15.6685C21.6101 15.6032 21.7105 15.5159 21.7912 15.4116C21.8718 15.3073 21.9311 15.1881 21.9654 15.0608C21.9998 14.9335 22.0087 14.8007 21.9915 14.67C21.9743 14.5393 21.9314 14.4132 21.8654 14.2992C21.7992 14.1855 21.7113 14.0859 21.6066 14.0063C21.502 13.9266 21.3826 13.8684 21.2554 13.835C21.1282 13.8016 20.9956 13.7936 20.8653 13.8115C20.735 13.8294 20.6095 13.8728 20.496 13.9393Z" fill="#0C0C1B"/>
</svg>
