<svg width="24" height="24" viewBox="0 0 24 24" fill="none" xmlns="http://www.w3.org/2000/svg">
<path d="M9.71015 17.7044C9.80387 17.6116 9.87827 17.501 9.92903 17.3793C9.9798 17.2575 10.0059 17.1269 10.0059 16.995C10.0059 16.8631 9.9798 16.7325 9.92903 16.6108C9.87827 16.489 9.80387 16.3785 9.71015 16.2856L6.41019 12.9983L20 12.9983C20.2652 12.9983 20.5196 12.8931 20.7071 12.7057C20.8946 12.5183 21 12.2641 21 11.9991C21 11.7341 20.8946 11.48 20.7071 11.2926C20.5196 11.1052 20.2652 11 20 11L6.41019 11L9.71015 7.71268C9.89845 7.52453 10.0042 7.26935 10.0042 7.00326C10.0042 6.73718 9.89845 6.482 9.71015 6.29385C9.52184 6.1057 9.26645 6 9.00016 6C8.73386 6 8.47847 6.1057 8.29016 6.29385L3.29023 11.2897C3.19919 11.3848 3.12782 11.4968 3.08023 11.6195C3.02733 11.7391 3 11.8684 3 11.9991C3 12.1299 3.02733 12.2592 3.08023 12.3788C3.12782 12.5015 3.19919 12.6135 3.29023 12.7086L8.29016 17.7044C8.38313 17.7981 8.49373 17.8724 8.61558 17.9232C8.73744 17.9739 8.86814 18 9.00015 18C9.13216 18 9.26287 17.9739 9.38473 17.9232C9.50658 17.8724 9.61718 17.7981 9.71015 17.7044Z" fill="#0C0C1B"/>
</svg>
