<svg width="24" height="24" viewBox="0 0 24 24" fill="none" xmlns="http://www.w3.org/2000/svg">
<path d="M19.8701 8.59998C19.7956 8.42869 19.6746 8.2817 19.5209 8.17566C19.3671 8.06961 19.1867 8.00875 19.0001 7.99998H14.4201L15.6901 3.25998C15.7306 3.11165 15.7363 2.956 15.7068 2.80511C15.6773 2.65422 15.6134 2.51217 15.5201 2.38998C15.427 2.26896 15.3073 2.17089 15.1704 2.10329C15.0334 2.03568 14.8828 2.00034 14.7301 1.99998H7.73012C7.50436 1.99224 7.28263 2.06118 7.10104 2.19555C6.91946 2.32992 6.78872 2.52181 6.73012 2.73998L4.05012 12.74C4.00967 12.8883 4.00397 13.044 4.03345 13.1948C4.06294 13.3457 4.12681 13.4878 4.22012 13.61C4.31431 13.7323 4.43555 13.8312 4.57434 13.8989C4.71314 13.9665 4.86572 14.0011 5.02012 14H8.89012L7.08012 20.74C7.02082 20.9573 7.03664 21.1883 7.12502 21.3955C7.21341 21.6028 7.36917 21.7741 7.56708 21.8817C7.76499 21.9893 7.99344 22.027 8.21543 21.9886C8.43741 21.9501 8.63991 21.8379 8.79012 21.67L19.6901 9.66998C19.8199 9.52786 19.9059 9.35131 19.9379 9.16151C19.9698 8.97171 19.9463 8.77674 19.8701 8.59998ZM10.0801 17.28L11.1501 13.28C11.1906 13.1317 11.1963 12.976 11.1668 12.8251C11.1373 12.6742 11.0734 12.5322 10.9801 12.41C10.887 12.289 10.7673 12.1909 10.6304 12.1233C10.4934 12.0557 10.3428 12.0203 10.1901 12.02H6.35012L8.49012 3.99998H13.4201L12.1501 8.73998C12.1093 8.89103 12.1046 9.04955 12.1362 9.20278C12.1679 9.35601 12.235 9.49968 12.3323 9.62223C12.4295 9.74479 12.5542 9.84281 12.6963 9.90841C12.8383 9.97402 12.9938 10.0054 13.1501 9.99998H16.7201L10.0801 17.28Z" fill="#0C0C1B"/>
</svg>
