<svg width="24" height="24" viewBox="0 0 24 24" fill="none" xmlns="http://www.w3.org/2000/svg">
<path d="M22 1.00004H15C14.4275 0.997695 13.8724 1.1963 13.4318 1.56109C12.9912 1.92588 12.6932 2.43363 12.59 2.9955L11.67 8.03404C11.6064 8.38508 11.6209 8.74577 11.7125 9.09059C11.8041 9.43542 11.9705 9.75594 12.2 10.0295C12.4307 10.3032 12.7184 10.5235 13.0431 10.6751C13.3677 10.8267 13.7215 10.906 14.08 10.9075H17L16.75 11.566C16.5654 12.0543 16.5013 12.5797 16.5631 13.0979C16.6248 13.616 16.8107 14.1118 17.1048 14.5433C17.399 14.9747 17.7929 15.3292 18.2533 15.5769C18.7137 15.8245 19.227 15.9579 19.75 15.966C19.9441 15.9675 20.1344 15.9127 20.2977 15.8082C20.4611 15.7036 20.5904 15.5539 20.67 15.3773L22.91 10.3288C22.961 10.2188 22.9915 10.1005 23 9.97961V1.99777C23 1.73315 22.8946 1.47938 22.7071 1.29226C22.5196 1.10515 22.2652 1.00004 22 1.00004ZM21 9.71022L19.17 13.8309C18.9914 13.7339 18.8375 13.5974 18.72 13.4318C18.6023 13.2656 18.5279 13.0728 18.5035 12.8707C18.479 12.6687 18.5053 12.4638 18.58 12.2744L18.96 11.2767C19.06 11.0179 19.094 10.7384 19.0591 10.4633C19.0242 10.1882 18.9214 9.926 18.76 9.70025C18.601 9.47536 18.3896 9.29246 18.1439 9.1673C17.8983 9.04215 17.6258 8.97851 17.35 8.98188H14.06C13.9936 8.98207 13.9279 8.96789 13.8675 8.94034C13.807 8.91278 13.7533 8.87249 13.71 8.82224C13.6324 8.71585 13.6 8.58316 13.62 8.45308L14.54 3.46443C14.5357 3.40259 14.5446 3.34055 14.566 3.28238C14.5875 3.22421 14.621 3.17123 14.6645 3.12693C14.7079 3.08263 14.7603 3.04802 14.8181 3.02536C14.876 3.00271 14.9379 2.99253 15 2.9955H21V9.71022ZM9.94 13.0227H7.05L7.3 12.3642C7.4819 11.8731 7.54228 11.3454 7.47602 10.826C7.40975 10.3066 7.2188 9.81089 6.91938 9.3809C6.61996 8.95092 6.22094 8.5994 5.7562 8.35623C5.29147 8.11306 4.77476 7.98542 4.25 7.98415C4.05594 7.98262 3.86563 8.03746 3.70227 8.14199C3.53891 8.24651 3.40956 8.39621 3.33 8.57281L1.09 13.6213C1.0327 13.7467 1.00205 13.8826 1 14.0204V22.0023C1 22.2669 1.10536 22.5207 1.29289 22.7078C1.48043 22.8949 1.73478 23 2 23H9C9.57252 23.0023 10.1276 22.8037 10.5682 22.4389C11.0088 22.0742 11.3068 21.5664 11.41 21.0045L12.33 16.0159C12.3936 15.6648 12.3791 15.3041 12.2875 14.9593C12.1959 14.6145 12.0295 14.294 11.8 14.0204C11.5832 13.7273 11.3039 13.4858 10.9823 13.3132C10.6606 13.1407 10.3047 13.0415 9.94 13.0227ZM9.46 20.5855C9.44283 20.693 9.38626 20.7902 9.30126 20.8585C9.21626 20.9267 9.1089 20.961 9 20.9546H3V14.2399L4.83 10.1193C5.0086 10.2163 5.16255 10.3528 5.28 10.5184C5.39768 10.6846 5.47209 10.8774 5.49653 11.0794C5.52097 11.2815 5.49467 11.4864 5.42 11.6758L5.04 12.6735C4.94003 12.9322 4.90597 13.2117 4.94088 13.4868C4.97578 13.762 5.07856 14.0241 5.24 14.2499C5.39675 14.4785 5.60721 14.6653 5.853 14.794C6.09879 14.9227 6.37242 14.9894 6.65 14.9882H9.94C10.0064 14.988 10.0721 15.0022 10.1325 15.0298C10.193 15.0573 10.2467 15.0976 10.29 15.1479C10.3676 15.2542 10.4 15.3869 10.38 15.517L9.46 20.5855Z" fill="#0C0C1B"/>
</svg>
