<svg width="24" height="24" viewBox="0 0 24 24" fill="none" xmlns="http://www.w3.org/2000/svg">
<path d="M10.8397 5.38242C11.2238 5.10876 11.6924 4.97972 12.1624 5.01813C12.6325 5.05654 13.0738 5.25992 13.4085 5.59232C13.7839 5.96548 13.9959 6.4723 13.9982 7.00162V10.0001C13.9982 10.2652 14.1035 10.5194 14.2909 10.7069C14.4784 10.8943 14.7326 10.9996 14.9977 10.9996H15.9972C16.2623 10.9996 16.5165 11.1049 16.7039 11.2924C16.8914 11.4798 16.9967 11.7341 16.9967 11.9991V12.339C16.9967 12.6041 17.102 12.8583 17.2894 13.0457C17.4769 13.2332 17.7311 13.3385 17.9962 13.3385C18.2613 13.3385 18.5155 13.2332 18.7029 13.0457C18.8904 12.8583 18.9957 12.6041 18.9957 12.339V11.9991C18.9957 11.2039 18.6798 10.4412 18.1174 9.87888C17.5551 9.31654 16.7924 9.00063 15.9972 9.00063V7.00162C15.9976 6.47644 15.8945 5.95632 15.6939 5.47098C15.4932 4.98564 15.1989 4.54458 14.8277 4.17302C14.1457 3.51066 13.2528 3.10881 12.3047 3.03757C11.3567 2.96633 10.4137 3.23022 9.64031 3.78321C9.53531 3.86196 9.44684 3.96063 9.37997 4.07357C9.31309 4.18652 9.26912 4.31153 9.25056 4.44146C9.23199 4.5714 9.23921 4.70372 9.27178 4.83087C9.30436 4.95802 9.36166 5.07751 9.44041 5.18252C9.51917 5.28752 9.61783 5.37599 9.73078 5.44286C9.84372 5.50974 9.96873 5.55371 10.0987 5.57227C10.2286 5.59084 10.3609 5.58363 10.4881 5.55105C10.6152 5.51847 10.7347 5.46117 10.8397 5.38242ZM21.7043 20.2851L3.71324 2.29395C3.52503 2.10574 3.26977 2 3.0036 2C2.73743 2 2.48216 2.10574 2.29395 2.29395C2.10574 2.48216 2 2.73743 2 3.0036C2 3.26977 2.10574 3.52503 2.29395 3.71324L7.62131 9.00063C6.89357 9.09353 6.22514 9.45002 5.74255 10.0026C5.25996 10.5552 4.9967 11.2655 5.00261 11.9991V17.9962C5.00261 18.7914 5.31852 19.5541 5.88085 20.1165C6.44318 20.6788 7.20587 20.9947 8.00112 20.9947H15.9972C16.461 20.9932 16.9181 20.884 17.3326 20.6759C17.7471 20.4678 18.1077 20.1663 18.386 19.7953L20.2851 21.7043C20.378 21.798 20.4885 21.8724 20.6103 21.9231C20.7321 21.9739 20.8628 22 20.9947 22C21.1266 22 21.2573 21.9739 21.3791 21.9231C21.5009 21.8724 21.6114 21.798 21.7043 21.7043C21.798 21.6114 21.8724 21.5009 21.9231 21.3791C21.9739 21.2573 22 21.1266 22 20.9947C22 20.8628 21.9739 20.7321 21.9231 20.6103C21.8724 20.4885 21.798 20.378 21.7043 20.2851ZM15.9972 18.9957H8.00112C7.73604 18.9957 7.48181 18.8904 7.29437 18.7029C7.10692 18.5155 7.00162 18.2613 7.00162 17.9962V11.9991C7.00162 11.7341 7.10692 11.4798 7.29437 11.2924C7.48181 11.1049 7.73604 10.9996 8.00112 10.9996H9.59034L11.6593 13.0686C11.4677 13.1379 11.3019 13.264 11.184 13.4301C11.0661 13.5963 11.0018 13.7945 10.9996 13.9982V15.9972C10.9996 16.2623 11.1049 16.5165 11.2924 16.7039C11.4798 16.8914 11.7341 16.9967 11.9991 16.9967C12.2642 16.9967 12.5185 16.8914 12.7059 16.7039C12.8933 16.5165 12.9987 16.2623 12.9987 15.9972V14.408L16.9267 18.336C16.8575 18.5276 16.7313 18.6934 16.5652 18.8113C16.3991 18.9292 16.2009 18.9936 15.9972 18.9957Z" fill="#0C0C1B"/>
</svg>
