<svg width="132" height="42" viewBox="0 0 132 42" fill="none" xmlns="http://www.w3.org/2000/svg">
    <path d="M55.3028 28.2772C61.2175 28.2772 63.7798 25.744 63.7798 21.1883C63.7798 16.6521 61.2175 14.1386 55.3028 14.1386C49.3689 14.1386 46.8257 16.6325 46.8257 21.1883C46.8257 25.7637 49.3689 28.2772 55.3028 28.2772ZM55.3028 25.312C51.7 25.312 50.2936 24.016 50.2936 21.1883C50.2936 18.3802 51.6808 17.1038 55.3028 17.1038C58.9247 17.1038 60.3119 18.3999 60.3119 21.1883C60.3119 23.9964 58.9055 25.312 55.3028 25.312Z"/>
    <path d="M81.9449 27.4288L79.8665 25.2533C80.5089 24.1656 80.8112 22.8207 80.8112 21.2386C80.8112 16.6701 78.2982 14.1386 72.4974 14.1386C66.6777 14.1386 64.1835 16.6503 64.1835 21.2386C64.1835 25.8467 66.6777 28.3781 72.4974 28.3781C74.4436 28.3781 76.0119 28.1013 77.2589 27.5475L79.5452 29.9406L81.9449 27.4288ZM67.5846 21.2386C67.5846 18.4105 68.9451 17.125 72.4974 17.125C76.0496 17.125 77.4101 18.4303 77.4101 21.2386C77.4101 24.0668 76.0307 25.3918 72.4974 25.3918C68.964 25.3918 67.5846 24.0865 67.5846 21.2386Z"/>
    <path d="M82.3486 19.9604V22.8713H97.6881V19.9604H82.3486Z"/>
    <path d="M107.377 28.2772C113.291 28.2772 115.853 25.744 115.853 21.1883C115.853 16.6521 113.291 14.1386 107.377 14.1386C101.442 14.1386 98.899 16.6325 98.899 21.1883C98.899 25.7637 101.442 28.2772 107.377 28.2772ZM107.377 25.312C103.774 25.312 102.367 24.016 102.367 21.1883C102.367 18.3802 103.754 17.1038 107.377 17.1038C110.999 17.1038 112.385 18.3999 112.385 21.1883C112.385 23.9964 110.979 25.312 107.377 25.312Z"/>
    <path d="M132 14.1386H115.45V17.1885H121.993V28.2772H125.457V17.1885H132V14.1386Z"/>
    <path d="M19.1743 40.7525C29.3182 40.7525 37.5413 32.2813 37.5413 21.8317C37.5413 11.382 29.3182 2.91089 19.1743 2.91089C9.03054 2.91089 0.807373 11.382 0.807373 21.8317C0.807373 32.2813 9.03054 40.7525 19.1743 40.7525Z" fill="currentColor"/>
    <path fill-rule="evenodd" clip-rule="evenodd" d="M0 22.0396C0 11.0158 8.67499 2.07919 19.3761 2.07919C30.0773 2.07919 38.7523 11.0158 38.7523 22.0396C38.7523 33.0634 30.0773 42 19.3761 42C8.67499 42 0 33.0634 0 22.0396ZM19.3761 4.21301C9.81897 4.21301 2.07136 12.1942 2.07136 22.0396C2.07136 31.8849 9.81897 39.8662 19.3761 39.8662C28.9333 39.8662 36.6809 31.8849 36.6809 22.0396C36.6809 12.1942 28.9333 4.21301 19.3761 4.21301Z"/>
    <path fill-rule="evenodd" clip-rule="evenodd" d="M18.4804 13.6104C18.8941 13.1991 19.557 13.2069 19.9612 13.6278L22.3073 16.0708C22.7115 16.4917 22.7039 17.1664 22.2902 17.5777C21.8766 17.989 21.2136 17.9813 20.8094 17.5604L18.4634 15.1173C18.0592 14.6964 18.0668 14.0218 18.4804 13.6104Z"/>
    <path fill-rule="evenodd" clip-rule="evenodd" d="M26.8106 0C27.3865 0 27.8532 0.47964 27.8532 1.07131V29.3917C27.8532 30.367 27.3027 30.9877 26.7023 31.2926C26.191 31.5522 25.6364 31.6003 25.2626 31.5797C23.3249 31.5981 19.1895 31.6241 18.0774 31.5785L18.0773 31.5785C17.2985 31.5465 16.6846 31.2604 16.2613 30.809C15.8619 30.383 15.6869 29.8665 15.6654 29.448L15.664 29.4198V27.1589C15.664 27.0149 15.6083 26.824 15.484 26.6088C15.3609 26.3956 15.2154 26.2369 15.1508 26.1789L15.1033 26.1362L15.0611 26.0878C14.812 25.8024 14.5223 25.472 14.2113 25.1174C13.6493 24.4765 13.0177 23.7563 12.43 23.0777C11.5322 22.0409 10.6759 21.032 10.3224 20.5326C9.68367 19.6301 9.68668 18.4797 9.68828 17.8658C9.68836 17.8364 9.68843 17.8082 9.68843 17.7814V15.1021C9.68843 14.5105 10.1552 14.0308 10.731 14.0308C11.3069 14.0308 11.7736 14.5105 11.7736 15.1021V17.7814C11.7736 18.5332 11.809 18.99 12.0088 19.2724C12.2875 19.6661 13.0609 20.583 13.9878 21.6533C14.5723 22.3283 15.1934 23.0365 15.7518 23.6733C16.0496 24.0129 16.3296 24.3321 16.5767 24.6152C16.7931 24.8203 17.0565 25.1331 17.2772 25.5153C17.5151 25.9272 17.7492 26.4992 17.7492 27.1589V29.3047C17.7525 29.3099 17.757 29.316 17.763 29.3224C17.7733 29.3333 17.7971 29.3554 17.849 29.378C17.902 29.4011 17.9994 29.431 18.1605 29.4376C19.2142 29.4808 23.3265 29.4556 25.2799 29.4368L25.3219 29.4364L25.3637 29.4395C25.4153 29.4432 25.4959 29.4422 25.5834 29.4285C25.6649 29.4157 25.7273 29.3957 25.768 29.3768V1.07131C25.768 0.47964 26.2348 0 26.8106 0ZM17.7413 29.2886C17.7413 29.2885 17.7416 29.2891 17.742 29.2905C17.7415 29.2893 17.7413 29.2886 17.7413 29.2886Z"/>
</svg>
