<svg width="40" height="40" viewBox="0 0 40 40" fill="none" xmlns="http://www.w3.org/2000/svg">
<path fill-rule="evenodd" clip-rule="evenodd" d="M20 28.8121C17.96 30.5725 15.3139 31.6352 12.4225 31.6352C5.9707 31.6352 0.740508 26.3442 0.740508 19.8176C0.740508 13.2909 5.9707 8 12.4225 8C15.3139 8 17.96 9.06269 20 10.8231C22.0399 9.06269 24.686 8 27.5774 8C34.0292 8 39.2594 13.2909 39.2594 19.8176C39.2594 26.3442 34.0292 31.6352 27.5774 31.6352C24.686 31.6352 22.0399 30.5725 20 28.8121Z" fill="#ED0006"/>
<path fill-rule="evenodd" clip-rule="evenodd" d="M20 28.8121C22.5118 26.6445 24.1045 23.4192 24.1045 19.8176C24.1045 16.2159 22.5118 12.9906 20 10.8231C22.0399 9.06269 24.686 8 27.5775 8C34.0293 8 39.2595 13.2909 39.2595 19.8176C39.2595 26.3442 34.0293 31.6352 27.5775 31.6352C24.686 31.6352 22.0399 30.5725 20 28.8121Z" fill="#F9A000"/>
<path fill-rule="evenodd" clip-rule="evenodd" d="M20 28.8121C22.5118 26.6445 24.1044 23.4192 24.1044 19.8176C24.1044 16.216 22.5118 12.9907 20 10.8231C17.4883 12.9907 15.8956 16.216 15.8956 19.8176C15.8956 23.4192 17.4883 26.6445 20 28.8121Z" fill="#FF5E00"/>
</svg>
