<svg width="24" height="24" viewBox="0 0 24 24" fill="none" xmlns="http://www.w3.org/2000/svg">
<path d="M10.6598 6.00211H16.9967C17.2618 6.00211 17.516 6.10742 17.7034 6.29486C17.8909 6.48231 17.9962 6.73653 17.9962 7.00162V13.3385C17.9962 13.6036 18.1015 13.8578 18.2889 14.0452C18.4764 14.2327 18.7306 14.338 18.9957 14.338C19.2608 14.338 19.515 14.2327 19.7024 14.0452C19.8899 13.8578 19.9952 13.6036 19.9952 13.3385V7.00162C19.9952 6.20636 19.6793 5.44368 19.1169 4.88135C18.5546 4.31902 17.7919 4.0031 16.9967 4.0031H10.6598C10.3947 4.0031 10.1405 4.10841 9.95305 4.29585C9.76561 4.48329 9.6603 4.73752 9.6603 5.00261C9.6603 5.26769 9.76561 5.52192 9.95305 5.70936C10.1405 5.89681 10.3947 6.00211 10.6598 6.00211ZM21.7043 20.2851L3.71324 2.29395C3.52503 2.10574 3.26977 2 3.0036 2C2.73743 2 2.48216 2.10574 2.29395 2.29395C2.10574 2.48216 2 2.73743 2 3.0036C2 3.26977 2.10574 3.52503 2.29395 3.71324L4.29296 5.71226C4.10165 6.11514 4.00263 6.55562 4.0031 7.00162V18.9957C4.00409 19.193 4.06346 19.3856 4.17374 19.5493C4.28402 19.7129 4.44027 19.8403 4.62279 19.9152C4.74142 19.9712 4.8715 19.9986 5.00261 19.9952C5.13415 19.996 5.26455 19.9707 5.38632 19.921C5.5081 19.8713 5.61886 19.798 5.71226 19.7053L8.41092 16.9967H15.5874L20.2851 21.7043C20.378 21.798 20.4885 21.8724 20.6103 21.9231C20.7321 21.9739 20.8628 22 20.9947 22C21.1266 22 21.2573 21.9739 21.3791 21.9231C21.5009 21.8724 21.6114 21.798 21.7043 21.7043C21.798 21.6114 21.8724 21.5009 21.9231 21.3791C21.9739 21.2573 22 21.1266 22 20.9947C22 20.8628 21.9739 20.7321 21.9231 20.6103C21.8724 20.4885 21.798 20.378 21.7043 20.2851ZM8.00112 14.9977C7.86958 14.9969 7.73918 15.0221 7.61741 15.0719C7.49563 15.1216 7.38487 15.1949 7.29148 15.2875L6.00211 16.5869V7.41142L13.5884 14.9977H8.00112Z" fill="#0C0C1B"/>
</svg>
