<svg width="24" height="24" viewBox="0 0 24 24" fill="none" xmlns="http://www.w3.org/2000/svg">
<path d="M10.5 3.73C10.6775 3.51619 10.8975 3.34171 11.1462 3.21768C11.3948 3.09365 11.6666 3.02278 11.9441 3.00961C12.2217 2.99644 12.4989 3.04125 12.7582 3.14118C13.0175 3.2411 13.2531 3.39396 13.45 3.59C13.811 3.96981 14.0085 4.4761 14 5V8.41C14 8.67522 14.1054 8.92957 14.2929 9.11711C14.4804 9.30464 14.7348 9.41 15 9.41C15.2652 9.41 15.5196 9.30464 15.7071 9.11711C15.8947 8.92957 16 8.67522 16 8.41V5C15.9771 4.19734 15.7132 3.42015 15.2426 2.76954C14.772 2.11893 14.1164 1.62502 13.3613 1.35208C12.6061 1.07914 11.7863 1.0398 11.0084 1.23918C10.2306 1.43856 9.53076 1.86744 9.00001 2.47C8.88361 2.56208 8.78916 2.67891 8.72353 2.81202C8.65789 2.94513 8.6227 3.09118 8.62052 3.23958C8.61834 3.38798 8.64921 3.53501 8.71091 3.66999C8.77261 3.80497 8.86357 3.92453 8.97722 4.01999C9.09086 4.11545 9.22433 4.18442 9.36793 4.22189C9.51154 4.25936 9.66169 4.2644 9.80748 4.23663C9.95328 4.20887 10.0911 4.149 10.2108 4.06137C10.3306 3.97374 10.4294 3.86055 10.5 3.73ZM18.72 13.27H18.92C19.1554 13.2743 19.3847 13.1954 19.5676 13.0472C19.7505 12.8991 19.8753 12.6911 19.92 12.46C19.9917 11.9768 20.0185 11.4881 20 11C20 10.7348 19.8947 10.4804 19.7071 10.2929C19.5196 10.1054 19.2652 10 19 10C18.7348 10 18.4804 10.1054 18.2929 10.2929C18.1054 10.4804 18 10.7348 18 11C18.0001 11.3694 17.9633 11.7379 17.89 12.1C17.8657 12.2315 17.868 12.3666 17.8968 12.4972C17.9256 12.6278 17.9803 12.7513 18.0577 12.8604C18.1351 12.9695 18.2336 13.062 18.3474 13.1323C18.4611 13.2027 18.5878 13.2495 18.72 13.27ZM21.72 19.33L3.72001 1.33C3.62705 1.23627 3.51644 1.16188 3.39459 1.11111C3.27273 1.06034 3.14202 1.0342 3.01001 1.0342C2.878 1.0342 2.74729 1.06034 2.62543 1.11111C2.50357 1.16188 2.39297 1.23627 2.30001 1.33C2.11376 1.51736 2.00922 1.77082 2.00922 2.035C2.00922 2.29919 2.11376 2.55264 2.30001 2.74L8.00001 8.48V11C8.00073 11.7018 8.18608 12.3911 8.53744 12.9986C8.88881 13.6061 9.39383 14.1104 10.0018 14.461C10.6097 14.8116 11.2992 14.9961 12.001 14.9959C12.7028 14.9957 13.3922 14.8109 14 14.46L15.46 15.92C14.5604 16.555 13.5035 16.9302 12.4049 17.0045C11.3063 17.0788 10.2084 16.8493 9.23151 16.3413C8.25462 15.8332 7.43638 15.0661 6.8664 14.124C6.29642 13.1819 5.99668 12.1011 6.00001 11C6.00001 10.7348 5.89465 10.4804 5.70712 10.2929C5.51958 10.1054 5.26523 10 5.00001 10C4.73479 10 4.48044 10.1054 4.2929 10.2929C4.10537 10.4804 4.00001 10.7348 4.00001 11C4.00177 12.9473 4.71373 14.8271 6.00241 16.287C7.29108 17.7469 9.06799 18.6866 11 18.93V21H9.00001C8.73479 21 8.48044 21.1054 8.2929 21.2929C8.10537 21.4804 8.00001 21.7348 8.00001 22C8.00001 22.2652 8.10537 22.5196 8.2929 22.7071C8.48044 22.8946 8.73479 23 9.00001 23H15C15.2652 23 15.5196 22.8946 15.7071 22.7071C15.8947 22.5196 16 22.2652 16 22C16 21.7348 15.8947 21.4804 15.7071 21.2929C15.5196 21.1054 15.2652 21 15 21H13V18.93C14.4029 18.7554 15.7328 18.2062 16.85 17.34L20.25 20.74C20.437 20.9283 20.6911 21.0346 20.9565 21.0356C21.2218 21.0365 21.4767 20.932 21.665 20.745C21.8533 20.558 21.9596 20.3039 21.9606 20.0385C21.9615 19.7732 21.857 19.5183 21.67 19.33H21.72ZM12 13C11.4696 13 10.9609 12.7893 10.5858 12.4142C10.2107 12.0391 10 11.5304 10 11V10.48L12.45 12.94C12.3033 12.9796 12.152 12.9997 12 13Z" fill="#0C0C1B"/>
</svg>
