<svg width="24" height="24" viewBox="0 0 24 24" fill="none" xmlns="http://www.w3.org/2000/svg">
<path d="M21.7043 20.2851L3.71324 2.29395C3.52503 2.10574 3.26977 2 3.0036 2C2.73743 2 2.48216 2.10574 2.29395 2.29395C2.10574 2.48216 2 2.73743 2 3.0036C2 3.26977 2.10574 3.52503 2.29395 3.71324L3.29345 4.71275C3.10215 5.11563 3.00312 5.55612 3.0036 6.00211V13.9982C3.0036 14.7934 3.31951 15.5561 3.88184 16.1184C4.44417 16.6808 5.20686 16.9967 6.00211 16.9967H9.00063V18.9957H6.00211C5.73703 18.9957 5.4828 19.101 5.29536 19.2884C5.10791 19.4759 5.00261 19.7301 5.00261 19.9952C5.00261 20.2603 5.10791 20.5145 5.29536 20.702C5.4828 20.8894 5.73703 20.9947 6.00211 20.9947H17.9962C18.1999 20.9926 18.3981 20.9282 18.5642 20.8104C18.7303 20.6925 18.8565 20.5266 18.9257 20.335L20.2851 21.7043C20.378 21.798 20.4885 21.8724 20.6103 21.9231C20.7321 21.9739 20.8628 22 20.9947 22C21.1266 22 21.2573 21.9739 21.3791 21.9231C21.5009 21.8724 21.6114 21.798 21.7043 21.7043C21.798 21.6114 21.8724 21.5009 21.9231 21.3791C21.9739 21.2573 22 21.1266 22 20.9947C22 20.8628 21.9739 20.7321 21.9231 20.6103C21.8724 20.4885 21.798 20.378 21.7043 20.2851ZM5.00261 6.41191L9.59034 10.9996H5.00261V6.41191ZM12.9987 18.9957H10.9996V16.9967H12.9987V18.9957ZM6.00211 14.9977C5.73703 14.9977 5.4828 14.8924 5.29536 14.7049C5.10791 14.5175 5.00261 14.2632 5.00261 13.9982V12.9987H11.5893L13.5884 14.9977H6.00211ZM14.9977 18.9957V16.9967H15.5874L17.5864 18.9957H14.9977ZM9.6603 5.00261H17.9962C18.2613 5.00261 18.5155 5.10791 18.7029 5.29536C18.8904 5.4828 18.9957 5.73703 18.9957 6.00211V10.9996H17.6563C17.3913 10.9996 17.137 11.1049 16.9496 11.2924C16.7621 11.4798 16.6568 11.7341 16.6568 11.9991C16.6568 12.2642 16.7621 12.5185 16.9496 12.7059C17.137 12.8933 17.3913 12.9987 17.6563 12.9987H18.9957V13.9982C19.0012 14.0346 19.0012 14.0717 18.9957 14.1081C18.9694 14.2367 18.9687 14.3693 18.9937 14.4982C19.0187 14.6271 19.0688 14.7498 19.1412 14.8593C19.2136 14.9688 19.3068 15.063 19.4156 15.1365C19.5244 15.21 19.6467 15.2613 19.7753 15.2875H19.9752C20.209 15.2922 20.4371 15.2148 20.6197 15.0687C20.8024 14.9226 20.928 14.7171 20.9747 14.4879C20.9955 14.3255 21.0022 14.1617 20.9947 13.9982V6.00211C20.9947 5.20686 20.6788 4.44417 20.1165 3.88184C19.5541 3.31951 18.7914 3.0036 17.9962 3.0036H9.6603C9.39522 3.0036 9.14099 3.1089 8.95355 3.29634C8.7661 3.48379 8.6608 3.73802 8.6608 4.0031C8.6608 4.26819 8.7661 4.52241 8.95355 4.70986C9.14099 4.8973 9.39522 5.00261 9.6603 5.00261Z" fill="#0C0C1B"/>
</svg>
