<svg width="24" height="24" viewBox="0 0 24 24" fill="none" xmlns="http://www.w3.org/2000/svg">
<path fill-rule="evenodd" clip-rule="evenodd" d="M13.1617 1.58253C13.3398 1.97015 13.2524 2.42806 12.944 2.72283C12.2853 3.35257 11.761 4.10918 11.4026 4.94703C11.0459 5.7811 10.861 6.67848 10.859 7.58552C10.9077 9.45005 11.6883 11.2207 13.0324 12.5146C14.3794 13.8113 16.1954 14.5243 18.0651 14.4988C19.2735 14.4965 20.4628 14.1972 21.5283 13.6271C21.9065 13.4248 22.3717 13.4862 22.6844 13.7798C22.9972 14.0734 23.0878 14.5337 22.9098 14.924C22.0765 16.75 20.732 18.2955 19.0388 19.3735C17.3496 20.449 15.3854 21.0133 13.383 20.9984C10.6875 21.0455 8.08263 20.0244 6.13725 18.1576C4.18854 16.2876 3.0605 13.7215 3.00025 11.0215C2.99999 11.0101 2.99994 10.9987 3.00007 10.9873C3.02975 8.48841 3.98016 6.08828 5.6693 4.24642C7.35844 2.40456 9.66763 1.25038 12.1548 1.00483C12.5793 0.962923 12.9836 1.19491 13.1617 1.58253ZM18.0748 16.4988C15.6806 16.5299 13.3704 15.6161 11.6453 13.9555C9.91881 12.2935 8.91766 10.0175 8.8593 7.62184C8.8591 7.6136 8.859 7.60535 8.859 7.5971C8.85945 6.41576 9.09919 5.24674 9.56374 4.16056C9.63277 3.99916 9.70655 3.84009 9.78494 3.68354C8.79248 4.13361 7.89203 4.78178 7.1433 5.5982C5.79077 7.07302 5.0281 8.99356 5.00015 10.994C5.05296 13.1586 5.95928 15.2149 7.52201 16.7145C9.08887 18.2181 11.1879 19.0394 13.3592 18.9985C13.3656 18.9984 13.372 18.9984 13.3784 18.9984C13.3812 18.9984 13.384 18.9984 13.3867 18.9984C15.0075 19.0126 16.5976 18.5568 17.9647 17.6864C18.5479 17.3151 19.0799 16.8751 19.5505 16.3781C19.0641 16.4569 18.5707 16.4975 18.0748 16.4988Z" fill="#0C0C1B"/>
</svg>
