<svg width="24" height="24" viewBox="0 0 24 24" fill="none" xmlns="http://www.w3.org/2000/svg">
<path d="M11.2895 17.7063C11.3824 17.8 11.493 17.8744 11.6148 17.9251C11.7366 17.9759 11.8672 18.002 11.9991 18.002C12.1311 18.002 12.2617 17.9759 12.3835 17.9251C12.5053 17.8744 12.6159 17.8 12.7088 17.7063C12.7971 17.6092 12.8681 17.4976 12.9187 17.3765C12.9716 17.2568 12.9989 17.1275 12.9989 16.9967C12.9989 16.8659 12.9716 16.7365 12.9187 16.6169C12.8681 16.4957 12.7971 16.3842 12.7088 16.287C12.6159 16.1933 12.5053 16.119 12.3835 16.0682C12.2617 16.0175 12.1311 15.9914 11.9991 15.9914C11.8672 15.9914 11.7366 16.0175 11.6148 16.0682C11.493 16.119 11.3824 16.1933 11.2895 16.287C11.2012 16.3842 11.1302 16.4957 11.0796 16.6169C11.0267 16.7365 10.9994 16.8659 10.9994 16.9967C10.9994 17.1275 11.0267 17.2568 11.0796 17.3765C11.1302 17.4976 11.2012 17.6092 11.2895 17.7063ZM8.6608 4.0031H15.9972C16.2623 4.0031 16.5165 4.10841 16.7039 4.29585C16.8914 4.48329 16.9967 4.73752 16.9967 5.00261V12.339C16.9967 12.6041 17.102 12.8583 17.2894 13.0457C17.4769 13.2332 17.7311 13.3385 17.9962 13.3385C18.2613 13.3385 18.5155 13.2332 18.7029 13.0457C18.8904 12.8583 18.9957 12.6041 18.9957 12.339V5.00261C18.9957 4.20735 18.6798 3.44467 18.1174 2.88234C17.5551 2.32 16.7924 2.00409 15.9972 2.00409H8.6608C8.39571 2.00409 8.14148 2.10939 7.95404 2.29684C7.7666 2.48428 7.66129 2.73851 7.66129 3.0036C7.66129 3.26868 7.7666 3.52291 7.95404 3.71035C8.14148 3.8978 8.39571 4.0031 8.6608 4.0031ZM21.7043 20.2851L3.71324 2.29395C3.52503 2.10574 3.26977 2 3.0036 2C2.73743 2 2.48216 2.10574 2.29395 2.29395C2.10574 2.48216 2 2.73743 2 3.0036C2 3.26977 2.10574 3.52503 2.29395 3.71324L5.00261 6.41191V18.9957C5.00261 19.7909 5.31852 20.5536 5.88085 21.116C6.44318 21.6783 7.20587 21.9942 8.00112 21.9942H15.9972C16.5858 21.9937 17.1612 21.82 17.6517 21.4948C18.1423 21.1695 18.5263 20.7071 18.7558 20.1651L20.2851 21.7043C20.378 21.798 20.4885 21.8724 20.6103 21.9231C20.7321 21.9739 20.8628 22 20.9947 22C21.1266 22 21.2573 21.9739 21.3791 21.9231C21.5009 21.8724 21.6114 21.798 21.7043 21.7043C21.798 21.6114 21.8724 21.5009 21.9231 21.3791C21.9739 21.2573 22 21.1266 22 20.9947C22 20.8628 21.9739 20.7321 21.9231 20.6103C21.8724 20.4885 21.798 20.378 21.7043 20.2851ZM16.9967 18.9957C16.9967 19.2608 16.8914 19.515 16.7039 19.7024C16.5165 19.8899 16.2623 19.9952 15.9972 19.9952H8.00112C7.73604 19.9952 7.48181 19.8899 7.29437 19.7024C7.10692 19.515 7.00162 19.2608 7.00162 18.9957V8.41092L16.9967 18.406V18.9957Z" fill="#0C0C1B"/>
</svg>
