<svg width="24" height="24" viewBox="0 0 24 24" fill="none" xmlns="http://www.w3.org/2000/svg">
<g clip-path="url(#clip0_5_654)">
<path d="M20 22.9C19.9 22.9 19.8 22.9 19.7 22.9C16.5 22.5 13.3 21.4 10.6 19.7C9.3 18.9 8.2 18 7.1 16.9C6.7 16.5 6.7 15.9 7.1 15.5L9.9 12.7C10.1 12.5 10.4 12.4 10.6 12.4C10.9 12.4 11.1 12.5 11.3 12.7C12.1 13.5 12.9 14.2 13.8 14.7L14.5 14C14.9 13.6 15.4 13.3 16 13.2C16.6 13.1 17.1 13.1 17.7 13.3C18.5 13.6 19.4 13.8 20.3 13.9C21 14 21.7 14.4 22.2 14.9C22.7 15.5 22.9 16.2 22.9 16.9V19.9C22.9 20.3 22.8 20.7 22.6 21.1C22.4 21.5 22.2 21.8 21.9 22.1C21.6 22.4 21.2 22.6 20.8 22.7C20.6 22.8 20.3 22.9 20 22.9ZM9.3 16.1C10.1 16.8 10.9 17.4 11.7 17.9C14.2 19.5 17 20.5 19.9 20.8C20 20.8 20.2 20.8 20.3 20.8C20.4 20.8 20.6 20.7 20.7 20.6C20.8 20.5 20.9 20.4 20.9 20.3C20.9 20.2 21 20 21 19.9V16.9C21 16.6 20.9 16.4 20.8 16.2C20.6 16 20.4 15.9 20.2 15.9C19.2 15.8 18.2 15.5 17.2 15.1C17 15 16.8 15 16.6 15.1C16.4 15.1 16.2 15.2 16.1 15.4L14.8 16.7C14.5 17 14 17.1 13.6 16.9C12.6 16.3 11.6 15.6 10.7 14.8L9.3 16.1ZM5.2 13.8C4.9 13.8 4.6 13.6 4.4 13.3C2.6 10.6 1.5 7.5 1.2 4.2C1.2 3.8 1.2 3.4 1.3 3C1.4 2.6 1.6 2.3 1.9 2C2.2 1.7 2.5 1.4 2.9 1.3C3.3 1.1 3.7 1 4.1 1H7.1C7.8 1 8.5 1.3 9.1 1.7C9.7 2.2 10 2.8 10.1 3.6C10.2 4.5 10.4 5.4 10.7 6.2C10.9 6.7 10.9 7.3 10.8 7.9C10.7 8.5 10.4 9 10 9.4L8.7 10.7C8.3 11.1 7.7 11.1 7.3 10.7C6.9 10.3 6.9 9.7 7.3 9.3L8.6 8C8.7 7.9 8.8 7.7 8.9 7.5C8.9 7.3 8.9 7.1 8.9 6.9C8.5 5.9 8.3 4.9 8.1 3.9C8.1 3.7 7.9 3.4 7.8 3.3C7.7 3.2 7.3 3 7.1 3H4.1C4 3 3.8 3 3.7 3.1C3.6 3.1 3.5 3.2 3.4 3.3C3.3 3.4 3.2 3.5 3.2 3.7C3.2 3.8 3.1 4 3.2 4.1C3.4 7 4.4 9.8 6 12.3C6.3 12.8 6.2 13.4 5.7 13.7C5.6 13.8 5.4 13.8 5.2 13.8Z" fill="#0C0C1B"/>
<path d="M1 24C0.7 24 0.5 23.9 0.3 23.7C-0.1 23.3 -0.1 22.7 0.3 22.3L22.3 0.3C22.7 -0.1 23.3 -0.1 23.7 0.3C24.1 0.7 24.1 1.3 23.7 1.7L1.7 23.7C1.5 23.9 1.3 24 1 24Z" fill="#0C0C1B"/>
</g>
<defs>
<clipPath id="clip0_5_654">
<rect width="24" height="24" fill="white"/>
</clipPath>
</defs>
</svg>
