<svg width="24" height="24" viewBox="0 0 24 24" fill="none" xmlns="http://www.w3.org/2000/svg">
<path d="M19.9 22.9C19.8 22.9 19.7 22.9 19.6 22.9C16.4 22.5 13.2 21.4 10.5 19.7C8 18.1 5.8 15.9 4.2 13.4C2.5 10.7 1.4 7.5 1 4.3C1 3.9 1 3.4 1.2 3C1.3 2.6 1.5 2.3 1.8 2C2.1 1.7 2.4 1.4 2.8 1.3C3.2 1.1 3.6 1 4 1H7C7.7 1 8.4 1.3 9 1.7C9.6 2.1 9.9 2.8 10 3.6C10.1 4.5 10.3 5.4 10.6 6.2C10.8 6.7 10.8 7.3 10.7 7.9C10.6 8.5 10.3 9 9.9 9.4L9.2 10.1C10.4 11.9 11.9 13.5 13.8 14.7L14.5 14C14.9 13.6 15.4 13.3 16 13.2C16.6 13.1 17.1 13.1 17.7 13.3C18.5 13.6 19.4 13.8 20.3 13.9C21 14 21.7 14.4 22.2 14.9C22.7 15.5 22.9 16.2 22.9 16.9V19.9C22.9 20.3 22.8 20.7 22.6 21.1C22.4 21.5 22.2 21.8 21.9 22.1C21.6 22.4 21.2 22.6 20.8 22.7C20.5 22.9 20.2 22.9 19.9 22.9ZM7 3H4C3.9 3 3.7 3 3.6 3.1C3.5 3.1 3.4 3.2 3.3 3.3C3.2 3.4 3.1 3.5 3.1 3.7C3 3.8 3 4 3 4.1C3.3 7 4.3 9.8 5.9 12.3C7.4 14.6 9.3 16.6 11.6 18C14.1 19.6 16.9 20.6 19.8 20.9C19.9 20.9 20.1 20.9 20.2 20.8C20.3 20.8 20.5 20.7 20.6 20.6C20.7 20.5 20.8 20.4 20.8 20.3C20.9 20.2 20.9 20 20.9 19.9V16.9C20.9 16.7 20.8 16.4 20.7 16.2C20.5 16 20.3 15.9 20.1 15.9C19.1 15.8 18.1 15.5 17.1 15.1C16.9 15 16.7 15 16.5 15.1C16.3 15.1 16.1 15.2 16 15.4L14.7 16.7C14.4 17 13.9 17.1 13.5 16.9C10.8 15.4 8.6 13.2 7.1 10.5C6.9 10 7 9.5 7.3 9.2L8.6 7.9C8.7 7.8 8.8 7.6 8.9 7.4C8.9 7.2 8.9 7 8.9 6.8C8.5 5.8 8.3 4.8 8.1 3.8C8.1 3.6 7.9 3.3 7.8 3.2C7.5 3.1 7.3 3 7 3Z" />
</svg>
