<svg width="24" height="24" viewBox="0 0 24 24" fill="none" xmlns="http://www.w3.org/2000/svg">
<path d="M3.71324 2.2938C3.62005 2.20065 3.50942 2.12677 3.38765 2.07636C3.26589 2.02595 3.13539 2 3.0036 2C2.8718 2 2.7413 2.02595 2.61954 2.07636C2.49777 2.12677 2.38714 2.20065 2.29395 2.2938C2.10574 2.48192 2 2.73706 2 3.00309C2 3.26913 2.10574 3.52427 2.29395 3.71239L5.09256 6.49962H5.00261C4.20735 6.49962 3.44467 6.81537 2.88234 7.37742C2.32 7.93947 2.00409 8.70178 2.00409 9.49664V17.4887C2.00409 18.2835 2.32 19.0459 2.88234 19.6079C3.44467 20.17 4.20735 20.4857 5.00261 20.4857H19.0756L20.2851 21.7045C20.378 21.7981 20.4885 21.8724 20.6103 21.9232C20.7321 21.9739 20.8628 22 20.9947 22C21.1266 22 21.2573 21.9739 21.3791 21.9232C21.5009 21.8724 21.6114 21.7981 21.7043 21.7045C21.798 21.6116 21.8724 21.5011 21.9231 21.3794C21.9739 21.2577 22 21.1271 22 20.9952C22 20.8633 21.9739 20.7327 21.9231 20.611C21.8724 20.4893 21.798 20.3788 21.7043 20.2859L3.71324 2.2938ZM10.2 11.6145L12.8787 14.2919C12.6046 14.4246 12.3037 14.4929 11.9991 14.4917C11.469 14.4917 10.9605 14.2812 10.5856 13.9065C10.2107 13.5318 10.0001 13.0236 10.0001 12.4937C9.99889 12.1892 10.0673 11.8885 10.2 11.6145ZM5.00261 18.4877C4.73752 18.4877 4.48329 18.3824 4.29585 18.1951C4.10841 18.0077 4.0031 17.7536 4.0031 17.4887V9.49664C4.0031 9.23168 4.10841 8.97758 4.29585 8.79023C4.48329 8.60288 4.73752 8.49763 5.00261 8.49763H7.07158L8.77074 10.186C8.27562 10.854 8.00607 11.6623 8.00112 12.4937C8.00112 13.5535 8.42234 14.5699 9.17212 15.3193C9.92189 16.0687 10.9388 16.4897 11.9991 16.4897C12.8344 16.4869 13.6468 16.2173 14.318 15.7204L17.0866 18.4877H5.00261ZM18.9957 6.49962H17.7163L17.4065 5.50061C17.1986 4.91281 16.8124 4.40444 16.3018 4.04631C15.7913 3.68818 15.1816 3.49812 14.5579 3.5026H10.1601C9.89497 3.5026 9.64074 3.60785 9.4533 3.7952C9.26586 3.98255 9.16055 4.23665 9.16055 4.5016C9.16055 4.76656 9.26586 5.02066 9.4533 5.20801C9.64074 5.39536 9.89497 5.50061 10.1601 5.50061H14.5579C14.7674 5.50007 14.9718 5.56537 15.1422 5.68727C15.3126 5.80917 15.4404 5.98151 15.5074 6.17993L16.0471 7.80832C16.1125 8.0086 16.2395 8.18312 16.41 8.30692C16.5806 8.43073 16.7859 8.49747 16.9967 8.49763H18.9957C19.2608 8.49763 19.515 8.60288 19.7024 8.79023C19.8899 8.97758 19.9952 9.23168 19.9952 9.49664V15.3308C19.9952 15.5958 20.1005 15.8499 20.2879 16.0372C20.4754 16.2246 20.7296 16.3298 20.9947 16.3298C21.2598 16.3298 21.514 16.2246 21.7015 16.0372C21.8889 15.8499 21.9942 15.5958 21.9942 15.3308V9.49664C21.9942 8.70178 21.6783 7.93947 21.116 7.37742C20.5536 6.81537 19.7909 6.49962 18.9957 6.49962Z" fill="#0C0C1B"/>
</svg>
