<svg width="24" height="24" viewBox="0 0 24 24" fill="none" xmlns="http://www.w3.org/2000/svg">
<path d="M8.51725 12.4819C8.31926 12.4819 8.12572 12.5405 7.96109 12.6504C7.79647 12.7602 7.66816 12.9164 7.59239 13.0991C7.51662 13.2818 7.4968 13.4828 7.53543 13.6767C7.57405 13.8707 7.66939 14.0488 7.8094 14.1887C7.9494 14.3285 8.12777 14.4237 8.32196 14.4623C8.51614 14.5009 8.71742 14.4811 8.90034 14.4054C9.08326 14.3297 9.23961 14.2016 9.34961 14.0372C9.45961 13.8727 9.51832 13.6794 9.51832 13.4817C9.51832 13.2165 9.41285 12.9622 9.22511 12.7747C9.03738 12.5872 8.78275 12.4819 8.51725 12.4819ZM8.51725 8.00278C8.31926 8.00278 8.12572 8.06142 7.96109 8.17128C7.79647 8.28114 7.66816 8.43728 7.59239 8.61998C7.51662 8.80266 7.4968 9.00369 7.53543 9.19763C7.57405 9.39158 7.66939 9.56972 7.8094 9.70955C7.9494 9.84937 8.12777 9.9446 8.32196 9.98317C8.51614 10.0218 8.71742 10.002 8.90034 9.92628C9.08326 9.85061 9.23961 9.72246 9.34961 9.55804C9.45961 9.39363 9.51832 9.20032 9.51832 9.00258C9.51832 8.73742 9.41285 8.48312 9.22511 8.29562C9.03738 8.10812 8.78275 8.00278 8.51725 8.00278ZM12.011 10.0024C11.7455 10.0024 11.4908 10.1077 11.3031 10.2952C11.1154 10.4827 11.0099 10.737 11.0099 11.0022V12.002C11.0099 12.2672 11.1154 12.5215 11.3031 12.709C11.4908 12.8965 11.7455 13.0018 12.011 13.0018C12.2765 13.0018 12.5311 12.8965 12.7188 12.709C12.9066 12.5215 13.012 12.2672 13.012 12.002V11.0022C13.012 10.737 12.9066 10.4827 12.7188 10.2952C12.5311 10.1077 12.2765 10.0024 12.011 10.0024ZM20.52 8.57267C20.1747 8.37422 19.7932 8.24638 19.398 8.19661C19.0027 8.14683 18.6014 8.1761 18.2176 8.28273C17.8181 8.3896 17.446 8.58049 17.1264 8.84261L5.51406 2.13395C5.36188 2.0462 5.18926 2 5.01353 2C4.83781 2 4.66518 2.0462 4.513 2.13395C4.35837 2.22076 4.22961 2.34704 4.13991 2.49988C4.0502 2.65272 4.00276 2.82661 4.00246 3.00378V16.1712C3.41169 16.3702 2.89946 16.7514 2.53963 17.26C2.1798 17.7685 1.99096 18.378 2.00033 19.0006C2.00005 19.7824 2.30544 20.5335 2.85145 21.0937C3.39745 21.654 4.1409 21.9792 4.92344 22H5.50405C8.78427 21.9923 12.0041 21.1179 14.8365 19.4655C17.6689 17.8131 20.0132 15.4417 21.6312 12.5919C22.0049 11.91 22.0989 11.1099 21.8935 10.3601C21.6881 9.61035 21.1992 8.96951 20.53 8.57267H20.52ZM6.00459 4.73343L15.9051 10.4423C14.8067 12.0792 13.3384 13.4352 11.6185 14.4008C9.89872 15.3665 7.97565 15.9147 6.00459 16.0012V4.73343ZM19.8893 11.6121C18.4032 14.2272 16.2328 16.3894 13.6106 17.867C10.9884 19.3447 8.0132 20.0821 5.00352 20.0004C4.73802 20.0004 4.4834 19.8951 4.29566 19.7076C4.10793 19.5201 4.00246 19.2658 4.00246 19.0006C4.00168 18.8666 4.02786 18.7339 4.07945 18.6102C4.13104 18.4866 4.20698 18.3745 4.30278 18.2807C4.49084 18.0997 4.74232 17.9992 5.00352 18.0008H5.51406C8.08451 17.9998 10.6086 17.317 12.8282 16.0224C15.0479 14.7277 16.8835 12.8677 18.1475 10.6323C18.2082 10.5226 18.2913 10.4268 18.3913 10.3511C18.4912 10.2753 18.606 10.2212 18.7281 10.1923C18.9805 10.1232 19.25 10.1555 19.4789 10.2823C19.7086 10.4056 19.881 10.6136 19.9595 10.8619C20.0381 11.1102 20.0165 11.3794 19.8993 11.6121H19.8893Z" fill="#0C0C1B"/>
</svg>
