<svg width="28" height="42" viewBox="0 0 28 42" fill="none" xmlns="http://www.w3.org/2000/svg">
    <path d="M13.9999 0.428574C6.42574 0.428574 0.285645 6.56867 0.285645 14.1429C0.285645 20.7238 4.92094 26.2221 11.1048 27.551L13.9999 35.1429L16.8951 27.551C23.0789 26.2221 27.7142 20.7238 27.7142 14.1429C27.7142 6.56867 21.5741 0.428574 13.9999 0.428574Z" fill="#FF7A00"/>
    <path d="M13.9999 41.5714C14.9467 41.5714 15.7142 40.8039 15.7142 39.8571C15.7142 38.9104 14.9467 38.1429 13.9999 38.1429C13.0532 38.1429 12.2856 38.9104 12.2856 39.8571C12.2856 40.8039 13.0532 41.5714 13.9999 41.5714Z" fill="#FF7A00"/>
    <ellipse cx="14.0001" cy="14.1429" rx="4.28572" ry="4.28571" fill="white"/>
</svg>
