<svg width="24" height="24" viewBox="0 0 24 24" fill="none" xmlns="http://www.w3.org/2000/svg">
<path d="M22.97 9.53139C23.0323 9.29149 22.9968 9.03838 22.8703 8.82177C22.5475 8.29669 22.1173 7.83652 21.6043 7.46769C21.0914 7.09886 20.5057 6.82861 19.8811 6.67245C19.2564 6.5163 18.605 6.47731 17.9642 6.55773C17.3234 6.63815 16.7059 6.83639 16.1471 7.14108L14.0056 8.29889L9.02535 6.10465C8.88377 6.03589 8.72664 6 8.56717 6C8.40771 6 8.25058 6.03589 8.109 6.10465L5.12087 7.71998C4.97319 7.79984 4.84985 7.91388 4.76265 8.05121C4.67545 8.18854 4.62732 8.34455 4.62285 8.50431C4.61802 8.66525 4.65768 8.82463 4.73796 8.96697C4.81824 9.1093 4.93642 9.22976 5.08103 9.31664L8.36797 11.2588L6.63485 12.1925L1.87377 12.734C1.68237 12.7562 1.50197 12.83 1.35445 12.9465C1.20694 13.0629 1.09866 13.217 1.04276 13.3901C0.98686 13.5631 0.985746 13.7476 1.03955 13.9212C1.09336 14.0948 1.19977 14.25 1.34586 14.3681L4.87186 17.2252C5.33606 17.6405 5.93055 17.9047 6.56737 17.9787C7.20418 18.0527 7.84949 17.9326 8.40781 17.6361L22.4719 10.101C22.5918 10.0426 22.6978 9.96207 22.7834 9.86415C22.869 9.76624 22.9325 9.65302 22.97 9.53139ZM7.50141 16.0674C7.31008 16.1661 7.08945 16.2031 6.87348 16.1728C6.65752 16.1424 6.45818 16.0463 6.30616 15.8993L4.41368 14.3774L7.13287 14.0693C7.2665 14.0532 7.39526 14.0119 7.51137 13.9479L10.8581 12.1458C11.0072 12.0651 11.1314 11.9496 11.2187 11.8105C11.306 11.6714 11.3533 11.5135 11.3561 11.3521C11.3581 11.1919 11.3161 11.0338 11.2342 10.8932C11.1522 10.7526 11.0329 10.6341 10.888 10.5491L7.60101 8.59768L8.69666 8.00944L13.6769 10.1757C13.8185 10.2444 13.9756 10.2803 14.1351 10.2803C14.2945 10.2803 14.4516 10.2444 14.5932 10.1757L17.1431 8.79376C17.6656 8.51925 18.2641 8.39829 18.8609 8.44657C19.4577 8.49485 20.0252 8.71016 20.4898 9.06454L7.50141 16.0674Z" fill="#0C0C1B"/>
</svg>
