<svg width="24" height="24" viewBox="0 0 24 24" fill="none" xmlns="http://www.w3.org/2000/svg">
<path d="M22 12.015C21.9994 11.8306 21.9464 11.6499 21.8468 11.493C21.7472 11.3361 21.605 11.2092 21.4359 11.1262L15.159 8.07036V4.07581C15.159 3.26005 14.8261 2.47771 14.2337 1.90088C13.6413 1.32406 12.8378 1 12 1C11.1622 1 10.3587 1.32406 9.76628 1.90088C9.17386 2.47771 8.84104 3.26005 8.84104 4.07581V8.07036L2.56414 11.1262C2.39499 11.2092 2.25276 11.3361 2.15319 11.493C2.05362 11.6499 2.00061 11.8306 2.00004 12.015V15.3404C1.99864 15.5031 2.03809 15.6637 2.11496 15.8081C2.19182 15.9526 2.30377 16.0766 2.44106 16.1693C2.57757 16.2604 2.73469 16.3179 2.899 16.3371C3.06331 16.3562 3.22993 16.3363 3.38465 16.2792L8.84104 14.2819V18.0068L6.97438 18.606C6.77066 18.673 6.59373 18.8006 6.46858 18.9709C6.34342 19.1411 6.27639 19.3453 6.27694 19.5547V22.0014C6.27751 22.1335 6.30499 22.2642 6.35781 22.3859C6.41063 22.5076 6.48772 22.6179 6.58463 22.7104C6.77567 22.8949 7.03352 22.9989 7.30258 23H16.7077C16.9797 23 17.2406 22.8948 17.4329 22.7075C17.6253 22.5202 17.7333 22.2662 17.7333 22.0014V19.5048C17.7339 19.2954 17.6668 19.0912 17.5417 18.9209C17.4165 18.7507 17.2396 18.6231 17.0359 18.5561L15.159 18.0068V14.2919L20.6154 16.2892C20.7701 16.3463 20.9367 16.3662 21.101 16.3471C21.2653 16.3279 21.4224 16.2704 21.5589 16.1793C21.6962 16.0866 21.8082 15.9626 21.885 15.8181C21.9619 15.6737 22.0014 15.5131 22 15.3504V12.015ZM14.5026 11.9151C14.3464 11.8562 14.1779 11.8355 14.0116 11.8546C13.8453 11.8738 13.6864 11.9322 13.5487 12.025C13.4129 12.1167 13.3018 12.2391 13.225 12.3817C13.1482 12.5243 13.108 12.6828 13.1077 12.8438V18.6759C13.1078 18.8865 13.1764 19.0916 13.3035 19.262C13.4306 19.4324 13.6097 19.5593 13.8154 19.6246L15.6718 20.2238V21.0027H8.31796V20.2238L10.1744 19.6246C10.38 19.5593 10.5592 19.4324 10.6863 19.262C10.8134 19.0916 10.8819 18.8865 10.8821 18.6759V12.8438C10.8818 12.6828 10.8415 12.5243 10.7647 12.3817C10.688 12.2391 10.5769 12.1167 10.441 12.025C10.3033 11.9322 10.1444 11.8738 9.97813 11.8546C9.81187 11.8355 9.64331 11.8562 9.48719 11.9151L4.04105 13.9124V12.6341L10.3077 9.5783C10.4788 9.4967 10.6231 9.37033 10.7245 9.21335C10.826 9.05637 10.8805 8.87498 10.8821 8.68951V4.10576C10.8821 3.81972 10.9988 3.54539 11.2065 3.34313C11.4142 3.14087 11.696 3.02724 11.9897 3.02724C12.2835 3.02724 12.5653 3.14087 12.773 3.34313C12.9807 3.54539 13.0974 3.81972 13.0974 4.10576V8.68951C13.099 8.87498 13.1535 9.05637 13.2549 9.21335C13.3564 9.37033 13.5007 9.4967 13.6718 9.5783L19.9384 12.6341V13.9024L14.5026 11.9151Z" fill="#0C0C1B"/>
</svg>
