<svg width="24" height="24" viewBox="0 0 24 24" fill="none" xmlns="http://www.w3.org/2000/svg">
<path d="M22 5.08345C22.0008 4.47383 21.8206 3.87767 21.4823 3.37052C21.1439 2.86336 20.6626 2.46804 20.0993 2.23463C19.536 2.00122 18.9161 1.94024 18.3181 2.0594C17.7201 2.17856 17.1709 2.47251 16.7402 2.904L13.9303 5.7133L7.44057 3.55384C7.26778 3.49954 7.08349 3.49319 6.90737 3.53544C6.73125 3.5777 6.56992 3.66699 6.44061 3.79378L4.06071 6.15319C3.94794 6.26723 3.86427 6.40673 3.81676 6.5599C3.76925 6.71308 3.75929 6.87543 3.78773 7.03325C3.81616 7.19108 3.88215 7.33976 3.98014 7.46673C4.07812 7.5937 4.20521 7.69524 4.35069 7.76278L9.53048 10.1122L6.93059 12.7115L5.22066 11.8518C5.03604 11.7519 4.82466 11.7126 4.61647 11.7395C4.40828 11.7664 4.21384 11.8582 4.06071 12.0017L2.29078 13.8113C2.10454 13.9986 2 14.252 2 14.5161C2 14.7802 2.10454 15.0336 2.29078 15.2209L8.78051 21.7093C8.96786 21.8955 9.2213 22 9.48548 22C9.74965 22 10.0031 21.8955 10.1904 21.7093L12.0004 19.9397C12.1505 19.7912 12.2497 19.5991 12.2838 19.3907C12.3179 19.1824 12.2852 18.9686 12.1904 18.78L11.3304 17.0704L13.9303 14.4711L16.2802 19.6498C16.3478 19.7952 16.4493 19.9223 16.5763 20.0203C16.7033 20.1182 16.852 20.1842 17.0099 20.2126C17.1677 20.2411 17.3301 20.2311 17.4833 20.1836C17.6365 20.1361 17.7761 20.0525 17.8901 19.9397L20.25 17.5803C20.3768 17.451 20.4661 17.2897 20.5084 17.1136C20.5507 16.9376 20.5443 16.7533 20.49 16.5806L18.3301 10.0922L21.1 7.26291C21.3872 6.97754 21.6147 6.63786 21.7692 6.26367C21.9237 5.88948 22.0022 5.48827 22 5.08345ZM19.6801 5.85326L16.4402 9.09245C16.3134 9.22174 16.2241 9.38303 16.1818 9.55911C16.1395 9.7352 16.1459 9.91945 16.2002 10.0922L18.3601 16.5706L17.4601 17.4703L15.1102 12.3016C15.0435 12.1548 14.9423 12.0264 14.8152 11.9271C14.6881 11.8279 14.5389 11.7609 14.3803 11.7318C14.2203 11.7026 14.0557 11.7128 13.9006 11.7616C13.7456 11.8104 13.6047 11.8962 13.4903 12.0117L9.37048 16.1707C9.22258 16.3184 9.1247 16.5088 9.09062 16.715C9.05654 16.9212 9.08797 17.1329 9.18049 17.3204L10.0005 19L9.44048 19.5598L4.41069 14.5211L5.00067 14.0012L6.7106 14.861C6.89808 14.9535 7.10984 14.9849 7.31611 14.9509C7.52239 14.9168 7.71279 14.8189 7.86055 14.671L12.0004 10.5121C12.1153 10.3981 12.2008 10.258 12.2496 10.1037C12.2983 9.94935 12.3089 9.78552 12.2804 9.62623C12.2519 9.46694 12.1851 9.31695 12.0858 9.18915C11.9865 9.06134 11.8577 8.95955 11.7104 8.8925L6.5006 6.54309L7.40057 5.64331L13.8803 7.80277C14.0531 7.85707 14.2374 7.86342 14.4135 7.82117C14.5896 7.77891 14.7509 7.68962 14.8803 7.56283L18.1201 4.32365C18.2198 4.22177 18.3388 4.14083 18.4701 4.08557C18.6015 4.03031 18.7426 4.00184 18.8851 4.00184C19.0276 4.00184 19.1687 4.03031 19.3 4.08557C19.4314 4.14083 19.5504 4.22177 19.6501 4.32365C19.7544 4.42027 19.8369 4.53802 19.892 4.66904C19.9472 4.80006 19.9738 4.94134 19.97 5.08345C19.9755 5.22462 19.9526 5.36544 19.9028 5.49764C19.853 5.62984 19.7773 5.75075 19.6801 5.85326Z" fill="#0C0C1B"/>
</svg>
