<svg width="24" height="24" viewBox="0 0 24 24" fill="none" xmlns="http://www.w3.org/2000/svg">
<path fill-rule="evenodd" clip-rule="evenodd" d="M21.7071 2.29289C22.0059 2.59172 22.0846 3.04615 21.9037 3.42808L13.3774 21.4281C13.1966 21.8098 12.7955 22.0368 12.3751 21.9951C11.9548 21.9535 11.606 21.6523 11.5035 21.2425L9.75432 14.2457L2.75746 12.4965C2.3477 12.394 2.04648 12.0452 2.00486 11.6249C1.96324 11.2045 2.19019 10.8034 2.57191 10.6226L20.5719 2.09626C20.9538 1.91534 21.4083 1.99406 21.7071 2.29289ZM5.95334 11.2339L10.8215 12.4509C11.1798 12.5405 11.4595 12.8202 11.5491 13.1785L12.7661 18.0466L18.8976 5.10238L5.95334 11.2339Z"/>
</svg>
