<svg width="24" height="24" viewBox="0 0 24 24" fill="none" xmlns="http://www.w3.org/2000/svg">
<path d="M18 7.00387H17.65C17.8782 6.53676 17.9979 6.02411 18 5.50426C18.003 4.80777 17.7975 4.12631 17.4098 3.5476C17.0221 2.96889 16.4701 2.51941 15.8247 2.25704C15.1794 1.99466 14.4703 1.93138 13.7886 2.07536C13.107 2.21933 12.4841 2.56396 12 3.06489C11.5159 2.56396 10.893 2.21933 10.2114 2.07536C9.52975 1.93138 8.82061 1.99466 8.17525 2.25704C7.5299 2.51941 6.97786 2.96889 6.59019 3.5476C6.20252 4.12631 5.99697 4.80777 6 5.50426C6.00213 6.02411 6.12178 6.53676 6.35 7.00387H6C5.20435 7.00387 4.44129 7.31986 3.87868 7.88233C3.31607 8.44479 3 9.20765 3 10.0031V12.0026C3 12.2677 3.10536 12.522 3.29289 12.7095C3.48043 12.897 3.73478 13.0023 4 13.0023H5V19.0008C5 19.7962 5.31607 20.5591 5.87868 21.1215C6.44129 21.684 7.20435 22 8 22H16C16.7956 22 17.5587 21.684 18.1213 21.1215C18.6839 20.5591 19 19.7962 19 19.0008V13.0023H20C20.2652 13.0023 20.5196 12.897 20.7071 12.7095C20.8946 12.522 21 12.2677 21 12.0026V10.0031C21 9.20765 20.6839 8.44479 20.1213 7.88233C19.5587 7.31986 18.7956 7.00387 18 7.00387ZM11 20.0005H8C7.73478 20.0005 7.48043 19.8952 7.29289 19.7077C7.10536 19.5202 7 19.2659 7 19.0008V13.0023H11V20.0005ZM11 11.0028H5V10.0031C5 9.73795 5.10536 9.48366 5.29289 9.29617C5.48043 9.10869 5.73478 9.00336 6 9.00336H11V11.0028ZM11 7.00387H9.5C9.20333 7.00387 8.91332 6.91592 8.66665 6.75114C8.41997 6.58636 8.22771 6.35215 8.11418 6.07814C8.00065 5.80412 7.97094 5.5026 8.02882 5.2117C8.0867 4.9208 8.22956 4.6536 8.43934 4.44387C8.64912 4.23415 8.91639 4.09132 9.20736 4.03346C9.49834 3.9756 9.79994 4.0053 10.074 4.1188C10.3481 4.2323 10.5824 4.42451 10.7472 4.67112C10.912 4.91773 11 5.20766 11 5.50426V7.00387ZM13 5.50426C13 5.20766 13.088 4.91773 13.2528 4.67112C13.4176 4.42451 13.6519 4.2323 13.926 4.1188C14.2001 4.0053 14.5017 3.9756 14.7926 4.03346C15.0836 4.09132 15.3509 4.23415 15.5607 4.44387C15.7704 4.6536 15.9133 4.9208 15.9712 5.2117C16.0291 5.5026 15.9994 5.80412 15.8858 6.07814C15.7723 6.35215 15.58 6.58636 15.3334 6.75114C15.0867 6.91592 14.7967 7.00387 14.5 7.00387H13V5.50426ZM17 19.0008C17 19.2659 16.8946 19.5202 16.7071 19.7077C16.5196 19.8952 16.2652 20.0005 16 20.0005H13V13.0023H17V19.0008ZM19 11.0028H13V9.00336H18C18.2652 9.00336 18.5196 9.10869 18.7071 9.29617C18.8946 9.48366 19 9.73795 19 10.0031V11.0028Z" fill="#0C0C1B"/>
</svg>
