<svg width="24" height="24" viewBox="0 0 24 24" fill="none" xmlns="http://www.w3.org/2000/svg">
<path d="M7.00162 10.0001C6.80394 10.0001 6.61069 10.0588 6.44632 10.1686C6.28196 10.2784 6.15385 10.4345 6.0782 10.6171C6.00255 10.7998 5.98275 11.0007 6.02132 11.1946C6.05988 11.3885 6.15508 11.5666 6.29486 11.7064C6.43464 11.8462 6.61274 11.9414 6.80662 11.9799C7.00051 12.0185 7.20148 11.9987 7.38411 11.9231C7.56675 11.8474 7.72285 11.7193 7.83268 11.5549C7.9425 11.3906 8.00112 11.1973 8.00112 10.9996C8.00112 10.7346 7.89582 10.4803 7.70838 10.2929C7.52093 10.1054 7.2667 10.0001 7.00162 10.0001ZM3.71324 2.29395C3.62005 2.20075 3.50942 2.12683 3.38765 2.07639C3.26589 2.02596 3.13539 2 3.0036 2C2.8718 2 2.7413 2.02596 2.61954 2.07639C2.49777 2.12683 2.38714 2.20075 2.29395 2.29395C2.10574 2.48216 2 2.73743 2 3.0036C2 3.26977 2.10574 3.52503 2.29395 3.71324L4.62279 6.00211C3.89505 6.09502 3.22662 6.4515 2.74403 7.00409C2.26144 7.55667 1.99818 8.267 2.00409 9.00063V14.9977C2.00409 15.7929 2.32 16.5556 2.88234 17.1179C3.44467 17.6803 4.20735 17.9962 5.00261 17.9962H6.00211V20.9947C6.00211 21.2598 6.10742 21.514 6.29486 21.7015C6.48231 21.8889 6.73653 21.9942 7.00162 21.9942H16.9967C17.2618 21.9942 17.516 21.8889 17.7034 21.7015C17.8909 21.514 17.9962 21.2598 17.9962 20.9947V19.4055L20.2851 21.7043C20.378 21.798 20.4885 21.8724 20.6103 21.9231C20.7321 21.9739 20.8628 22 20.9947 22C21.1266 22 21.2573 21.9739 21.3791 21.9231C21.5009 21.8724 21.6114 21.798 21.7043 21.7043C21.798 21.6114 21.8724 21.5009 21.9231 21.3791C21.9739 21.2573 22 21.1266 22 20.9947C22 20.8628 21.9739 20.7321 21.9231 20.6103C21.8724 20.4885 21.798 20.378 21.7043 20.2851L3.71324 2.29395ZM6.00211 14.9977V15.9972H5.00261C4.73752 15.9972 4.48329 15.8919 4.29585 15.7044C4.10841 15.517 4.0031 15.2627 4.0031 14.9977V9.00063C4.0031 8.73554 4.10841 8.48132 4.29585 8.29387C4.48329 8.10643 4.73752 8.00112 5.00261 8.00112H6.59182L12.5889 13.9982H7.00162C6.73653 13.9982 6.48231 14.1035 6.29486 14.2909C6.10742 14.4784 6.00211 14.7326 6.00211 14.9977ZM15.9972 19.9952H8.00112V15.9972H14.5879L15.9972 17.4065V19.9952ZM18.9957 6.00211H17.9962V3.0036C17.9962 2.73851 17.8909 2.48428 17.7034 2.29684C17.516 2.10939 17.2618 2.00409 16.9967 2.00409H8.6608C8.39571 2.00409 8.14148 2.10939 7.95404 2.29684C7.7666 2.48428 7.66129 2.73851 7.66129 3.0036C7.66129 3.26868 7.7666 3.52291 7.95404 3.71035C8.14148 3.8978 8.39571 4.0031 8.6608 4.0031H15.9972V6.00211H12.6588C12.3937 6.00211 12.1395 6.10742 11.9521 6.29486C11.7646 6.48231 11.6593 6.73653 11.6593 7.00162C11.6593 7.2667 11.7646 7.52093 11.9521 7.70838C12.1395 7.89582 12.3937 8.00112 12.6588 8.00112H18.9957C19.2608 8.00112 19.515 8.10643 19.7024 8.29387C19.8899 8.48132 19.9952 8.73554 19.9952 9.00063V14.9977C20.0007 15.0341 20.0007 15.0712 19.9952 15.1076C19.9689 15.2362 19.9682 15.3688 19.9932 15.4977C20.0182 15.6266 20.0683 15.7493 20.1407 15.8588C20.2131 15.9684 20.3063 16.0625 20.4151 16.136C20.5239 16.2095 20.6462 16.2608 20.7748 16.287H20.9747C21.2085 16.2917 21.4366 16.2143 21.6192 16.0682C21.8019 15.9221 21.9275 15.7166 21.9742 15.4874C21.995 15.3251 22.0017 15.1612 21.9942 14.9977V9.00063C21.9942 8.20537 21.6783 7.44269 21.116 6.88036C20.5536 6.31803 19.7909 6.00211 18.9957 6.00211Z" fill="#0C0C1B"/>
</svg>
