<svg width="24" height="24" viewBox="0 0 24 24" fill="none" xmlns="http://www.w3.org/2000/svg">
<path d="M15.3325 9.5C15.3325 8.72952 15.0782 7.98058 14.6092 7.36932C14.1402 6.75807 13.4825 6.31866 12.7383 6.11925C11.9941 5.91984 11.2048 5.97157 10.493 6.26642C9.78117 6.56126 9.18652 7.08275 8.80127 7.75C8.66882 7.97972 8.63302 8.25264 8.70174 8.50875C8.77046 8.76486 8.93808 8.9832 9.16774 9.11577C9.39739 9.24833 9.67029 9.28427 9.92644 9.21568C10.1826 9.14709 10.401 8.97959 10.5337 8.75C10.6655 8.52218 10.8549 8.33299 11.0828 8.20137C11.3108 8.06974 11.5693 8.0003 11.8325 8C12.2303 8 12.6119 8.15803 12.8932 8.43934C13.1745 8.72064 13.3325 9.10217 13.3325 9.5C13.3325 9.89782 13.1745 10.2794 12.8932 10.5607C12.6119 10.842 12.2303 11 11.8325 11H11.8301C11.7658 11.0064 11.7024 11.0194 11.6408 11.0387C11.5734 11.0457 11.5069 11.0593 11.4422 11.0793C11.3871 11.1093 11.3351 11.1444 11.2867 11.1842C11.2292 11.2154 11.175 11.2522 11.1247 11.2939C11.0797 11.3476 11.0405 11.4058 11.0076 11.4676C10.9712 11.5127 10.9388 11.561 10.9109 11.6118C10.8892 11.6807 10.8748 11.7518 10.8681 11.8237C10.8507 11.8812 10.8388 11.9402 10.8325 12V13L10.8348 13.0113L10.8359 13.5024C10.8366 13.7672 10.9423 14.0209 11.1297 14.2079C11.3172 14.3949 11.5712 14.5 11.8359 14.5H11.8384C12.1036 14.4993 12.3577 14.3934 12.5448 14.2054C12.7318 14.0174 12.8366 13.7628 12.8359 13.4976L12.8344 12.8362C13.554 12.6223 14.1855 12.1823 14.6354 11.5814C15.0854 10.9805 15.3298 10.2507 15.3325 9.5ZM11.1299 16.29C10.9895 16.4293 10.8935 16.607 10.8541 16.8008C10.8147 16.9946 10.8337 17.1957 10.9086 17.3787C10.9834 17.5617 11.1109 17.7184 11.2749 17.829C11.4388 17.9396 11.6318 17.9991 11.8296 18C12.0948 17.9978 12.3491 17.894 12.54 17.71C12.7256 17.5203 12.8296 17.2654 12.8296 17C12.8296 16.7346 12.7256 16.4798 12.54 16.2901C12.3486 16.1117 12.0967 16.0125 11.835 16.0125C11.5733 16.0124 11.3213 16.1116 11.1299 16.29Z" fill="#0C0C1B"/>
</svg>
