<svg width="24" height="24" viewBox="0 0 24 24" fill="none" xmlns="http://www.w3.org/2000/svg">
<path d="M21.6666 15.5754L17.1561 11.0662C17.2505 10.6057 17.2973 10.1366 17.2958 9.6665C17.2955 8.37739 16.9708 7.10918 16.3517 5.97907C15.7327 4.84897 14.8393 3.89345 13.7542 3.20085C12.669 2.50824 11.4271 2.1009 10.1432 2.01647C8.85933 1.93204 7.57493 2.17324 6.40872 2.7178C6.26097 2.78542 6.13193 2.88816 6.0328 3.0171C5.93368 3.14603 5.86747 3.29727 5.83992 3.45766C5.81248 3.61602 5.82355 3.77867 5.87219 3.93183C5.92083 4.08499 6.0056 4.22414 6.11933 4.33749L10.4602 8.67669L8.66398 10.4763L4.33309 6.12716C4.219 6.01498 4.07968 5.93191 3.92686 5.88493C3.77404 5.83796 3.61219 5.82845 3.45494 5.85721C3.29585 5.8838 3.14557 5.94863 3.01697 6.04614C2.88836 6.14365 2.78526 6.27094 2.71649 6.41711C2.17116 7.58939 1.93063 8.88083 2.01726 10.1713C2.10388 11.4617 2.51486 12.7092 3.21196 13.7978C3.90906 14.8864 4.86963 15.7806 6.00431 16.3973C7.139 17.014 8.41093 17.3332 9.70179 17.3251C10.171 17.3266 10.6392 17.2797 11.0989 17.1851L15.5994 21.7043C15.6921 21.798 15.8025 21.8723 15.9241 21.9231C16.0457 21.9739 16.1762 22 16.3079 22C16.4396 22 16.5701 21.9739 16.6917 21.9231C16.8133 21.8723 16.9236 21.798 17.0164 21.7043C17.1099 21.6113 17.1842 21.5007 17.2348 21.3789C17.2855 21.2571 17.3116 21.1264 17.3116 20.9944C17.3116 20.8624 17.2855 20.7317 17.2348 20.6099C17.1842 20.488 17.1099 20.3775 17.0164 20.2845L12.1267 15.3854C12.0045 15.2638 11.853 15.176 11.6868 15.1304C11.5207 15.0849 11.3457 15.0832 11.1787 15.1255C10.6969 15.2548 10.2006 15.322 9.70179 15.3254C8.95541 15.332 8.2151 15.1906 7.52352 14.9093C6.83193 14.628 6.20273 14.2124 5.67216 13.6864C5.1416 13.1603 4.72015 12.5344 4.4321 11.8444C4.14405 11.1545 3.99509 10.4143 3.9938 9.6665C3.99251 9.33158 4.01921 8.99714 4.07364 8.66669L7.9854 12.596C8.07817 12.6897 8.18854 12.764 8.31014 12.8148C8.43175 12.8656 8.56218 12.8917 8.69391 12.8917C8.82565 12.8917 8.95608 12.8656 9.07768 12.8148C9.19928 12.764 9.30965 12.6897 9.40242 12.596L12.5757 9.38655C12.7556 9.20012 12.8561 8.95097 12.8561 8.69168C12.8561 8.43239 12.7556 8.18324 12.5757 7.99681L8.69391 4.07754C9.0238 4.02357 9.35755 3.99681 9.69181 3.99756C11.1907 4.00021 12.6273 4.59864 13.6862 5.66148C14.7452 6.72433 15.3399 8.16473 15.3399 9.6665C15.3364 10.1662 15.2694 10.6635 15.1403 11.1462C15.0981 11.3135 15.0998 11.4889 15.1453 11.6554C15.1907 11.8218 15.2784 11.9736 15.3998 12.096L20.2895 16.9951C20.4774 17.1834 20.7323 17.2892 20.998 17.2892C21.2638 17.2892 21.5186 17.1834 21.7065 16.9951C21.8944 16.8069 22 16.5515 22 16.2853C22 16.019 21.8944 15.7637 21.7065 15.5754H21.6666Z" fill="#0C0C1B"/>
</svg>
