<svg width="24" height="24" viewBox="0 0 24 24" fill="none" xmlns="http://www.w3.org/2000/svg">
<path d="M14.2899 6.29555C14.1961 6.38844 14.1217 6.49895 14.071 6.62071C14.0202 6.74247 13.9941 6.87307 13.9941 7.00497C13.9941 7.13687 14.0202 7.26747 14.071 7.38923C14.1217 7.51099 14.1961 7.6215 14.2899 7.71438L17.5898 11.0017L3.99999 11.0017C3.73477 11.0017 3.48042 11.1069 3.29289 11.2943C3.10536 11.4817 3 11.7359 3 12.0009C3 12.2659 3.10536 12.52 3.29289 12.7074C3.48042 12.8948 3.73477 13 3.99999 13L17.5898 13L14.2899 16.2873C14.1016 16.4755 13.9958 16.7307 13.9958 16.9967C13.9958 17.2628 14.1016 17.518 14.2899 17.7061C14.4782 17.8943 14.7335 18 14.9998 18C15.2661 18 15.5215 17.8943 15.7098 17.7061L20.7098 12.7103C20.8008 12.6152 20.8722 12.5032 20.9198 12.3805C20.9727 12.2609 21 12.1316 21 12.0009C21 11.8701 20.9727 11.7408 20.9198 11.6212C20.8722 11.4985 20.8008 11.3865 20.7098 11.2914L15.7098 6.29555C15.6169 6.2019 15.5063 6.12757 15.3844 6.07684C15.2626 6.02611 15.1319 6 14.9998 6C14.8678 6 14.7371 6.02611 14.6153 6.07684C14.4934 6.12757 14.3828 6.2019 14.2899 6.29555Z" fill="#0C0C1B"/>
</svg>
