<svg width="24" height="24" viewBox="0 0 24 24" fill="none" xmlns="http://www.w3.org/2000/svg">
<path d="M22.601 2.06199C22.5559 1.89071 22.4661 1.73447 22.3409 1.60923C22.2156 1.48398 22.0594 1.39422 21.8881 1.3491C19.8368 0.816284 17.6766 0.873671 15.6564 1.51465C13.6362 2.15562 11.8381 3.35413 10.4692 4.97216L9.35426 6.29599L6.74946 5.66751C6.1162 5.44673 5.42444 5.46256 4.80194 5.71205C4.17943 5.96155 3.66823 6.42787 3.36274 7.02489L1.16255 10.9248C1.08546 11.0614 1.04158 11.2142 1.03447 11.3709C1.02737 11.5276 1.05722 11.6838 1.12163 11.8268C1.18603 11.9698 1.28318 12.0957 1.40523 12.1942C1.52727 12.2927 1.67078 12.3612 1.82417 12.394L4.89692 13.0527C4.63663 13.845 4.45077 14.6599 4.34175 15.4868C4.32198 15.6387 4.33737 15.7931 4.38673 15.9381C4.43608 16.0831 4.51808 16.2149 4.62641 16.3232L7.72651 19.4233C7.81933 19.5162 7.92954 19.5899 8.05085 19.6401C8.17216 19.6904 8.30219 19.7163 8.43351 19.7163C8.46232 19.7163 8.49113 19.7148 8.52043 19.7124C9.36577 19.6364 10.2008 19.4722 11.012 19.2224L11.6557 22.2256C11.6886 22.3789 11.7571 22.5224 11.8556 22.6444C11.9542 22.7664 12.08 22.8635 12.223 22.9279C12.366 22.9923 12.5221 23.0221 12.6788 23.0151C12.8355 23.008 12.9883 22.9642 13.1249 22.8872L17.0302 20.6845C17.5798 20.3506 18.0092 19.8506 18.2563 19.2569C18.5034 18.6631 18.5556 18.0061 18.4052 17.3808L17.7365 14.6218L18.9735 13.4843C20.5976 12.1192 21.8007 10.321 22.4429 8.29894C23.0851 6.27686 23.1399 4.11401 22.601 2.06199ZM3.57222 10.7231L5.12837 7.96337C5.22502 7.77601 5.3897 7.63273 5.58862 7.56291C5.78754 7.49309 6.00564 7.50202 6.19819 7.58788L7.9156 8.00408L7.2656 8.77587C6.64936 9.51444 6.11637 10.3187 5.67628 11.174L3.57222 10.7231ZM16.0424 18.9453L13.3266 20.477L12.8971 18.4723C13.7677 18.0382 14.5789 17.4937 15.3105 16.8525L16.054 16.1688L16.4575 17.8334C16.5098 18.039 16.4981 18.2556 16.4239 18.4543C16.3497 18.653 16.2166 18.8243 16.0424 18.9453ZM17.6567 11.98L13.9721 15.3662C12.5137 16.6275 10.7147 17.4292 8.80171 17.6704L6.39741 15.2661C6.72033 13.3481 7.54912 11.551 8.79829 10.0601L10.4766 8.06743C10.5046 8.03818 10.5307 8.0072 10.5548 7.97467L11.9897 6.27099C13.0507 5.01788 14.4252 4.06879 15.9729 3.52063C17.5206 2.97247 19.1861 2.84487 20.7993 3.15087C21.1127 4.76908 20.9864 6.44173 20.4337 7.99459C19.881 9.54744 18.922 10.9237 17.6567 11.98ZM16.7337 5.81623C16.437 5.81623 16.147 5.9042 15.9003 6.06902C15.6537 6.23384 15.4614 6.46811 15.3479 6.7422C15.2343 7.01629 15.2046 7.31789 15.2625 7.60886C15.3204 7.89983 15.4632 8.16711 15.673 8.37688C15.8828 8.58666 16.1501 8.72953 16.4411 8.7874C16.732 8.84528 17.0336 8.81558 17.3077 8.70204C17.5818 8.58851 17.8161 8.39625 17.9809 8.14958C18.1457 7.90291 18.2337 7.6129 18.2337 7.31623C18.2337 7.11923 18.1949 6.92417 18.1195 6.74217C18.0442 6.56017 17.9337 6.39481 17.7944 6.25551C17.6551 6.11622 17.4897 6.00573 17.3077 5.93036C17.1257 5.85498 16.9306 5.81619 16.7336 5.81621L16.7337 5.81623Z" fill="#0C0C1B"/>
</svg>
