<svg width="24" height="24" viewBox="0 0 24 24" fill="none" xmlns="http://www.w3.org/2000/svg">
<path d="M6.9917 14.502C6.86037 14.502 6.73032 14.5278 6.60898 14.5781C6.48763 14.6283 6.37738 14.702 6.28452 14.7948C6.19165 14.8877 6.11799 14.9979 6.06775 15.1193C6.01751 15.2406 5.99167 15.3707 5.9917 15.502V17.2843C4.70275 15.8266 3.9914 13.9478 3.9917 12.002C3.99151 11.7079 4.00912 11.4141 4.04443 11.1221C4.06062 10.9916 4.05088 10.8591 4.01579 10.7323C3.98069 10.6055 3.92091 10.4869 3.83989 10.3832C3.75886 10.2796 3.65818 10.193 3.54361 10.1283C3.42904 10.0636 3.30283 10.0222 3.17222 10.0064C3.04162 9.99059 2.90918 10.0007 2.78249 10.0362C2.6558 10.0717 2.53736 10.1318 2.43395 10.2131C2.33054 10.2944 2.2442 10.3954 2.17987 10.5101C2.11555 10.6249 2.0745 10.7512 2.05908 10.8819C2.01378 11.2535 1.99128 11.6276 1.9917 12.002C1.99306 14.3882 2.85066 16.6946 4.40857 18.502H2.9917C2.72648 18.502 2.47213 18.6074 2.28459 18.7949C2.09706 18.9824 1.9917 19.2368 1.9917 19.502C1.9917 19.7672 2.09706 20.0216 2.28459 20.2091C2.47213 20.3966 2.72648 20.502 2.9917 20.502H6.9917C7.1481 20.5 7.30176 20.4607 7.4399 20.3874C7.57803 20.314 7.69663 20.2087 7.78583 20.0802C7.79749 20.0648 7.81238 20.0534 7.82324 20.0372C7.8299 20.0272 7.83008 20.0155 7.8363 20.0053C7.88396 19.9248 7.91966 19.8378 7.9423 19.747C7.9571 19.696 7.96762 19.6439 7.97373 19.5911C7.9766 19.5603 7.99173 19.5336 7.99173 19.502V15.502C7.99177 15.3707 7.96593 15.2406 7.91568 15.1193C7.86544 14.9979 7.79178 14.8877 7.69891 14.7948C7.60604 14.7019 7.49579 14.6283 7.37444 14.578C7.25309 14.5278 7.12304 14.502 6.9917 14.502ZM8.4917 6.002H6.70923C8.16703 4.71311 10.0458 4.00178 11.9917 4.002C12.2856 4.00129 12.5793 4.01891 12.8711 4.05474C13.0015 4.07058 13.1338 4.06057 13.2603 4.02529C13.3869 3.99001 13.5053 3.93015 13.6087 3.84913C13.7121 3.76811 13.7986 3.6675 13.8631 3.55307C13.9276 3.43863 13.969 3.3126 13.9849 3.18218C14.0007 3.05176 13.9907 2.91949 13.9554 2.79293C13.9201 2.66637 13.8603 2.54801 13.7792 2.44458C13.6982 2.34116 13.5976 2.25471 13.4832 2.19016C13.3688 2.12562 13.2427 2.08425 13.1123 2.06841C12.7405 2.02355 12.3662 2.00137 11.9917 2.002C9.60556 2.0033 7.29911 2.86083 5.4917 4.41869V3.002C5.4917 2.73678 5.38634 2.48243 5.19881 2.29489C5.01127 2.10736 4.75692 2.002 4.4917 2.002C4.22648 2.002 3.97213 2.10736 3.78459 2.29489C3.59706 2.48243 3.4917 2.73678 3.4917 3.002V7.002C3.49799 7.0681 3.51116 7.13335 3.53101 7.19671L3.53125 7.19793C3.55553 7.32098 3.60348 7.43815 3.67242 7.54293L3.68384 7.55983C3.74992 7.65593 3.83273 7.73938 3.92834 7.80617C3.93927 7.81417 3.9447 7.82643 3.95605 7.83406C3.97034 7.84352 3.98651 7.84652 4.0011 7.85518C4.05781 7.8893 4.11791 7.91745 4.18042 7.93918C4.2649 7.96857 4.35299 7.98635 4.44226 7.99203C4.45959 7.99295 4.47418 8.00203 4.4917 8.00203H8.4917C8.75692 8.00203 9.01127 7.89667 9.19881 7.70914C9.38634 7.5216 9.4917 7.26725 9.4917 7.00203C9.4917 6.73681 9.38634 6.48246 9.19881 6.29492C9.01127 6.10739 8.75692 6.00203 8.4917 6.00203V6.002ZM20.4522 16.8061C20.4279 16.683 20.3799 16.5658 20.3109 16.461L20.2996 16.4442C20.2335 16.348 20.1506 16.2646 20.0549 16.1978C20.044 16.1898 20.0386 16.1775 20.0273 16.1699C20.0165 16.1628 20.0037 16.1625 19.9927 16.1558C19.8659 16.0853 19.7269 16.0394 19.583 16.0204C19.5514 16.0174 19.5241 16.0019 19.4917 16.0019H15.4917C15.2265 16.0019 14.9721 16.1073 14.7846 16.2948C14.5971 16.4824 14.4917 16.7367 14.4917 17.0019C14.4917 17.2672 14.5971 17.5215 14.7846 17.7091C14.9721 17.8966 15.2265 18.0019 15.4917 18.0019H17.2741C15.8163 19.2909 13.9376 20.0022 11.9917 20.0019C11.6977 20.0023 11.404 19.9844 11.1123 19.9482C10.8489 19.9163 10.5836 19.9902 10.3747 20.1539C10.1658 20.3175 10.0305 20.5574 9.99853 20.8208C9.96654 21.0842 10.0405 21.3495 10.2041 21.5584C10.3678 21.7673 10.6077 21.9026 10.8711 21.9346C11.2429 21.9794 11.6172 22.0019 11.9917 22.0019C14.3778 22.0007 16.6843 21.1431 18.4917 19.5853V21.002C18.4917 21.2672 18.5971 21.5216 18.7846 21.7091C18.9721 21.8966 19.2265 22.002 19.4917 22.002C19.7569 22.002 20.0113 21.8966 20.1988 21.7091C20.3863 21.5216 20.4917 21.2672 20.4917 21.002V17.002C20.4854 16.9359 20.4722 16.8707 20.4524 16.8073L20.4522 16.8061ZM20.9917 5.502C21.2569 5.502 21.5113 5.39664 21.6988 5.20911C21.8863 5.02157 21.9917 4.76722 21.9917 4.502C21.9917 4.23678 21.8863 3.98243 21.6988 3.79489C21.5113 3.60736 21.2569 3.502 20.9917 3.502H16.9917C16.9266 3.50828 16.8623 3.52124 16.7999 3.5407L16.7932 3.54204C16.6718 3.56634 16.5561 3.6137 16.4525 3.68157L16.4329 3.69481C16.3373 3.76079 16.2542 3.84335 16.1876 3.93859C16.1797 3.94939 16.1676 3.9547 16.1602 3.96587C16.153 3.97661 16.1528 3.98931 16.1461 4.00023C16.0747 4.12782 16.0284 4.2679 16.0097 4.41289C16.0068 4.44378 15.9917 4.47039 15.9917 4.502V8.502C15.9917 8.76722 16.0971 9.02157 16.2846 9.20911C16.4721 9.39664 16.7265 9.502 16.9917 9.502C17.2569 9.502 17.5113 9.39664 17.6988 9.20911C17.8863 9.02157 17.9917 8.76722 17.9917 8.502V6.71912C19.2805 8.17709 19.9919 10.056 19.9917 12.002C19.9919 12.296 19.9743 12.5899 19.939 12.8818C19.9073 13.1451 19.9813 13.4101 20.1448 13.6188C20.3083 13.8275 20.5479 13.9629 20.811 13.9951C20.8516 13.9998 20.8923 14.0021 20.9331 14.002C21.1773 14.0016 21.4129 13.912 21.5955 13.7499C21.7781 13.5878 21.8951 13.3645 21.9243 13.1221C21.9696 12.7504 21.9921 12.3764 21.9917 12.002C21.9903 9.61582 21.1327 7.30936 19.5747 5.502H20.9917Z" fill="#0C0C1B"/>
</svg>
