<svg width="24" height="24" viewBox="0 0 24 24" fill="none" xmlns="http://www.w3.org/2000/svg">
<path d="M12 6C6.3 6 2 8.14896 2 10.9976C2 13.4464 5.19 15.3755 9.71 15.8752L9.29 16.285C9.19627 16.3779 9.12188 16.4885 9.07111 16.6103C9.02034 16.7321 8.9942 16.8627 8.9942 16.9947C8.9942 17.1266 9.02034 17.2573 9.07111 17.3791C9.12188 17.5009 9.19627 17.6114 9.29 17.7043C9.38296 17.798 9.49356 17.8724 9.61542 17.9231C9.73728 17.9739 9.86799 18 10 18C10.132 18 10.2627 17.9739 10.3846 17.9231C10.5064 17.8724 10.617 17.798 10.71 17.7043L12.71 15.7053C12.801 15.6103 12.8724 15.4982 12.92 15.3755C13.02 15.1321 13.02 14.8592 12.92 14.6158C12.8724 14.4931 12.801 14.3811 12.71 14.286L10.71 12.287C10.5217 12.0987 10.2663 11.993 10 11.993C9.7337 11.993 9.4783 12.0987 9.29 12.287C9.1017 12.4752 8.99591 12.7304 8.99591 12.9966C8.99591 13.2628 9.1017 13.5181 9.29 13.7063L9.41 13.8162C6 13.3365 4 11.9971 4 10.9976C4 9.77817 7.12 7.99903 12 7.99903C16.88 7.99903 20 9.77817 20 10.9976C20 11.8272 18.55 12.9966 15.79 13.5963C15.6594 13.6213 15.535 13.6722 15.4243 13.7458C15.3135 13.8194 15.2186 13.9144 15.145 14.0252C15.0715 14.1359 15.0207 14.2603 14.9958 14.3909C14.9709 14.5215 14.9724 14.6557 15 14.7858C15.0273 14.9145 15.0798 15.0366 15.1544 15.1451C15.2291 15.2535 15.3244 15.3462 15.435 15.4177C15.5456 15.4892 15.6692 15.5382 15.7988 15.5618C15.9283 15.5854 16.0613 15.5833 16.19 15.5554C19.84 14.7558 22 13.0566 22 10.9976C22 8.14896 17.7 6 12 6Z" fill="#0C0C1B"/>
</svg>
