<svg width="24" height="24" viewBox="0 0 24 24" fill="none" xmlns="http://www.w3.org/2000/svg">
<path d="M9.22222 18.8421C8.89259 18.8421 8.57035 18.9347 8.29627 19.1082C8.02219 19.2817 7.80857 19.5283 7.68242 19.8168C7.55628 20.1053 7.52327 20.4228 7.58758 20.7291C7.65189 21.0354 7.81062 21.3167 8.04371 21.5375C8.2768 21.7584 8.57377 21.9087 8.89707 21.9697C9.22037 22.0306 9.55548 21.9993 9.86003 21.8798C10.1646 21.7603 10.4249 21.5579 10.608 21.2983C10.7911 21.0386 10.8889 20.7333 10.8889 20.4211C10.8889 20.0023 10.7133 19.6007 10.4007 19.3046C10.0882 19.0085 9.66425 18.8421 9.22222 18.8421ZM20.8889 15.6842H7.55556C7.26087 15.6842 6.97826 15.5733 6.76988 15.3759C6.56151 15.1785 6.44444 14.9108 6.44444 14.6316C6.44444 14.3524 6.56151 14.0847 6.76988 13.8873C6.97826 13.6898 7.26087 13.5789 7.55556 13.5789H16.9902C17.714 13.5767 18.4176 13.3524 18.9955 12.9395C19.5733 12.5266 19.9944 11.9474 20.1956 11.2887L21.9571 5.44726C22.0044 5.2906 22.0126 5.12569 21.9812 4.9655C21.9497 4.80531 21.8795 4.65423 21.7759 4.52414C21.6724 4.39405 21.5384 4.28851 21.3844 4.21582C21.2305 4.14314 21.0609 4.10529 20.8889 4.10526H7.26563C7.03562 3.49196 6.6116 2.96075 6.05136 2.58401C5.49112 2.20728 4.8219 2.00335 4.13488 2H3.11111C2.81643 2 2.53381 2.1109 2.32544 2.30831C2.11706 2.50572 2 2.77346 2 3.05263C2 3.33181 2.11706 3.59955 2.32544 3.79695C2.53381 3.99436 2.81643 4.10526 3.11111 4.10526H4.13488C4.37608 4.10606 4.61052 4.18086 4.8031 4.31845C4.99567 4.45605 5.13602 4.64904 5.20312 4.86853L5.37592 5.44194L5.37619 5.44726L7.19911 11.4917C6.35085 11.5781 5.56986 11.9694 5.01696 12.585C4.46406 13.2005 4.18135 13.9935 4.22703 14.8006C4.27271 15.6077 4.64331 16.3675 5.26251 16.9235C5.88172 17.4795 6.7024 17.7895 7.55556 17.7895H20.8889C21.1836 17.7895 21.4662 17.6786 21.6746 17.4812C21.8829 17.2838 22 17.016 22 16.7368C22 16.4577 21.8829 16.1899 21.6746 15.9925C21.4662 15.7951 21.1836 15.6842 20.8889 15.6842ZM19.4159 6.21053L18.059 10.7099C17.992 10.9296 17.8516 11.1227 17.6589 11.2604C17.4662 11.3981 17.2316 11.473 16.9902 11.4737H9.50488L9.22161 10.5345L7.91824 6.21053H19.4159ZM18.1111 18.8421C17.7815 18.8421 17.4592 18.9347 17.1852 19.1082C16.9111 19.2817 16.6975 19.5283 16.5713 19.8168C16.4452 20.1053 16.4122 20.4228 16.4765 20.7291C16.5408 21.0354 16.6995 21.3167 16.9326 21.5375C17.1657 21.7584 17.4627 21.9087 17.786 21.9697C18.1093 22.0306 18.4444 21.9993 18.7489 21.8798C19.0535 21.7603 19.3138 21.5579 19.4969 21.2983C19.68 21.0386 19.7778 20.7333 19.7778 20.4211C19.7778 20.0023 19.6022 19.6007 19.2896 19.3046C18.9771 19.0085 18.5531 18.8421 18.1111 18.8421Z"/>
</svg>
