<svg width="24" height="24" viewBox="0 0 24 24" fill="none" xmlns="http://www.w3.org/2000/svg">
<path d="M12.4283 4.0823C12.2659 4.01196 12.0878 3.98603 11.9122 4.00713C11.7365 4.02824 11.5696 4.09563 11.4285 4.20243L6.64924 7.98661H2.99984C2.73466 7.98661 2.48035 8.09208 2.29285 8.27983C2.10534 8.46757 2 8.72221 2 8.98772V14.9943C2 15.2599 2.10534 15.5145 2.29285 15.7022C2.48035 15.89 2.73466 15.9955 2.99984 15.9955H6.64924L11.3785 19.7796C11.5544 19.9209 11.7728 19.9986 11.9984 19.9999C12.1477 20.0023 12.2954 19.968 12.4283 19.8998C12.5984 19.8186 12.7422 19.691 12.8431 19.5316C12.9439 19.3722 12.9977 19.1875 12.9982 18.9988V4.9833C12.9977 4.7946 12.9439 4.6099 12.8431 4.45049C12.7422 4.29107 12.5984 4.16344 12.4283 4.0823ZM10.9985 16.9165L7.61908 14.2135C7.44317 14.0722 7.22471 13.9946 6.99918 13.9932H3.99967V9.98882H6.99918C7.22471 9.98751 7.44317 9.90989 7.61908 9.76858L10.9985 7.06559V16.9165ZM19.6571 6.32478C19.4688 6.13626 19.2135 6.03036 18.9472 6.03036C18.681 6.03036 18.4256 6.13626 18.2373 6.32478C18.0491 6.51329 17.9433 6.76897 17.9433 7.03556C17.9433 7.30216 18.0491 7.55783 18.2373 7.74635C18.8261 8.33493 19.2861 9.03971 19.5882 9.81588C19.8904 10.5921 20.0279 11.4227 19.9922 12.2549C19.9564 13.0872 19.7482 13.9029 19.3807 14.6503C19.0132 15.3976 18.4944 16.0603 17.8574 16.5961C17.7027 16.7286 17.592 16.9051 17.5402 17.1022C17.4884 17.2993 17.498 17.5076 17.5675 17.6991C17.6371 17.8907 17.7634 18.0564 17.9295 18.1741C18.0957 18.2919 18.2938 18.3561 18.4973 18.3581C18.7309 18.3585 18.9573 18.2771 19.1372 18.1278C19.988 17.4143 20.6812 16.5314 21.1727 15.5351C21.6642 14.5388 21.9433 13.451 21.9922 12.3409C22.0411 11.2308 21.8588 10.1226 21.4568 9.08687C21.0547 8.05114 20.4419 7.1105 19.6571 6.32478ZM16.8276 9.1579C16.7344 9.06456 16.6237 8.99052 16.5019 8.94C16.3801 8.88949 16.2495 8.86349 16.1177 8.86349C15.9859 8.86349 15.8553 8.88949 15.7335 8.94C15.6117 8.99052 15.501 9.06456 15.4078 9.1579C15.3146 9.25125 15.2406 9.36206 15.1902 9.48401C15.1397 9.60597 15.1138 9.73668 15.1138 9.86869C15.1138 10.0007 15.1397 10.1314 15.1902 10.2534C15.2406 10.3753 15.3146 10.4861 15.4078 10.5795C15.7833 10.9532 15.9955 11.4609 15.9977 11.991C15.9979 12.2827 15.9345 12.5709 15.8119 12.8355C15.6893 13.1 15.5104 13.3346 15.2878 13.5227C15.1866 13.6068 15.1029 13.71 15.0416 13.8265C14.9802 13.9429 14.9424 14.0704 14.9303 14.2015C14.9183 14.3326 14.9322 14.4648 14.9712 14.5906C15.0102 14.7163 15.0737 14.8331 15.1578 14.9343C15.2425 15.0349 15.3461 15.1179 15.4628 15.1784C15.5795 15.2389 15.7069 15.2758 15.8379 15.287C15.9688 15.2981 16.1006 15.2833 16.2259 15.2434C16.3511 15.2035 16.4672 15.1393 16.5676 15.0544C17.0147 14.6791 17.3743 14.2104 17.6213 13.6812C17.8683 13.152 17.9966 12.5752 17.9974 11.991C17.9917 10.93 17.5719 9.91319 16.8276 9.1579Z" fill="#0C0C1B"/>
</svg>
