<svg width="24" height="24" viewBox="0 0 24 24" fill="none" xmlns="http://www.w3.org/2000/svg">
<path d="M16.93 4.1C16.7676 4.02974 16.5895 4.00383 16.4138 4.02492C16.2381 4.046 16.0712 4.11332 15.93 4.22L11.15 8H7.5C7.23478 8 6.98043 8.10536 6.79289 8.29289C6.60536 8.48043 6.5 8.73479 6.5 9V15C6.5 15.2652 6.60536 15.5196 6.79289 15.7071C6.98043 15.8946 7.23478 16 7.5 16H11.15L15.88 19.78C16.0559 19.9212 16.2744 19.9987 16.5 20C16.6494 20.0025 16.797 19.9681 16.93 19.9C17.1002 19.819 17.244 19.6915 17.3448 19.5322C17.4457 19.373 17.4995 19.1885 17.5 19V5C17.4995 4.81152 17.4457 4.62702 17.3448 4.46778C17.244 4.30854 17.1002 4.18105 16.93 4.1ZM15.5 16.92L12.12 14.22C11.9441 14.0788 11.7256 14.0013 11.5 14H8.5V10H11.5C11.7256 9.99869 11.9441 9.92116 12.12 9.78L15.5 7.08V16.92Z" fill="#0C0C1B"/>
</svg>
