<svg width="24" height="24" viewBox="0 0 24 24" fill="none" xmlns="http://www.w3.org/2000/svg">
<path d="M12.427 4.0823C12.2646 4.01196 12.0865 3.98603 11.9109 4.00713C11.7353 4.02824 11.5684 4.09563 11.4273 4.20243L6.64865 7.98661H2.99971C2.73457 7.98661 2.48029 8.09208 2.29281 8.27983C2.10533 8.46757 2 8.72221 2 8.98772V14.9943C2 15.2599 2.10533 15.5145 2.29281 15.7022C2.48029 15.89 2.73457 15.9955 2.99971 15.9955H6.64865L11.3773 19.7796C11.5532 19.9209 11.7716 19.9986 11.9971 19.9999C12.1464 20.0023 12.2941 19.968 12.427 19.8998C12.5971 19.8186 12.7409 19.691 12.8417 19.5316C12.9425 19.3722 12.9963 19.1875 12.9968 18.9988V4.9833C12.9963 4.7946 12.9425 4.6099 12.8417 4.45049C12.7409 4.29107 12.5971 4.16344 12.427 4.0823ZM10.9974 16.9165L7.61837 14.2135C7.44248 14.0722 7.22405 13.9946 6.99855 13.9932H3.99942V9.98882H6.99855C7.22405 9.98751 7.44248 9.90989 7.61837 9.76858L10.9974 7.06559V16.9165ZM19.9048 11.991L21.7043 10.1991C21.7975 10.1057 21.8714 9.9949 21.9219 9.87294C21.9723 9.75099 21.9983 9.62027 21.9983 9.48827C21.9983 9.35626 21.9723 9.22555 21.9219 9.10359C21.8714 8.98164 21.7975 8.87083 21.7043 8.77748C21.6111 8.68414 21.5004 8.6101 21.3786 8.55958C21.2568 8.50907 21.1263 8.48307 20.9945 8.48307C20.8627 8.48307 20.7321 8.50907 20.6104 8.55958C20.4886 8.6101 20.3779 8.68414 20.2847 8.77748L18.4952 10.5795L16.7057 8.77748C16.5175 8.58897 16.2622 8.48307 15.9959 8.48307C15.7297 8.48307 15.4744 8.58897 15.2861 8.77748C15.0979 8.966 14.9921 9.22167 14.9921 9.48827C14.9921 9.75487 15.0979 10.0105 15.2861 10.1991L17.0856 11.991L15.2861 13.783C15.1924 13.8761 15.1181 13.9868 15.0673 14.1088C15.0166 14.2308 14.9904 14.3616 14.9904 14.4938C14.9904 14.626 15.0166 14.7568 15.0673 14.8788C15.1181 15.0008 15.1924 15.1115 15.2861 15.2046C15.3791 15.2984 15.4897 15.3729 15.6115 15.4237C15.7333 15.4745 15.864 15.5007 15.9959 15.5007C16.1279 15.5007 16.2586 15.4745 16.3804 15.4237C16.5022 15.3729 16.6128 15.2984 16.7057 15.2046L18.4952 13.4026L20.2847 15.2046C20.3776 15.2984 20.4882 15.3729 20.61 15.4237C20.7319 15.4745 20.8625 15.5007 20.9945 15.5007C21.1265 15.5007 21.2571 15.4745 21.379 15.4237C21.5008 15.3729 21.6113 15.2984 21.7043 15.2046C21.798 15.1115 21.8724 15.0008 21.9231 14.8788C21.9739 14.7568 22 14.626 22 14.4938C22 14.3616 21.9739 14.2308 21.9231 14.1088C21.8724 13.9868 21.798 13.8761 21.7043 13.783L19.9048 11.991Z" fill="#0C0C1B"/>
</svg>
