<svg width="24" height="24" viewBox="0 0 24 24" fill="none" xmlns="http://www.w3.org/2000/svg">
<path d="M12 5C10.2446 5.00004 8.52016 5.44713 6.99996 6.29633C5.47977 7.14553 4.21739 8.36692 3.33972 9.83774C2.46204 11.3086 1.99999 12.977 2 14.6753C2.00001 16.3737 2.46208 18.0421 3.33978 19.5129C3.47239 19.7361 3.69123 19.8993 3.94817 19.9664C4.2051 20.0336 4.47907 19.9992 4.70981 19.8709C4.94056 19.7426 5.10917 19.5309 5.17856 19.2823C5.24795 19.0337 5.21244 18.7686 5.07982 18.5454C4.37125 17.3709 3.99848 16.0352 3.9998 14.6753C4.00027 13.4883 4.28291 12.3173 4.82584 11.2529C5.36878 10.1885 6.15747 9.25913 7.13092 8.53671C8.10438 7.81429 9.23653 7.31816 10.4398 7.08668C11.6431 6.8552 12.8853 6.89457 14.0704 7.20175C15.2554 7.50893 16.3516 8.07568 17.2741 8.85819C18.1966 9.6407 18.9207 10.618 19.3905 11.7145C19.8603 12.811 20.0631 13.9974 19.9833 15.1819C19.9034 16.3663 19.5431 17.5172 18.9302 18.5454C18.8641 18.6558 18.8212 18.7778 18.804 18.9043C18.7868 19.0309 18.7957 19.1594 18.8301 19.2826C18.8644 19.4058 18.9237 19.5212 19.0044 19.6222C19.0851 19.7232 19.1856 19.8077 19.3002 19.8709C19.5298 19.997 19.8017 20.0302 20.0565 19.9631C20.3113 19.896 20.5283 19.7342 20.6602 19.5129C21.5379 18.0421 22 16.3737 22 14.6753C22 12.977 21.538 11.3086 20.6603 9.83774C19.7826 8.36692 18.5202 7.14553 17 6.29633C15.4798 5.44713 13.7554 5.00004 12 5ZM14.8401 10.573L13.29 12.0629C12.8888 11.8715 12.4474 11.7722 12 11.7727C11.4066 11.7727 10.8266 11.9429 10.3332 12.2619C9.83989 12.5808 9.45536 13.0341 9.22829 13.5645C9.00122 14.0949 8.94181 14.6785 9.05757 15.2415C9.17333 15.8046 9.45906 16.3218 9.87863 16.7277C10.2982 17.1336 10.8328 17.4101 11.4147 17.5221C11.9967 17.6341 12.5999 17.5766 13.1481 17.3569C13.6963 17.1372 14.1648 16.7652 14.4945 16.2879C14.8241 15.8105 15.0001 15.2493 15.0001 14.6753C14.9994 14.2457 14.8967 13.822 14.7001 13.4368L16.2501 11.9468C16.3438 11.8569 16.4182 11.7499 16.469 11.632C16.5198 11.5141 16.5459 11.3876 16.5459 11.2599C16.5459 11.1322 16.5198 11.0057 16.469 10.8878C16.4182 10.7699 16.3438 10.6629 16.2501 10.573C16.0627 10.3928 15.8093 10.2916 15.5451 10.2916C15.2809 10.2916 15.0274 10.3928 14.8401 10.573ZM12 15.6428C11.7348 15.6428 11.4804 15.5409 11.2929 15.3594C11.1053 15.178 11 14.9319 11 14.6753C11 14.4187 11.1053 14.1726 11.2929 13.9911C11.4804 13.8097 11.7348 13.7077 12 13.7077C12.2609 13.7062 12.5121 13.8034 12.7 13.9786C12.7957 14.0694 12.8716 14.1778 12.9231 14.2975C12.9747 14.4172 13.0008 14.5456 13 14.6753C13 14.9319 12.8947 15.178 12.7071 15.3594C12.5196 15.5409 12.2652 15.6428 12 15.6428Z" fill="#0C0C1B"/>
</svg>
