<svg width="56" height="56" viewBox="0 0 56 56" fill="none" xmlns="http://www.w3.org/2000/svg">
<circle cx="28.0001" cy="28" r="16" fill="#0C0C1B"/>
<path d="M24.25 21.3367C24.3597 21.3374 24.4684 21.3163 24.5699 21.2749C24.6715 21.2334 24.7638 21.1723 24.8417 21.0951L25.675 20.2617C25.8319 20.1048 25.9201 19.892 25.9201 19.6701C25.9201 19.4481 25.8319 19.2353 25.675 19.0784C25.5181 18.9215 25.3052 18.8333 25.0833 18.8333C24.8614 18.8333 24.6486 18.9215 24.4917 19.0784L23.6583 19.9117C23.5802 19.9892 23.5182 20.0814 23.4759 20.1829C23.4336 20.2845 23.4118 20.3934 23.4118 20.5034C23.4118 20.6134 23.4336 20.7223 23.4759 20.8239C23.5182 20.9254 23.5802 21.0176 23.6583 21.0951C23.7362 21.1723 23.8285 21.2334 23.9301 21.2749C24.0316 21.3163 24.1403 21.3374 24.25 21.3367ZM27.5833 21.3367C27.693 21.3374 27.8017 21.3163 27.9033 21.2749C28.0048 21.2334 28.0971 21.1723 28.175 21.0951L29.0083 20.2617C29.1653 20.1048 29.2534 19.892 29.2534 19.6701C29.2534 19.4481 29.1653 19.2353 29.0083 19.0784C28.8514 18.9215 28.6386 18.8333 28.4167 18.8333C28.1947 18.8333 27.9819 18.9215 27.825 19.0784L26.9917 19.9117C26.9136 19.9892 26.8516 20.0814 26.8093 20.1829C26.7669 20.2845 26.7452 20.3934 26.7452 20.5034C26.7452 20.6134 26.7669 20.7223 26.8093 20.8239C26.8516 20.9254 26.9136 21.0176 26.9917 21.0951C27.0695 21.1723 27.1619 21.2334 27.2634 21.2749C27.3649 21.3163 27.4737 21.3374 27.5833 21.3367ZM30.9167 21.3367C31.0263 21.3374 31.1351 21.3163 31.2366 21.2749C31.3381 21.2334 31.4305 21.1723 31.5083 21.0951L32.3417 20.2617C32.4194 20.184 32.481 20.0918 32.523 19.9903C32.5651 19.8887 32.5867 19.7799 32.5867 19.6701C32.5867 19.5602 32.5651 19.4514 32.523 19.3498C32.481 19.2483 32.4194 19.1561 32.3417 19.0784C32.264 19.0007 32.1717 18.9391 32.0702 18.897C31.9687 18.855 31.8599 18.8333 31.75 18.8333C31.6401 18.8333 31.5313 18.855 31.4298 18.897C31.3283 18.9391 31.236 19.0007 31.1583 19.0784L30.325 19.9117C30.2469 19.9892 30.1849 20.0814 30.1426 20.1829C30.1003 20.2845 30.0785 20.3934 30.0785 20.5034C30.0785 20.6134 30.1003 20.7223 30.1426 20.8239C30.1849 20.9254 30.2469 21.0176 30.325 21.0951C30.4029 21.1723 30.4952 21.2334 30.5967 21.2749C30.6983 21.3163 30.807 21.3374 30.9167 21.3367ZM32.9333 31.0201C32.9151 30.967 32.8899 30.9165 32.8583 30.8701L32.7583 30.7451L32.6333 30.6451C32.5869 30.6135 32.5364 30.5883 32.4833 30.5701C32.4337 30.5447 32.3802 30.5278 32.325 30.5201C32.1911 30.4932 32.0527 30.4997 31.9219 30.539C31.7911 30.5782 31.672 30.649 31.575 30.7451C31.5392 30.7847 31.5058 30.8264 31.475 30.8701C31.4435 30.9165 31.4182 30.967 31.4 31.0201C31.376 31.0673 31.3591 31.1178 31.35 31.1701C31.3459 31.2255 31.3459 31.2812 31.35 31.3367C31.3509 31.5553 31.4377 31.7648 31.5917 31.9201C31.6687 32.0006 31.7626 32.0632 31.8667 32.1034C31.9617 32.144 32.0634 32.1666 32.1667 32.1701C32.3877 32.1701 32.5996 32.0823 32.7559 31.926C32.9122 31.7697 33 31.5577 33 31.3367C33.0041 31.2812 33.0041 31.2255 33 31.1701C32.9856 31.1169 32.9632 31.0663 32.9333 31.0201ZM34.4667 27.2617L33.3333 23.8784C33.1605 23.3894 32.8398 22.9663 32.4157 22.6677C31.9917 22.3691 31.4853 22.2097 30.9667 22.2117H25.0333C24.5147 22.2097 24.0083 22.3691 23.5842 22.6677C23.1602 22.9663 22.8395 23.3894 22.6667 23.8784L21.5333 27.2617C21.0003 27.4013 20.5283 27.7131 20.1907 28.1486C19.8531 28.5842 19.6689 29.119 19.6667 29.6701V33.0034C19.6681 33.5192 19.8291 34.0219 20.1274 34.4426C20.4258 34.8633 20.847 35.1815 21.3333 35.3534V36.3367C21.3333 36.5577 21.4211 36.7697 21.5774 36.926C21.7337 37.0823 21.9457 37.1701 22.1667 37.1701C22.3877 37.1701 22.5996 37.0823 22.7559 36.926C22.9122 36.7697 23 36.5577 23 36.3367V35.5034H33V36.3367C33 36.5577 33.0878 36.7697 33.2441 36.926C33.4004 37.0823 33.6123 37.1701 33.8333 37.1701C34.0543 37.1701 34.2663 37.0823 34.4226 36.926C34.5789 36.7697 34.6667 36.5577 34.6667 36.3367V35.3534C35.153 35.1815 35.5742 34.8633 35.8725 34.4426C36.1709 34.0219 36.3319 33.5192 36.3333 33.0034V29.6701C36.3311 29.119 36.1469 28.5842 35.8093 28.1486C35.4717 27.7131 34.9997 27.4013 34.4667 27.2617ZM24.2417 24.4034C24.2976 24.2379 24.4041 24.0941 24.5461 23.9924C24.6882 23.8907 24.8586 23.8363 25.0333 23.8367H30.9667C31.1484 23.8272 31.3282 23.8775 31.4787 23.9798C31.6292 24.0821 31.742 24.2309 31.8 24.4034L32.675 27.1701H23.325L24.2417 24.4034ZM34.6667 33.0034C34.6667 33.2244 34.5789 33.4364 34.4226 33.5926C34.2663 33.7489 34.0543 33.8367 33.8333 33.8367H22.1667C21.9457 33.8367 21.7337 33.7489 21.5774 33.5926C21.4211 33.4364 21.3333 33.2244 21.3333 33.0034V29.6701C21.3333 29.449 21.4211 29.2371 21.5774 29.0808C21.7337 28.9245 21.9457 28.8367 22.1667 28.8367H33.8333C34.0543 28.8367 34.2663 28.9245 34.4226 29.0808C34.5789 29.2371 34.6667 29.449 34.6667 29.6701V33.0034ZM28.8333 30.5034H27.1667C26.9457 30.5034 26.7337 30.5912 26.5774 30.7475C26.4211 30.9037 26.3333 31.1157 26.3333 31.3367C26.3333 31.5577 26.4211 31.7697 26.5774 31.926C26.7337 32.0823 26.9457 32.1701 27.1667 32.1701H28.8333C29.0543 32.1701 29.2663 32.0823 29.4226 31.926C29.5789 31.7697 29.6667 31.5577 29.6667 31.3367C29.6667 31.1157 29.5789 30.9037 29.4226 30.7475C29.2663 30.5912 29.0543 30.5034 28.8333 30.5034ZM24.6 31.0201C24.5818 30.967 24.5565 30.9165 24.525 30.8701L24.425 30.7451C24.3078 30.6294 24.159 30.5511 23.9973 30.5199C23.8357 30.4888 23.6684 30.5062 23.5167 30.5701C23.4144 30.6097 23.3209 30.6692 23.2417 30.7451C23.2058 30.7847 23.1724 30.8264 23.1417 30.8701C23.1101 30.9165 23.0849 30.967 23.0667 31.0201C23.0368 31.0663 23.0143 31.1169 23 31.1701C22.9959 31.2255 22.9959 31.2812 23 31.3367C23.0007 31.5015 23.0502 31.6624 23.1424 31.7991C23.2345 31.9357 23.3651 32.042 23.5176 32.1044C23.6701 32.1669 23.8378 32.1827 23.9993 32.1499C24.1608 32.1171 24.3089 32.0371 24.425 31.9201C24.579 31.7648 24.6657 31.5553 24.6667 31.3367C24.6708 31.2812 24.6708 31.2255 24.6667 31.1701C24.6523 31.1169 24.6298 31.0663 24.6 31.0201Z" fill="white"/>
</svg>
