<svg width="56" height="56" viewBox="0 0 56 56" fill="none" xmlns="http://www.w3.org/2000/svg">
<path d="M28 8C19.1634 8 12 15.1634 12 24C12 31.6778 17.4078 38.0924 24.6223 39.6428L28 48.5L31.3777 39.6428C38.5922 38.0924 44 31.6778 44 24C44 15.1634 36.8366 8 28 8Z" fill="#FF7A00"/>
<path d="M35.4938 20.1541C35.4938 20.1541 35.4938 20.1541 35.4938 20.0872L35.4435 19.9619C35.426 19.9354 35.4063 19.9102 35.3847 19.8868C35.3623 19.8514 35.337 19.8179 35.3092 19.7865L35.2337 19.7281L35.0995 19.6612L28.8068 15.7937C28.6735 15.7107 28.5194 15.6667 28.3621 15.6667C28.2049 15.6667 28.0508 15.7107 27.9174 15.7937L21.6751 19.6612L21.5996 19.7281L21.5241 19.7865C21.4963 19.8179 21.471 19.8514 21.4486 19.8868C21.427 19.9102 21.4074 19.9354 21.3899 19.9619L21.3395 20.0872C21.3395 20.0872 21.3395 20.0872 21.3395 20.1541C21.3313 20.2262 21.3313 20.2991 21.3395 20.3713V27.672C21.3392 27.814 21.3753 27.9537 21.4443 28.0779C21.5133 28.2021 21.6129 28.3068 21.7339 28.3821L28.0265 32.2496C28.0653 32.2734 28.1078 32.2904 28.1524 32.2997C28.1524 32.2997 28.1943 32.2997 28.2195 32.2997C28.3614 32.3446 28.5138 32.3446 28.6558 32.2997C28.6558 32.2997 28.6977 32.2997 28.7229 32.2997C28.7675 32.2904 28.81 32.2734 28.8488 32.2496L35.0995 28.3821C35.2204 28.3068 35.3201 28.2021 35.389 28.0779C35.458 27.9537 35.4941 27.814 35.4938 27.672V20.3713C35.5021 20.2991 35.5021 20.2262 35.4938 20.1541ZM27.5483 30.0444L22.9337 27.2042V21.8748L27.5483 24.7066V30.0444ZM28.3873 23.2615L23.6888 20.3713L28.3873 17.4894L33.0858 20.3713L28.3873 23.2615ZM33.8409 27.2042L29.2263 30.0444V24.7066L33.8409 21.8748V27.2042Z" fill="white"/>
</svg>
