<svg width="56" height="56" viewBox="0 0 56 56" fill="none" xmlns="http://www.w3.org/2000/svg">
<circle cx="28.0001" cy="27.9999" r="21" fill="white"/>
<path fill-rule="evenodd" clip-rule="evenodd" d="M13.75 28C13.75 20.1299 20.1299 13.75 28 13.75C35.8701 13.75 42.25 20.1299 42.25 28C42.25 35.8701 35.8701 42.25 28 42.25C20.1299 42.25 13.75 35.8701 13.75 28ZM28 15.7466C21.2327 15.7466 15.7466 21.2327 15.7466 28C15.7466 34.7673 21.2327 40.2534 28 40.2534C34.7673 40.2534 40.2534 34.7673 40.2534 28C40.2534 21.2327 34.7673 15.7466 28 15.7466Z" fill="#FF7A00"/>
<path fill-rule="evenodd" clip-rule="evenodd" d="M27.1784 21.6819C27.5758 21.2956 28.2124 21.3028 28.6009 21.6982L30.296 23.4234C30.6852 23.8195 30.6778 24.455 30.2796 24.842C29.8821 25.2283 29.2456 25.2211 28.8571 24.8257L27.162 23.1005C26.7728 22.7044 26.7802 22.0689 27.1784 21.6819Z" fill="#FF7A00"/>
<path d="M32.3682 13.0065C32.3682 12.4516 32.8164 12 33.3715 12C33.9266 12 34.3748 12.4516 34.3748 13.0065V33.0056C34.3748 33.8078 33.9052 34.3233 33.4044 34.5719C32.9885 34.7783 32.5457 34.8157 32.2477 34.8008C30.8481 34.8138 27.8614 34.8322 27.0514 34.7997L27.0461 34.7995C26.4292 34.7736 25.9236 34.5494 25.5688 34.1796C25.2361 33.8327 25.0874 33.41 25.069 33.0585L25.0673 33.0255L25.0676 31.4289C25.0676 31.387 25.0485 31.2965 24.9724 31.1676C24.8972 31.0405 24.8092 30.9487 24.7818 30.9247L24.7361 30.8845L24.6955 30.839C24.5164 30.6384 24.308 30.4062 24.084 30.1566L24.0824 30.1547C23.6764 29.7023 23.2191 29.1925 22.7939 28.7126C22.1485 27.9843 21.52 27.2612 21.2557 26.8962C20.7462 26.1927 20.7487 25.3115 20.7499 24.8809L20.75 24.8068V22.9147C20.75 22.3598 21.1982 21.9082 21.7534 21.9082C22.3085 21.9082 22.7567 22.3598 22.7567 22.9147V24.8068C22.7567 25.0715 22.7633 25.2694 22.785 25.4224C22.8067 25.5749 22.8407 25.6599 22.8791 25.713C23.0715 25.9787 23.6204 26.6154 24.2936 27.3752C24.7154 27.8512 25.1636 28.3507 25.5672 28.8005C25.7792 29.0368 25.979 29.2595 26.1559 29.4575C26.3271 29.6178 26.5289 29.8542 26.6985 30.1411C26.8839 30.4548 27.0743 30.9031 27.0743 31.4289V32.7838C27.0905 32.7858 27.1095 32.7874 27.1314 32.7883C27.8849 32.8185 30.8479 32.8008 32.2631 32.7875L32.3035 32.7871L32.3439 32.79C32.35 32.7905 32.3583 32.7908 32.3682 32.7907V13.0065Z" fill="#FF7A00"/>
</svg>
