<svg width="24" height="24" viewBox="0 0 24 24" fill="none" xmlns="http://www.w3.org/2000/svg">
<path fill-rule="evenodd" clip-rule="evenodd" d="M3.45043 3.86483C3.82165 2.75117 4.86384 2 6.03774 2H17.9623C19.1362 2 20.1784 2.75117 20.5496 3.86483L21.9533 8.07616C21.9842 8.16885 22 8.26593 22 8.36364V9.27273C22 10.6187 21.2687 11.7939 20.1818 12.4226V19.2727C20.1818 19.996 19.8945 20.6897 19.383 21.2012C18.8716 21.7127 18.1779 22 17.4545 22H6.54545C5.82214 22 5.12844 21.7127 4.61698 21.2012C4.10552 20.6897 3.81818 19.996 3.81818 19.2727V12.4226C2.73127 11.7939 2 10.6187 2 9.27273V8.36364C2 8.26593 2.01575 8.16885 2.04665 8.07616L3.45043 3.86483ZM5.63636 12.9091V19.2727C5.63636 19.5138 5.73214 19.7451 5.90263 19.9156C6.07312 20.086 6.30435 20.1818 6.54545 20.1818H17.4545C17.6957 20.1818 17.9269 20.086 18.0974 19.9156C18.2679 19.7451 18.3636 19.5138 18.3636 19.2727V12.9091C16.9945 12.9091 15.8021 12.1525 15.1818 11.0345C14.5615 12.1525 13.3691 12.9091 12 12.9091C10.6309 12.9091 9.43851 12.1525 8.81818 11.0345C8.19785 12.1525 7.00547 12.9091 5.63636 12.9091ZM6.03774 3.81818C5.64644 3.81818 5.29904 4.06857 5.1753 4.43979L4.17039 7.45455H19.8296L18.8247 4.43979C18.701 4.06857 18.3536 3.81818 17.9623 3.81818H6.03774ZM7.45455 9.27273H3.81818C3.81818 10.2769 4.63221 11.0909 5.63636 11.0909C6.64052 11.0909 7.45455 10.2769 7.45455 9.27273ZM13.8182 9.27273H10.1818C10.1818 10.2769 10.9958 11.0909 12 11.0909C13.0042 11.0909 13.8182 10.2769 13.8182 9.27273ZM20.1818 9.27273H16.5455C16.5455 10.2769 17.3595 11.0909 18.3636 11.0909C19.3678 11.0909 20.1818 10.2769 20.1818 9.27273Z" fill="#0C0C1B"/>
</svg>
