<svg width="24" height="24" viewBox="0 0 24 24" fill="none" xmlns="http://www.w3.org/2000/svg">
<path d="M19.0009 5H9.83353C9.03838 5.0007 8.27605 5.31723 7.71414 5.88L2.29571 11.29C2.20201 11.383 2.12764 11.4936 2.07688 11.6154C2.02613 11.7373 2 11.868 2 12C2 12.132 2.02613 12.2627 2.07688 12.3846C2.12764 12.5064 2.20201 12.617 2.29571 12.71L7.71414 18.12C8.27605 18.6828 9.03838 18.9993 9.83353 19H19.0009C19.7963 19 20.5591 18.6839 21.1216 18.1213C21.684 17.5587 22 16.7956 22 16V8C22 7.20435 21.684 6.44129 21.1216 5.87868C20.5591 5.31607 19.7963 5 19.0009 5ZM20.0006 16C20.0006 16.2652 19.8953 16.5196 19.7078 16.7071C19.5203 16.8946 19.266 17 19.0009 17H9.83353C9.56884 16.9963 9.31531 16.8927 9.12373 16.71L4.4151 12L9.12373 7.29C9.31531 7.10727 9.56884 7.00368 9.83353 7H19.0009C19.266 7 19.5203 7.10536 19.7078 7.29289C19.8953 7.48043 20.0006 7.73478 20.0006 8V16ZM16.7115 9.29C16.6186 9.19627 16.508 9.12188 16.3862 9.07111C16.2644 9.02034 16.1337 8.9942 16.0017 8.9942C15.8698 8.9942 15.7391 9.02034 15.6173 9.07111C15.4954 9.12188 15.3849 9.19627 15.2919 9.29L14.0023 10.59L12.7127 9.29C12.5244 9.1017 12.2691 8.99591 12.0029 8.99591C11.7367 8.99591 11.4814 9.1017 11.2931 9.29C11.1049 9.4783 10.9991 9.7337 10.9991 10C10.9991 10.2663 11.1049 10.5217 11.2931 10.71L12.5927 12L11.2931 13.29C11.1994 13.383 11.125 13.4936 11.0743 13.6154C11.0235 13.7373 10.9974 13.868 10.9974 14C10.9974 14.132 11.0235 14.2627 11.0743 14.3846C11.125 14.5064 11.1994 14.617 11.2931 14.71C11.386 14.8037 11.4966 14.8781 11.6184 14.9289C11.7403 14.9797 11.8709 15.0058 12.0029 15.0058C12.1349 15.0058 12.2655 14.9797 12.3874 14.9289C12.5092 14.8781 12.6198 14.8037 12.7127 14.71L14.0023 13.41L15.2919 14.71C15.3849 14.8037 15.4954 14.8781 15.6173 14.9289C15.7391 14.9797 15.8698 15.0058 16.0017 15.0058C16.1337 15.0058 16.2644 14.9797 16.3862 14.9289C16.508 14.8781 16.6186 14.8037 16.7115 14.71C16.8052 14.617 16.8796 14.5064 16.9304 14.3846C16.9811 14.2627 17.0072 14.132 17.0072 14C17.0072 13.868 16.9811 13.7373 16.9304 13.6154C16.8796 13.4936 16.8052 13.383 16.7115 13.29L15.4119 12L16.7115 10.71C16.8052 10.617 16.8796 10.5064 16.9304 10.3846C16.9811 10.2627 17.0072 10.132 17.0072 10C17.0072 9.86799 16.9811 9.73728 16.9304 9.61542C16.8796 9.49356 16.8052 9.38296 16.7115 9.29Z" fill="#0C0C1B"/>
</svg>
