<svg width="24" height="24" viewBox="0 0 24 24" fill="none" xmlns="http://www.w3.org/2000/svg">
<path d="M14.9962 12C14.9962 12.1978 15.0549 12.3911 15.1647 12.5556C15.2746 12.72 15.4307 12.8482 15.6134 12.9239C15.796 12.9996 15.9971 13.0194 16.191 12.9808C16.3849 12.9422 16.563 12.847 16.7028 12.7071C16.8427 12.5673 16.9379 12.3891 16.9764 12.1951C17.015 12.0011 16.9952 11.8 16.9196 11.6173C16.8439 11.4346 16.7158 11.2784 16.5514 11.1685C16.387 11.0587 16.1937 11 15.9959 11C15.7308 11 15.4765 11.1054 15.289 11.2929C15.1016 11.4804 14.9962 11.7348 14.9962 12ZM21.7043 11.29L16.7057 6.29002C16.6123 6.19733 16.5015 6.12401 16.3797 6.07425C16.2579 6.02448 16.1275 5.99926 15.9959 6.00002H4.99913C4.20371 6.00002 3.44087 6.31609 2.87843 6.87869C2.31598 7.4413 2 8.20436 2 9.00001V15C2 15.7956 2.31598 16.5587 2.87843 17.1213C3.44087 17.6839 4.20371 18 4.99913 18H15.9959C16.1275 18.0007 16.2579 17.9755 16.3797 17.9258C16.5015 17.876 16.6123 17.8027 16.7057 17.71L21.7043 12.71C21.798 12.617 21.8724 12.5064 21.9231 12.3846C21.9739 12.2627 22 12.132 22 12C22 11.868 21.9739 11.7373 21.9231 11.6154C21.8724 11.4936 21.798 11.383 21.7043 11.29ZM15.5861 16H4.99913C4.73399 16 4.47971 15.8946 4.29223 15.7071C4.10475 15.5196 3.99942 15.2652 3.99942 15V9.00001C3.99942 8.73479 4.10475 8.48044 4.29223 8.2929C4.47971 8.10537 4.73399 8.00001 4.99913 8.00001H15.5861L19.5849 12L15.5861 16Z" fill="#0C0C1B"/>
</svg>
