<svg width="24" height="24" viewBox="0 0 24 24" fill="none" xmlns="http://www.w3.org/2000/svg">
<path fill-rule="evenodd" clip-rule="evenodd" d="M14.0821 7.29289C14.4726 7.68342 14.4726 8.31658 14.0821 8.70711L5.83211 16.9571C5.44159 17.3476 4.80844 17.3476 4.41791 16.9571L0.292909 12.8323C-0.0976239 12.4418 -0.0976383 11.8086 0.292877 11.4181C0.683393 11.0276 1.31656 11.0275 1.70709 11.4181L5.12498 14.8358L12.6679 7.29289C13.0584 6.90237 13.6916 6.90237 14.0821 7.29289Z" fill="#0C0C1B"/>
<path fill-rule="evenodd" clip-rule="evenodd" d="M23.4571 7.29289C23.8477 7.68342 23.8477 8.31658 23.4571 8.70711L15.2071 16.9571C15.0196 17.1446 14.7653 17.25 14.5 17.25C14.2348 17.25 13.9805 17.1446 13.7929 16.9571L12.2874 15.4516C11.8969 15.0611 11.8969 14.4279 12.2874 14.0374C12.6779 13.6468 13.3111 13.6468 13.7016 14.0374L14.5 14.8358L22.0429 7.29289C22.4335 6.90237 23.0666 6.90237 23.4571 7.29289Z" fill="#0C0C1B"/>
</svg>
