<svg width="24" height="24" viewBox="0 0 24 24" fill="none" xmlns="http://www.w3.org/2000/svg">
<path fill-rule="evenodd" clip-rule="evenodd" d="M3 6V8.01388C3.84961 8.23074 4.60773 8.71809 5.16143 9.4039C5.75429 10.1382 6.07692 11.0553 6.07692 12C6.07692 12.9447 5.75429 13.8618 5.16143 14.5961C4.60773 15.2819 3.84961 15.7693 3 15.9861V18H7.92308V6H3ZM2.76923 4C2.29641 4 1.84522 4.19002 1.5143 4.52462C1.18375 4.85884 1 5.30983 1 5.77778L1 8.18965C1 8.18959 1 8.18971 1 8.18965C0.999967 8.59653 1.13897 8.99252 1.39563 9.31005C1.65233 9.62765 2.01144 9.84781 2.41342 9.93052C2.87987 10.027 3.30133 10.2838 3.60531 10.6603C3.90957 11.0371 4.07692 11.5103 4.07692 12C4.07692 12.4897 3.90957 12.9629 3.60531 13.3397C3.30124 13.7163 2.87962 13.9732 2.413 14.0696C2.0112 14.1523 1.65224 14.3725 1.39563 14.6899C1.13897 15.0075 0.999967 15.4033 1 15.8102C1 15.8101 1 15.8102 1 15.8102V18.2222C1 18.6902 1.18375 19.1412 1.5143 19.4754C1.84522 19.81 2.29642 20 2.76923 20H21.2308C21.7036 20 22.1548 19.81 22.4857 19.4754C22.8163 19.1412 23 18.6902 23 18.2222V15.8103C23 15.8103 23 15.8104 23 15.8103C23 15.4035 22.861 15.0075 22.6044 14.6899C22.3478 14.3725 21.9888 14.1523 21.587 14.0696C21.1204 13.9732 20.6988 13.7163 20.3947 13.3397C20.0904 12.9629 19.9231 12.4897 19.9231 12C19.9231 11.5103 20.0904 11.0371 20.3947 10.6603C20.6988 10.2837 21.1204 10.0268 21.587 9.93043C21.9888 9.84766 22.3478 9.62754 22.6044 9.31005C22.861 8.99252 23 8.59671 23 8.18984C23 8.18977 23 8.1899 23 8.18984V5.77778C23 5.30983 22.8163 4.85884 22.4857 4.52462C22.1548 4.19002 21.7036 4 21.2308 4H2.76923ZM9.92308 6V18H21V15.9861C20.1504 15.7693 19.3923 15.2819 18.8386 14.5961C18.2457 13.8618 17.9231 12.9447 17.9231 12C17.9231 11.0553 18.2457 10.1382 18.8386 9.4039C19.3923 8.7181 20.1504 8.23075 21 8.01388V6H9.92308Z" fill="#0C0C1B"/>
</svg>
