<svg width="24" height="24" viewBox="0 0 24 24" fill="none" xmlns="http://www.w3.org/2000/svg">
<path d="M10.21 14.75C10.303 14.8437 10.4136 14.9181 10.5354 14.9689C10.6573 15.0197 10.788 15.0458 10.92 15.0458C11.052 15.0458 11.1827 15.0197 11.3046 14.9689C11.4264 14.9181 11.537 14.8437 11.63 14.75L15.71 10.67C15.8983 10.4817 16.0041 10.2263 16.0041 9.96C16.0041 9.6937 15.8983 9.4383 15.71 9.25C15.5217 9.0617 15.2663 8.95591 15 8.95591C14.7337 8.95591 14.4783 9.0617 14.29 9.25L10.92 12.63L9.71 11.41C9.5217 11.2217 9.2663 11.1159 9 11.1159C8.7337 11.1159 8.4783 11.2217 8.29 11.41C8.1017 11.5983 7.99591 11.8537 7.99591 12.12C7.99591 12.3863 8.1017 12.6417 8.29 12.83L10.21 14.75Z" fill="#0C0C1B"/>
<path d="M19 2H5C4.20435 2 3.44129 2.31607 2.87868 2.87868C2.31607 3.44129 2 4.20435 2 5V19C2 19.7956 2.31607 20.5587 2.87868 21.1213C3.44129 21.6839 4.20435 22 5 22H19C19.7956 22 20.5587 21.6839 21.1213 21.1213C21.6839 20.5587 22 19.7956 22 19V5C22 4.20435 21.6839 3.44129 21.1213 2.87868C20.5587 2.31607 19.7956 2 19 2ZM20 19C20 19.2652 19.8946 19.5196 19.7071 19.7071C19.5196 19.8946 19.2652 20 19 20H5C4.73478 20 4.48043 19.8946 4.29289 19.7071C4.10536 19.5196 4 19.2652 4 19V5C4 4.73478 4.10536 4.48043 4.29289 4.29289C4.48043 4.10536 4.73478 4 5 4H19C19.2652 4 19.5196 4.10536 19.7071 4.29289C19.8946 4.48043 20 4.73478 20 5V19Z" fill="#0C0C1B"/>
</svg>
