<svg width="24" height="24" viewBox="0 0 24 24" fill="none" xmlns="http://www.w3.org/2000/svg">
<path d="M11.9364 2C9.35653 2.00731 6.87798 2.99891 5.01271 4.77V3C5.01271 2.73478 4.90669 2.48043 4.71796 2.29289C4.52923 2.10536 4.27326 2 4.00636 2C3.73945 2 3.48348 2.10536 3.29475 2.29289C3.10603 2.48043 3 2.73478 3 3V7.5C3 7.76522 3.10603 8.01957 3.29475 8.20711C3.48348 8.39464 3.73945 8.5 4.00636 8.5H8.53496C8.80186 8.5 9.05783 8.39464 9.24656 8.20711C9.43529 8.01957 9.54131 7.76522 9.54131 7.5C9.54131 7.23478 9.43529 6.98043 9.24656 6.79289C9.05783 6.60536 8.80186 6.5 8.53496 6.5H6.1197C7.03721 5.53701 8.18123 4.81576 9.44886 4.40114C10.7165 3.98651 12.068 3.89152 13.3817 4.1247C14.6954 4.35788 15.9303 4.91193 16.975 5.73699C18.0198 6.56205 18.8418 7.63226 19.3671 8.85133C19.8923 10.0704 20.1044 11.4001 19.9842 12.7208C19.8639 14.0415 19.4152 15.3118 18.6783 16.4174C17.9414 17.5231 16.9394 18.4293 15.7626 19.0547C14.5858 19.68 13.271 20.0049 11.9364 20C11.6695 20 11.4136 20.1054 11.2248 20.2929C11.0361 20.4804 10.9301 20.7348 10.9301 21C10.9301 21.2652 11.0361 21.5196 11.2248 21.7071C11.4136 21.8946 11.6695 22 11.9364 22C14.6055 22 17.1652 20.9464 19.0525 19.0711C20.9397 17.1957 22 14.6522 22 12C22 9.34784 20.9397 6.8043 19.0525 4.92893C17.1652 3.05357 14.6055 2 11.9364 2ZM11.9364 8C11.6695 8 11.4136 8.10536 11.2248 8.29289C11.0361 8.48043 10.9301 8.73478 10.9301 9V12C10.9301 12.2652 11.0361 12.5196 11.2248 12.7071C11.4136 12.8946 11.6695 13 11.9364 13H13.9492C14.2161 13 14.472 12.8946 14.6608 12.7071C14.8495 12.5196 14.9555 12.2652 14.9555 12C14.9555 11.7348 14.8495 11.4804 14.6608 11.2929C14.472 11.1054 14.2161 11 13.9492 11H12.9428V9C12.9428 8.73478 12.8368 8.48043 12.648 8.29289C12.4593 8.10536 12.2033 8 11.9364 8Z" fill="#0C0C1B"/>
</svg>
