<svg width="24" height="24" viewBox="0 0 24 24" fill="none" xmlns="http://www.w3.org/2000/svg">
<path d="M11.9751 16.0204C11.7785 16.0204 11.5863 16.0789 11.4228 16.1884C11.2593 16.2979 11.1319 16.4535 11.0566 16.6356C10.9814 16.8177 10.9617 17.0181 11.0001 17.2114C11.0384 17.4047 11.1331 17.5823 11.2721 17.7217C11.4112 17.861 11.5883 17.956 11.7812 17.9944C11.974 18.0329 12.1739 18.0131 12.3556 17.9377C12.5372 17.8623 12.6925 17.7345 12.8017 17.5707C12.911 17.4068 12.9693 17.2141 12.9693 17.017C12.9693 16.7527 12.8645 16.4992 12.6781 16.3123C12.4917 16.1254 12.2388 16.0204 11.9751 16.0204ZM22.5829 17.4854L14.5798 3.53336C14.3212 3.06847 13.9434 2.68125 13.4855 2.41168C13.0275 2.14212 12.5062 2 11.9751 2C11.4441 2 10.9227 2.14212 10.4648 2.41168C10.0069 2.68125 9.62908 3.06847 9.37041 3.53336L1.41707 17.4854C1.14944 17.9378 1.00563 18.4531 1.00016 18.9791C0.994696 19.5051 1.12777 20.0232 1.38594 20.4811C1.64411 20.9391 2.01825 21.3206 2.47057 21.5873C2.9229 21.854 3.4374 21.9963 3.96214 21.9999H19.9881C20.5171 22.0051 21.0379 21.8692 21.4972 21.6061C21.9564 21.3431 22.3377 20.9623 22.6018 20.5028C22.8658 20.0434 23.0033 19.5218 22.9999 18.9915C22.9966 18.4613 22.8527 17.9415 22.5829 17.4854ZM20.863 19.4785C20.7758 19.6339 20.6487 19.7631 20.4948 19.8525C20.3409 19.9419 20.166 19.9882 19.9881 19.9868H3.96214C3.78429 19.9882 3.60931 19.9419 3.45543 19.8525C3.30155 19.7631 3.17441 19.6339 3.08727 19.4785C3.00002 19.327 2.95408 19.1552 2.95408 18.9802C2.95408 18.8053 3.00002 18.6334 3.08727 18.482L11.0406 4.52993C11.124 4.36669 11.2508 4.2297 11.4069 4.13403C11.563 4.03837 11.7424 3.98776 11.9254 3.98776C12.1084 3.98776 12.2878 4.03837 12.4439 4.13403C12.6 4.2297 12.7268 4.36669 12.8102 4.52993L20.8133 18.482C20.9119 18.6313 20.9686 18.8045 20.9773 18.9834C20.9861 19.1622 20.9466 19.3402 20.863 19.4985V19.4785ZM11.9751 8.04783C11.7115 8.04783 11.4586 8.15283 11.2721 8.33972C11.0857 8.52662 10.981 8.7801 10.981 9.04441V13.0307C10.981 13.295 11.0857 13.5485 11.2721 13.7354C11.4586 13.9223 11.7115 14.0273 11.9751 14.0273C12.2388 14.0273 12.4917 13.9223 12.6781 13.7354C12.8645 13.5485 12.9693 13.295 12.9693 13.0307V9.04441C12.9693 8.7801 12.8645 8.52662 12.6781 8.33972C12.4917 8.15283 12.2388 8.04783 11.9751 8.04783Z" fill="#0C0C1B"/>
</svg>
