<svg width="24" height="24" viewBox="0 0 24 24" fill="none" xmlns="http://www.w3.org/2000/svg">
<path d="M11.6193 7.92116C11.7395 7.97238 11.8685 7.99955 11.9991 8.00112H17.9962C18.2613 8.00112 18.5155 8.10643 18.7029 8.29387C18.8904 8.48132 18.9957 8.73554 18.9957 9.00063V14.338C18.9957 14.6031 19.101 14.8573 19.2884 15.0447C19.4759 15.2322 19.7301 15.3375 19.9952 15.3375C20.2603 15.3375 20.5145 15.2322 20.702 15.0447C20.8894 14.8573 20.9947 14.6031 20.9947 14.338V9.00063C20.9947 8.20537 20.6788 7.44269 20.1165 6.88036C19.5541 6.31803 18.7914 6.00211 17.9962 6.00211H14.408L16.7068 3.71324C16.8 3.62005 16.8739 3.50942 16.9244 3.38765C16.9748 3.26589 17.0008 3.13539 17.0008 3.0036C17.0008 2.8718 16.9748 2.7413 16.9244 2.61954C16.8739 2.49777 16.8 2.38714 16.7068 2.29395C16.6136 2.20075 16.503 2.12683 16.3812 2.07639C16.2595 2.02596 16.129 2 15.9972 2C15.731 2 15.4757 2.10574 15.2875 2.29395L11.2895 6.29197C11.1985 6.38703 11.1272 6.49912 11.0796 6.62181C10.9796 6.86515 10.9796 7.13809 11.0796 7.38143C11.181 7.62566 11.3751 7.81974 11.6193 7.92116ZM21.7043 20.2851L3.71324 2.29395C3.52503 2.10574 3.26977 2 3.0036 2C2.73743 2 2.48216 2.10574 2.29395 2.29395C2.10574 2.48216 2 2.73743 2 3.0036C2 3.26977 2.10574 3.52503 2.29395 3.71324L4.83269 6.24199C4.29071 6.47154 3.82828 6.85552 3.50302 7.34607C3.17777 7.83662 3.00408 8.41205 3.0036 9.00063V16.9967C3.0036 17.7919 3.31951 18.5546 3.88184 19.1169C4.44417 19.6793 5.20686 19.9952 6.00211 19.9952V20.9947C6.00211 21.2598 6.10742 21.514 6.29486 21.7015C6.48231 21.8889 6.73653 21.9942 7.00162 21.9942C7.2667 21.9942 7.52093 21.8889 7.70838 21.7015C7.89582 21.514 8.00112 21.2598 8.00112 20.9947V19.9952H15.9972V20.9947C15.9972 21.2598 16.1025 21.514 16.2899 21.7015C16.4774 21.8889 16.7316 21.9942 16.9967 21.9942C17.2618 21.9942 17.516 21.8889 17.7034 21.7015C17.8909 21.514 17.9962 21.2598 17.9962 20.9947V19.9952C18.1742 19.9906 18.3514 19.9705 18.5259 19.9352L20.2851 21.7043C20.378 21.798 20.4885 21.8724 20.6103 21.9231C20.7321 21.9739 20.8628 22 20.9947 22C21.1266 22 21.2573 21.9739 21.3791 21.9231C21.5009 21.8724 21.6114 21.798 21.7043 21.7043C21.798 21.6114 21.8724 21.5009 21.9231 21.3791C21.9739 21.2573 22 21.1266 22 20.9947C22 20.8628 21.9739 20.7321 21.9231 20.6103C21.8724 20.4885 21.798 20.378 21.7043 20.2851ZM6.00211 17.9962C5.73703 17.9962 5.4828 17.8909 5.29536 17.7034C5.10791 17.516 5.00261 17.2618 5.00261 16.9967V9.00063C5.00261 8.73554 5.10791 8.48132 5.29536 8.29387C5.4828 8.10643 5.73703 8.00112 6.00211 8.00112H6.59182L16.5869 17.9962H6.00211Z" fill="#0C0C1B"/>
</svg>
