<svg width="24" height="24" viewBox="0 0 24 24" fill="none" xmlns="http://www.w3.org/2000/svg">
<path d="M6.29556 9.71014C6.38844 9.80387 6.49895 9.87827 6.62071 9.92903C6.74247 9.9798 6.87307 10.0059 7.00497 10.0059C7.13687 10.0059 7.26747 9.9798 7.38923 9.92903C7.51099 9.87827 7.6215 9.80387 7.71439 9.71015L11.0017 6.41019L11.0017 20C11.0017 20.2652 11.1069 20.5196 11.2943 20.7071C11.4817 20.8946 11.7359 21 12.0009 21C12.2659 21 12.52 20.8946 12.7074 20.7071C12.8948 20.5196 13 20.2652 13 20L13 6.41019L16.2873 9.71015C16.4755 9.89845 16.7307 10.0042 16.9967 10.0042C17.2628 10.0042 17.518 9.89845 17.7062 9.71015C17.8943 9.52184 18 9.26645 18 9.00016C18 8.73386 17.8943 8.47847 17.7062 8.29016L12.7103 3.29023C12.6152 3.19919 12.5032 3.12782 12.3805 3.08023C12.2609 3.02733 12.1316 3 12.0009 3C11.8701 3 11.7408 3.02733 11.6212 3.08023C11.4985 3.12782 11.3865 3.19919 11.2914 3.29023L6.29556 8.29016C6.20191 8.38313 6.12757 8.49372 6.07684 8.61558C6.02612 8.73744 6 8.86814 6 9.00015C6 9.13216 6.02612 9.26287 6.07684 9.38473C6.12757 9.50658 6.20191 9.61718 6.29556 9.71014Z" fill="#0C0C1B"/>
</svg>
