<svg width="24" height="24" viewBox="0 0 24 24" fill="none" xmlns="http://www.w3.org/2000/svg">
<path d="M12.3154 11.72C12.8497 11.2581 13.2782 10.6869 13.5719 10.045C13.8657 9.40316 14.0177 8.70571 14.0177 8C14.0177 6.67392 13.4902 5.40215 12.5512 4.46447C11.6123 3.52678 10.3388 3 9.01088 3C7.68299 3 6.40949 3.52678 5.47054 4.46447C4.53158 5.40215 4.00408 6.67392 4.00408 8C4.00407 8.70571 4.15609 9.40316 4.44981 10.045C4.74353 10.6869 5.17209 11.2581 5.70639 11.72C4.30463 12.3539 3.11534 13.3775 2.28072 14.6685C1.4461 15.9596 1.00147 17.4633 1 19C1 19.2652 1.1055 19.5196 1.29329 19.7071C1.48108 19.8946 1.73578 20 2.00136 20C2.26694 20 2.52164 19.8946 2.70943 19.7071C2.89722 19.5196 3.00272 19.2652 3.00272 19C3.00272 17.4087 3.63572 15.8826 4.76247 14.7574C5.88922 13.6321 7.41742 13 9.01088 13C10.6043 13 12.1325 13.6321 13.2593 14.7574C14.386 15.8826 15.019 17.4087 15.019 19C15.019 19.2652 15.1245 19.5196 15.3123 19.7071C15.5001 19.8946 15.7548 20 16.0204 20C16.286 20 16.5407 19.8946 16.7285 19.7071C16.9163 19.5196 17.0218 19.2652 17.0218 19C17.0203 17.4633 16.5757 15.9596 15.741 14.6685C14.9064 13.3775 13.7171 12.3539 12.3154 11.72ZM9.01088 11C8.41673 11 7.83592 10.8241 7.3419 10.4944C6.84788 10.1648 6.46284 9.69623 6.23547 9.14805C6.0081 8.59987 5.94861 7.99667 6.06452 7.41473C6.18043 6.83279 6.46655 6.29824 6.88667 5.87868C7.3068 5.45912 7.84208 5.1734 8.42481 5.05764C9.00755 4.94189 9.61157 5.0013 10.1605 5.22836C10.7094 5.45542 11.1786 5.83994 11.5087 6.33329C11.8388 6.82664 12.015 7.40666 12.015 8C12.015 8.79565 11.6985 9.55871 11.1351 10.1213C10.5717 10.6839 9.80761 11 9.01088 11ZM18.7641 11.32C19.405 10.5993 19.8236 9.70905 19.9696 8.75634C20.1156 7.80362 19.9827 6.82907 19.587 5.95C19.1913 5.07093 18.5496 4.3248 17.7392 3.80142C16.9288 3.27805 15.9842 2.99974 15.019 3C14.7535 3 14.4988 3.10536 14.311 3.29289C14.1232 3.48043 14.0177 3.73478 14.0177 4C14.0177 4.26522 14.1232 4.51957 14.311 4.70711C14.4988 4.89464 14.7535 5 15.019 5C15.8158 5 16.5799 5.31607 17.1432 5.87868C17.7066 6.44129 18.0231 7.20435 18.0231 8C18.0217 8.52524 17.8822 9.0409 17.6186 9.49542C17.355 9.94994 16.9766 10.3274 16.5211 10.59C16.3726 10.6755 16.2486 10.7977 16.1609 10.9447C16.0733 11.0918 16.0249 11.2589 16.0204 11.43C16.0162 11.5998 16.0554 11.7678 16.1342 11.9183C16.213 12.0687 16.329 12.1967 16.471 12.29L16.8615 12.55L16.9917 12.62C18.1987 13.1917 19.217 14.096 19.9267 15.2263C20.6363 16.3566 21.0077 17.6659 20.9972 19C20.9972 19.2652 21.1027 19.5196 21.2904 19.7071C21.4782 19.8946 21.7329 20 21.9985 20C22.2641 20 22.5188 19.8946 22.7066 19.7071C22.8944 19.5196 22.9999 19.2652 22.9999 19C23.0081 17.4654 22.6232 15.9543 21.8818 14.6101C21.1405 13.2659 20.0672 12.1333 18.7641 11.32Z" fill="currentColor"/>
</svg>
