<svg width="24" height="24" viewBox="0 0 29 40" fill="none" xmlns="http://www.w3.org/2000/svg">
<path fill-rule="evenodd" clip-rule="evenodd" d="M27.1221 16.7298C27.1221 21.6595 25.9983 25.3329 23.752 27.7268C21.5057 30.1206 18.0358 31.3169 13.3571 31.3169C8.98606 31.3169 5.66908 30.12 3.40813 27.7268C1.14652 25.3335 0.0160522 21.7241 0.0160522 16.8984V0.708075C0.0173814 0.328412 0.323759 0.0213517 0.701912 0.0200195H8.62851C9.00733 0.0213517 9.3137 0.328412 9.31503 0.708075V17.2521C9.31503 19.2223 9.67857 20.739 10.4189 21.8087C11.7514 23.5791 14.2636 23.9315 16.0301 22.596C16.2952 22.3955 16.5345 22.163 16.7419 21.9033C17.4656 20.8995 17.8258 19.4201 17.8238 17.4652V14.3673H27.1228V16.7298H27.1221Z" fill="#203E7A"/>
<path fill-rule="evenodd" clip-rule="evenodd" d="M26.4027 12.5582H17.8235V0.740047C17.8248 0.3424 18.1458 0.0206856 18.5419 0.0200195H19.8259C19.8286 4.0551 23.093 7.32487 27.1191 7.32487H27.1211V12.5582H26.4027Z" fill="#203E7A"/>
<path fill-rule="evenodd" clip-rule="evenodd" d="M21.6533 0.0200195H26.4024C26.7992 0.0213517 27.1202 0.343066 27.1209 0.740047V5.50582C24.1009 5.50582 21.6526 3.05199 21.6526 0.0253481V0.0200195H21.6533Z" fill="#F4821F"/>
<path fill-rule="evenodd" clip-rule="evenodd" d="M1.57203 39.18C2.62142 39.18 3.12784 38.5945 3.12784 37.7346V35.6624H2.37685V37.714C2.37685 38.1616 2.01465 38.5246 1.56805 38.5246C1.12144 38.5246 0.759236 38.1616 0.759236 37.714V35.6624H0.0148926V37.7413C0.0148926 38.5905 0.521312 39.1813 1.5707 39.1813L1.57203 39.18ZM7.66037 39.1174V38.47H5.99623L7.62448 36.2513V35.6604H5.03456V36.3085H6.66281L5.03456 38.5206V39.1147L7.66037 39.1174ZM11.1688 39.18C11.7715 39.194 12.3305 38.8649 12.6109 38.3301L11.9782 38.0244C11.8214 38.3294 11.509 38.5226 11.1668 38.5266C10.5414 38.4953 10.0595 37.9624 10.0908 37.3356C10.1194 36.7521 10.5846 36.2859 11.1668 36.2573C11.5084 36.2632 11.8201 36.4557 11.9782 36.7595L12.6109 36.4484C12.3305 35.9142 11.7709 35.5865 11.1688 35.6038C10.1838 35.5745 9.36172 36.3505 9.33182 37.3376C9.30258 38.3248 10.0768 39.1487 11.0618 39.1787C11.0976 39.1807 11.1335 39.1807 11.1688 39.18ZM17.5821 39.1174L16.2535 35.6618H15.3338L13.9999 39.1174H14.8373L15.0546 38.5319H16.5333L16.7453 39.1174H17.5821ZM16.3313 37.8845H15.256L15.7937 36.3971L16.3313 37.8845ZM22.5386 39.9846L21.2732 37.8025C21.7398 37.69 22.0581 37.257 22.0282 36.7768C22.0508 36.1827 21.5889 35.6831 20.9961 35.6604C20.9542 35.6591 20.9123 35.6598 20.8705 35.6631H19.2568V39.1187H19.9912V37.8905H20.5289L21.6959 39.9839L22.5386 39.9846ZM20.7615 37.243H19.9912V36.3105H20.7588C21.016 36.2832 21.246 36.4704 21.2732 36.7275C21.3005 36.9853 21.1137 37.2157 20.8572 37.243C20.8246 37.2464 20.7921 37.2464 20.7595 37.243H20.7615ZM25.2933 39.118C26.374 39.118 27.1236 38.434 27.1236 37.3929C27.1236 36.3518 26.3726 35.6624 25.2933 35.6624H23.9336V39.118H25.2933ZM25.2933 38.4706H24.668V36.3105H25.2933C25.8489 36.2692 26.3328 36.6875 26.374 37.2444C26.3773 37.2937 26.3773 37.3436 26.374 37.3929C26.3979 37.9637 25.9559 38.446 25.3864 38.47C25.3551 38.4713 25.3232 38.4713 25.2913 38.4693L25.2933 38.4706Z" fill="#233C7E"/>
<path fill-rule="evenodd" clip-rule="evenodd" d="M28.0149 35.5972V35.6052C28.0149 35.9608 27.7278 36.2486 27.3736 36.2493C27.0187 36.2493 26.7316 35.9615 26.7309 35.6065C26.7309 35.2508 27.018 34.9631 27.3723 34.9624C27.3723 34.9624 27.3723 34.9624 27.3729 34.9624H28.0143L28.0149 35.5972Z" fill="#233C7E"/>
</svg>
