<svg width="24" height="24" viewBox="0 0 24 24" fill="none" xmlns="http://www.w3.org/2000/svg">
<path d="M7.71127 6.29197L3.71324 2.29395C3.62005 2.20075 3.50942 2.12683 3.38765 2.07639C3.26589 2.02596 3.13539 2 3.0036 2C2.8718 2 2.7413 2.02596 2.61954 2.07639C2.49777 2.12683 2.38714 2.20075 2.29395 2.29395C2.10574 2.48216 2 2.73743 2 3.0036C2 3.26977 2.10574 3.52503 2.29395 3.71324L4.62279 6.00211C3.89505 6.09502 3.22662 6.4515 2.74403 7.00409C2.26144 7.55667 1.99818 8.267 2.00409 9.00063V14.9977C2.00409 15.7929 2.32 16.5556 2.88234 17.1179C3.44467 17.6803 4.20735 17.9962 5.00261 17.9962H13.9982C14.6919 17.9929 15.363 17.7492 15.8972 17.3065L20.2851 21.7043C20.378 21.798 20.4885 21.8724 20.6103 21.9231C20.7321 21.9739 20.8628 22 20.9947 22C21.1266 22 21.2573 21.9739 21.3791 21.9231C21.5009 21.8724 21.6114 21.798 21.7043 21.7043C21.798 21.6114 21.8724 21.5009 21.9231 21.3791C21.9739 21.2573 22 21.1266 22 20.9947C22 20.8628 21.9739 20.7321 21.9231 20.6103C21.8724 20.4885 21.798 20.378 21.7043 20.2851L7.71127 6.29197ZM13.9982 15.9972H5.00261C4.73752 15.9972 4.48329 15.8919 4.29585 15.7044C4.10841 15.517 4.0031 15.2627 4.0031 14.9977V9.00063C4.0031 8.73554 4.10841 8.48132 4.29585 8.29387C4.48329 8.10643 4.73752 8.00112 5.00261 8.00112H6.59182L14.4579 15.8772C14.3165 15.9536 14.1588 15.9947 13.9982 15.9972ZM21.5244 7.15154C21.3725 7.06382 21.2001 7.01764 21.0247 7.01764C20.8492 7.01764 20.6769 7.06382 20.5249 7.15154L16.9967 8.89068C16.9682 8.11464 16.6398 7.3799 16.0805 6.84114C15.5212 6.30237 14.7747 6.00159 13.9982 6.00211H12.6588C12.3937 6.00211 12.1395 6.10742 11.9521 6.29486C11.7646 6.48231 11.6593 6.73653 11.6593 7.00162C11.6593 7.2667 11.7646 7.52093 11.9521 7.70838C12.1395 7.89582 12.3937 8.00112 12.6588 8.00112H13.9982C14.2632 8.00112 14.5175 8.10643 14.7049 8.29387C14.8924 8.48132 14.9977 8.73554 14.9977 9.00063V10.4999C14.9939 10.5631 14.9939 10.6265 14.9977 10.6898C15.0036 10.7587 15.0205 10.8261 15.0476 10.8897C15.0476 10.8897 15.0976 10.9497 15.1176 10.9896C15.1583 11.0658 15.2087 11.1363 15.2675 11.1995C15.2675 11.1995 15.3675 11.2595 15.4175 11.2995L15.5874 11.4094C15.6636 11.4199 15.741 11.4199 15.8173 11.4094C15.8638 11.4141 15.9107 11.4141 15.9572 11.4094C16.0204 11.4132 16.0838 11.4132 16.1471 11.4094C16.216 11.4035 16.2834 11.3866 16.347 11.3595L19.9952 9.62032V15.3375C19.9952 15.6026 20.1005 15.8568 20.2879 16.0443C20.4754 16.2317 20.7296 16.337 20.9947 16.337C21.2598 16.337 21.514 16.2317 21.7015 16.0443C21.8889 15.8568 21.9942 15.6026 21.9942 15.3375V8.00112C21.9945 7.83126 21.9516 7.66412 21.8694 7.51547C21.7872 7.36682 21.6685 7.24157 21.5244 7.15154Z" fill="#0C0C1B"/>
</svg>
