<svg width="40" height="40" viewBox="0 0 40 40" fill="none" xmlns="http://www.w3.org/2000/svg">
<path fill-rule="evenodd" clip-rule="evenodd" d="M10.4337 26.1177H7.122L4.6386 16.6434C4.52072 16.2075 4.27045 15.8222 3.9023 15.6407C2.98353 15.1843 1.97112 14.8211 0.866669 14.638V14.2732H6.20162C6.93792 14.2732 7.49015 14.8211 7.58219 15.4575L8.87071 22.2916L12.1808 14.2732H15.4005L10.4337 26.1177ZM17.2413 26.1177H14.1136L16.689 14.2732H19.8167L17.2413 26.1177ZM23.8632 17.5544C23.9552 16.9165 24.5074 16.5517 25.1517 16.5517C26.1641 16.4602 27.2669 16.6433 28.1873 17.0981L28.7395 14.5479C27.8192 14.1832 26.8067 14 25.888 14C22.8524 14 20.6435 15.6406 20.6435 17.9176C20.6435 19.6499 22.2081 20.5594 23.3125 21.1073C24.5074 21.6537 24.9676 22.0184 24.8756 22.5648C24.8756 23.3843 23.9552 23.7491 23.0364 23.7491C21.932 23.7491 20.8275 23.4759 19.8167 23.0195L19.2645 25.5713C20.369 26.0261 21.5638 26.2092 22.6683 26.2092C26.0721 26.2992 28.1873 24.6602 28.1873 22.2C28.1873 19.1019 23.8632 18.9203 23.8632 17.5544ZM39.1334 26.1177L36.65 14.2732H33.9825C33.4303 14.2732 32.878 14.638 32.694 15.1843L28.0953 26.1177H31.315L31.9577 24.387H35.9137L36.2818 26.1177H39.1334ZM34.4426 17.4628L35.3614 21.9268H32.7859L34.4426 17.4628Z" fill="#172B85"/>
</svg>
