<svg width="24" height="24" viewBox="0 0 24 24" fill="none" xmlns="http://www.w3.org/2000/svg">
<path d="M19.9948 17.5491C20.4901 16.7385 20.7023 15.7866 20.5983 14.8426C20.4943 13.8986 20.0799 13.0157 19.4199 12.332C18.76 11.6483 17.8917 11.2025 16.9511 11.0642C16.0104 10.926 15.0504 11.1032 14.2213 11.568C13.3921 12.0329 12.7407 12.7592 12.3689 13.6333C11.9971 14.5074 11.9259 15.48 12.1665 16.3988C12.4071 17.3176 12.9458 18.1308 13.6984 18.7112C14.451 19.2915 15.375 19.6063 16.3258 19.6062C17.1155 19.6025 17.8894 19.3851 18.5652 18.9771L20.2847 20.7046C20.3776 20.7982 20.4882 20.8725 20.61 20.9232C20.7319 20.9739 20.8625 21 20.9945 21C21.1265 21 21.2571 20.9739 21.379 20.9232C21.5008 20.8725 21.6113 20.7982 21.7043 20.7046C21.798 20.6118 21.8724 20.5014 21.9231 20.3797C21.9739 20.258 22 20.1275 22 19.9956C22 19.8638 21.9739 19.7333 21.9231 19.6116C21.8724 19.4899 21.798 19.3795 21.7043 19.2867L19.9948 17.5491ZM17.9954 16.98C17.5548 17.3994 16.9695 17.6333 16.3608 17.6333C15.7522 17.6333 15.1669 17.3994 14.7263 16.98C14.2947 16.546 14.0525 15.959 14.0525 15.3473C14.0525 14.7356 14.2947 14.1487 14.7263 13.7146C14.9408 13.5 15.1956 13.3297 15.4761 13.2135C15.7565 13.0973 16.0572 13.0374 16.3608 13.0374C16.6645 13.0374 16.9651 13.0973 17.2456 13.2135C17.5261 13.3297 17.7809 13.5 17.9954 13.7146C18.427 14.1487 18.6692 14.7356 18.6692 15.3473C18.6692 15.959 18.427 16.546 17.9954 16.98ZM18.9951 3H4.99913C4.20371 3 3.44087 3.31562 2.87843 3.87742C2.31598 4.43923 2 5.2012 2 5.99571V14.9828C2 15.7773 2.31598 16.5393 2.87843 17.1011C3.44087 17.6629 4.20371 17.9785 4.99913 17.9785H8.99797C9.26311 17.9785 9.51739 17.8733 9.70487 17.6861C9.89235 17.4988 9.99768 17.2448 9.99768 16.98C9.99768 16.7151 9.89235 16.4611 9.70487 16.2739C9.51739 16.0866 9.26311 15.9814 8.99797 15.9814H4.99913C4.73399 15.9814 4.47971 15.8762 4.29223 15.6889C4.10475 15.5017 3.99942 15.2477 3.99942 14.9828V8.99141H19.9948V9.98998C19.9948 10.2548 20.1001 10.5088 20.2876 10.6961C20.4751 10.8833 20.7294 10.9886 20.9945 10.9886C21.2596 10.9886 21.5139 10.8833 21.7014 10.6961C21.8889 10.5088 21.9942 10.2548 21.9942 9.98998V5.99571C21.9942 5.2012 21.6782 4.43923 21.1158 3.87742C20.5533 3.31562 19.7905 3 18.9951 3ZM19.9948 6.99428H3.99942V5.99571C3.99942 5.73087 4.10475 5.47688 4.29223 5.28961C4.47971 5.10234 4.73399 4.99714 4.99913 4.99714H18.9951C19.2602 4.99714 19.5145 5.10234 19.702 5.28961C19.8895 5.47688 19.9948 5.73087 19.9948 5.99571V6.99428ZM9.99768 10.9886H6.99855C6.73341 10.9886 6.47913 11.0938 6.29165 11.281C6.10417 11.4683 5.99884 11.7223 5.99884 11.9871C5.99884 12.252 6.10417 12.5059 6.29165 12.6932C6.47913 12.8805 6.73341 12.9857 6.99855 12.9857H9.99768C10.2628 12.9857 10.5171 12.8805 10.7046 12.6932C10.8921 12.5059 10.9974 12.252 10.9974 11.9871C10.9974 11.7223 10.8921 11.4683 10.7046 11.281C10.5171 11.0938 10.2628 10.9886 9.99768 10.9886Z" fill="#0C0C1B"/>
</svg>
