<svg width="24" height="24" viewBox="0 0 24 24" fill="none" xmlns="http://www.w3.org/2000/svg">
<path fill-rule="evenodd" clip-rule="evenodd" d="M4.06189 11H7.45316C7.6614 8.61815 8.44429 6.32981 9.72453 4.32825C6.72369 5.21695 4.45864 7.81837 4.06189 11ZM12 4.55988C10.5778 6.43106 9.69894 8.66003 9.46199 11H14.538C14.3011 8.66003 13.4222 6.43106 12 4.55988ZM14.538 13C14.3011 15.34 13.4222 17.5689 12 19.4401C10.5778 17.5689 9.69894 15.34 9.46199 13H14.538ZM7.45316 13H4.06189C4.45864 16.1816 6.72368 18.7831 9.72453 19.6717C8.44429 17.6702 7.6614 15.3819 7.45316 13ZM14.2755 19.6717C15.5557 17.6702 16.3386 15.3819 16.5468 13H19.9381C19.5414 16.1816 17.2763 18.7831 14.2755 19.6717ZM19.9381 11H16.5468C16.3386 8.61815 15.5557 6.32981 14.2755 4.32825C17.2763 5.21694 19.5414 7.81837 19.9381 11ZM2 12C2 6.47715 6.47715 2 12 2C17.5228 2 22 6.47715 22 12C22 17.5228 17.5228 22 12 22C6.47715 22 2 17.5228 2 12Z" fill="#0C0C1B"/>
</svg>
