<svg width="24" height="24" viewBox="0 0 24 24" fill="none" xmlns="http://www.w3.org/2000/svg">
<path d="M12 15C11.4067 15 10.8266 15.1759 10.3333 15.5056C9.83995 15.8352 9.45543 16.3038 9.22837 16.8519C9.00131 17.4001 8.9419 18.0033 9.05765 18.5853C9.17341 19.1672 9.45913 19.7018 9.87869 20.1213C10.2982 20.5409 10.8328 20.8266 11.4147 20.9424C11.9967 21.0581 12.5999 20.9987 13.1481 20.7716C13.6962 20.5446 14.1648 20.1601 14.4944 19.6667C14.8241 19.1734 15 18.5933 15 18C15 17.2044 14.6839 16.4413 14.1213 15.8787C13.5587 15.3161 12.7957 15 12 15ZM12 19C11.8022 19 11.6089 18.9414 11.4444 18.8315C11.28 18.7216 11.1518 18.5654 11.0761 18.3827C11.0004 18.2 10.9806 17.9989 11.0192 17.8049C11.0578 17.6109 11.153 17.4327 11.2929 17.2929C11.4328 17.153 11.6109 17.0578 11.8049 17.0192C11.9989 16.9806 12.2 17.0004 12.3827 17.0761C12.5654 17.1518 12.7216 17.28 12.8315 17.4444C12.9414 17.6089 13 17.8022 13 18C13 18.2652 12.8947 18.5196 12.7071 18.7071C12.5196 18.8946 12.2652 19 12 19ZM12 11C10.1447 11.0064 8.36656 11.7428 7.05001 13.05C6.86376 13.2374 6.75922 13.4908 6.75922 13.755C6.75922 14.0192 6.86376 14.2726 7.05001 14.46C7.23737 14.6463 7.49082 14.7508 7.75501 14.7508C8.01919 14.7508 8.27265 14.6463 8.46001 14.46C8.92447 13.9944 9.47622 13.6249 10.0837 13.3729C10.6911 13.1208 11.3423 12.9911 12 12.9911C12.6577 12.9911 13.3089 13.1208 13.9163 13.3729C14.5238 13.6249 15.0756 13.9944 15.54 14.46C15.7246 14.6484 15.9762 14.7562 16.24 14.76C16.4429 14.7717 16.6445 14.7213 16.8181 14.6155C16.9916 14.5097 17.1287 14.3535 17.2113 14.1678C17.2938 13.9821 17.3178 13.7756 17.2801 13.5759C17.2423 13.3762 17.1446 13.1928 17 13.05C16.342 12.3967 15.5618 11.8794 14.7039 11.5277C13.846 11.1759 12.9272 10.9966 12 11ZM12 7C9.08399 7.00775 6.28859 8.16472 4.22001 10.22C4.12677 10.3132 4.05281 10.4239 4.00235 10.5458C3.95189 10.6676 3.92592 10.7981 3.92592 10.93C3.92592 11.1963 4.0317 11.4517 4.22001 11.64C4.40831 11.8283 4.66371 11.9341 4.93001 11.9341C5.19631 11.9341 5.4517 11.8283 5.64001 11.64C7.32751 9.95459 9.615 9.00792 12 9.00792C14.385 9.00792 16.6725 9.95459 18.36 11.64C18.4534 11.7327 18.5643 11.806 18.6861 11.8558C18.8079 11.9055 18.9384 11.9308 19.07 11.93C19.2016 11.9308 19.3321 11.9055 19.4539 11.8558C19.5758 11.806 19.6866 11.7327 19.78 11.64C19.8737 11.547 19.9481 11.4364 19.9989 11.3146C20.0497 11.1927 20.0758 11.062 20.0758 10.93C20.0758 10.798 20.0497 10.6673 19.9989 10.5454C19.9481 10.4236 19.8737 10.313 19.78 10.22C17.7114 8.16472 14.916 7.00775 12 7ZM22.61 7.39C21.217 5.9961 19.563 4.89035 17.7425 4.13593C15.922 3.38151 13.9706 2.9932 12 2.9932C10.0294 2.9932 8.07805 3.38151 6.25754 4.13593C4.43703 4.89035 2.78301 5.9961 1.39001 7.39C1.2017 7.5783 1.09592 7.8337 1.09592 8.1C1.09592 8.3663 1.2017 8.6217 1.39001 8.81C1.57831 8.9983 1.83371 9.10409 2.10001 9.10409C2.36631 9.10409 2.6217 8.9983 2.81001 8.81C5.24779 6.37349 8.55336 5.00478 12 5.00478C15.4467 5.00478 18.7522 6.37349 21.19 8.81C21.283 8.90373 21.3936 8.97812 21.5154 9.02889C21.6373 9.07966 21.768 9.1058 21.9 9.1058C22.032 9.1058 22.1627 9.07966 22.2846 9.02889C22.4064 8.97812 22.517 8.90373 22.61 8.81C22.7037 8.71704 22.7781 8.60644 22.8289 8.48458C22.8797 8.36272 22.9058 8.23201 22.9058 8.1C22.9058 7.96799 22.8797 7.83728 22.8289 7.71542C22.7781 7.59356 22.7037 7.48296 22.61 7.39Z" fill="#0C0C1B"/>
</svg>
