<svg width="30" height="31" viewBox="0 0 30 31" fill="none" xmlns="http://www.w3.org/2000/svg">
    <path fill-rule="evenodd" clip-rule="evenodd" d="M0.75 16C0.75 8.12994 7.12994 1.75 15 1.75C22.8701 1.75 29.25 8.12994 29.25 16C29.25 23.8701 22.8701 30.25 15 30.25C7.12994 30.25 0.75 23.8701 0.75 16ZM15 3.74664C8.23265 3.74664 2.74664 9.23265 2.74664 16C2.74664 22.7673 8.23265 28.2534 15 28.2534C21.7673 28.2534 27.2534 22.7673 27.2534 16C27.2534 9.23265 21.7673 3.74664 15 3.74664Z" fill="#FF7A00"/>
    <path fill-rule="evenodd" clip-rule="evenodd" d="M14.1784 9.68189C14.5758 9.29558 15.2124 9.30284 15.6009 9.6982L17.296 11.4234C17.6852 11.8195 17.6778 12.455 17.2796 12.842C16.8821 13.2283 16.2456 13.2211 15.8571 12.8257L14.162 11.1005C13.7728 10.7044 13.7802 10.0689 14.1784 9.68189Z" fill="#FF7A00"/>
    <path d="M19.3682 1.00653C19.3682 0.45164 19.8164 0 20.3715 0C20.9266 0 21.3748 0.45164 21.3748 1.00653V21.0056C21.3748 21.8078 20.9052 22.3233 20.4044 22.5719C19.9885 22.7783 19.5457 22.8157 19.2477 22.8008C17.8481 22.8138 14.8614 22.8322 14.0514 22.7997L14.0461 22.7995C13.4292 22.7736 12.9236 22.5494 12.5688 22.1796C12.2361 21.8327 12.0874 21.41 12.069 21.0585L12.0673 21.0255L12.0676 19.4289C12.0676 19.387 12.0485 19.2965 11.9724 19.1676C11.8972 19.0405 11.8092 18.9487 11.7818 18.9247L11.7361 18.8845L11.6955 18.839C11.5164 18.6384 11.308 18.4062 11.084 18.1566L11.0824 18.1547C10.6764 17.7023 10.2191 17.1925 9.79385 16.7126C9.14854 15.9843 8.51999 15.2612 8.25567 14.8962C7.74616 14.1927 7.74867 13.3115 7.7499 12.8809L7.75005 12.8068V10.9147C7.75005 10.3598 8.19825 9.90821 8.75337 9.90821C9.30849 9.90821 9.75669 10.3598 9.75669 10.9147V12.8068C9.75669 13.0715 9.76328 13.2694 9.78502 13.4224C9.8067 13.5749 9.84065 13.6599 9.8791 13.713C10.0715 13.9787 10.6204 14.6154 11.2936 15.3752C11.7154 15.8512 12.1636 16.3507 12.5672 16.8005C12.7792 17.0368 12.979 17.2595 13.1559 17.4575C13.3271 17.6178 13.5289 17.8542 13.6985 18.1411C13.8839 18.4548 14.0743 18.9031 14.0743 19.4289V20.7838C14.0905 20.7858 14.1095 20.7874 14.1314 20.7883C14.8849 20.8185 17.8479 20.8008 19.2631 20.7875L19.3035 20.7871L19.3439 20.79C19.35 20.7905 19.3583 20.7908 19.3682 20.7907V1.00653Z" fill="#FF7A00"/>
</svg>
